{"glyphs":{"0":{"ha":663,"x_min":50,"x_max":613,"o":"m 331 -16 b 102.8 -2.9 2.1 196.1 84.5 551.5 b 200.3 774.8 416.0 796.0 578.5 552 b 667.0 264.2 596.1 32.9 331 -16 m 331 68 b 576.8 148.7 600.3 494.8 331 642 b 86.7 560.1 63.3 213.5 331 68"},"1":{"ha":384,"x_min":40,"x_max":274,"o":"m 274 0 l 188 0 l 188 526 l 40 526 l 40 600 l 100 600 b 158.1 591.0 204.9 621.0 206 710 l 274 710 l 274 0"},"2":{"ha":619,"x_min":60,"x_max":559,"o":"m 559 0 l 60 0 b 59.5 181.8 212.9 326.8 411 410 b 499.8 462.8 511.8 571.8 327 642 b 254.3 651.6 175.6 599.7 154 492 l 64 498 b 159.4 784.1 445.1 811.5 559 520 b 571.3 406.1 475.8 327.5 218.5 177 q 169 125 166 84 l 559 84 l 559 0"},"3":{"ha":613,"x_min":50,"x_max":563,"o":"m 301 -16 b 184.8 -27.4 66.7 47.6 50 183 l 139 189 b 200.1 42.0 348.1 34.0 449 121.5 b 506.5 167.6 492.9 294.9 302 335 l 246 335 l 246 419 l 302 419 b 502.4 446.9 500.6 648.1 200.5 615 q 165 588 158 541 l 68 547 b 148.5 775.8 417.8 800.4 538 534 q 538 420 415 382 b 600.1 302.8 617.3 132.1 437 9 q 378 -16 301 -16"},"4":{"ha":615,"x_min":30,"x_max":565,"o":"m 477 0 l 391 0 l 391 154 l 30 154 l 30 232 l 385 710 l 477 710 l 477 238 l 565 238 l 565 154 l 477 154 l 477 0 m 391 578 l 134 238 l 391 238 l 391 578"},"5":{"ha":626,"x_min":60,"x_max":565,"o":"m 312 -16 b 202.0 -27.4 82.4 47.6 60 183 l 150 189 b 209.5 26.9 388.8 10.8 475 228 b 424.2 422.0 257.9 437.8 164 311 l 72 311 l 119 710 l 517 710 l 517 626 l 198 626 l 172 412 b 245.5 499.7 385.8 510.3 535 354.5 b 613.1 172.9 546.7 20.7 312 -16"},"6":{"ha":593,"x_min":50,"x_max":553,"o":"m 302 -16 b 10.5 75.4 -9.0 386.5 111.5 600.5 b 212.1 767.4 423.8 785.1 550 558 l 460 550 b 424.4 692.1 259.8 715.2 141 394 l 140 387 b 220.8 505.4 381.6 519.8 523.5 363.5 b 600.6 177.1 534.2 18.2 302 -16 m 304 68 b 503.7 118.3 524.2 313.3 312 396 b 176.1 395.9 108.5 315.3 187.5 115.5 q 231 68 304 68"},"7":{"ha":524,"x_min":20,"x_max":524,"o":"m 266 0 l 178 0 b 162.6 145.9 231.4 367.7 430 626 l 20 626 l 20 710 l 524 710 l 524 632 b 392.0 506.8 284.0 305.2 266 0"},"8":{"ha":604,"x_min":40,"x_max":564,"o":"m 302 -16 b 92.9 -12.9 -5.7 99.2 77 312 q 114 360 177 382 b 45.3 443.1 31.6 582.0 182 700.5 b 355.8 763.8 498.7 710.1 530 531 b 536.2 477.3 498.5 413.2 427 382 b 599.5 299.5 616.4 127.2 438 8 q 379 -16 302 -16 m 302 417 b 478.6 447.4 495.9 583.9 302 642 b 125.0 608.9 108.5 473.4 302 417 m 302 68 b 520.8 100.9 544.4 262.8 302 337 b 79.4 293.8 61.4 130.9 302 68"},"9":{"ha":593,"x_min":40,"x_max":543,"o":"m 268 -16 b 183.6 -24.4 85.3 34.5 49 137 l 140 144 b 181.6 19.4 339.1 -3.0 451 314 l 451 320 b 366.7 195.8 214.0 182.9 70.5 344 b -7.3 533.7 59.7 692.2 287 726 b 505.7 710.5 582.6 532.1 529 232.5 b 524.5 119.7 455.1 12.1 268 -16 m 282 311 b 491.0 356.3 513.3 546.7 287 642 b 87.7 587.2 69.1 396.1 282 311"},"A":{"ha":668,"x_min":20,"x_max":648,"o":"m 114 0 l 20 0 l 276 710 l 392 710 l 648 0 l 554 0 l 483 202 l 185 202 l 114 0 m 334 635 l 214 286 l 454 286 l 334 635"},"Á":{"ha":668,"x_min":20,"x_max":648,"o":"m 114 0 l 20 0 l 276 710 l 392 710 l 648 0 l 554 0 l 483 202 l 185 202 l 114 0 m 334 635 l 214 286 l 454 286 l 334 635 m 367 778 l 297 778 l 363 906 l 457 906 l 367 778"},"Ă":{"ha":668,"x_min":20,"x_max":648,"o":"m 114 0 l 20 0 l 276 710 l 392 710 l 648 0 l 554 0 l 483 202 l 185 202 l 114 0 m 334 635 l 214 286 l 454 286 l 334 635 m 334 783 b 273.8 775.4 205.5 822.5 194 911 l 252 911 b 282.7 825.5 369.5 818.0 415 911 l 473 911 b 478.2 853.3 427.8 789.9 334 783"},"Ắ":{"ha":668,"x_min":20,"x_max":648,"o":"m 114 0 l 20 0 l 276 710 l 392 710 l 648 0 l 554 0 l 483 202 l 185 202 l 114 0 m 334 635 l 214 286 l 454 286 l 334 635 m 370 911 l 302 911 l 350 1019 l 436 1019 l 370 911 m 334 773 b 273.8 765.4 205.5 812.5 194 901 l 252 901 b 282.7 815.5 369.5 808.0 415 901 l 473 901 b 478.2 843.3 427.8 779.9 334 773"},"Ặ":{"ha":668,"x_min":20,"x_max":648,"o":"m 114 0 l 20 0 l 276 710 l 392 710 l 648 0 l 554 0 l 483 202 l 185 202 l 114 0 m 334 635 l 214 286 l 454 286 l 334 635 m 378 -150 l 290 -150 l 290 -60 l 378 -60 l 378 -150 m 334 783 b 273.8 775.4 205.5 822.5 194 911 l 252 911 b 282.7 825.5 369.5 818.0 415 911 l 473 911 b 478.2 853.3 427.8 789.9 334 783"},"Ằ":{"ha":668,"x_min":20,"x_max":648,"o":"m 114 0 l 20 0 l 276 710 l 392 710 l 648 0 l 554 0 l 483 202 l 185 202 l 114 0 m 334 635 l 214 286 l 454 286 l 334 635 m 370 911 l 302 911 l 236 1019 l 322 1019 l 370 911 m 334 773 b 273.8 765.4 205.5 812.5 194 901 l 252 901 b 282.7 815.5 369.5 808.0 415 901 l 473 901 b 478.2 843.3 427.8 779.9 334 773"},"Ẳ":{"ha":668,"x_min":20,"x_max":648,"o":"m 114 0 l 20 0 l 276 710 l 392 710 l 648 0 l 554 0 l 483 202 l 185 202 l 114 0 m 334 635 l 214 286 l 454 286 l 334 635 m 361 903 l 307 903 b 359.8 952.2 366.2 991.9 314 1002 b 303.1 1002.4 282.1 999.7 268 995 l 268 1047 b 290.5 1065.7 364.1 1070.8 408 986 b 409.8 957.0 388.3 922.1 361 903 m 334 783 b 273.8 775.4 205.5 822.5 194 911 l 252 911 b 282.7 825.5 369.5 818.0 415 911 l 473 911 b 478.2 853.3 427.8 789.9 334 783"},"Ẵ":{"ha":668,"x_min":20,"x_max":648,"o":"m 114 0 l 20 0 l 276 710 l 392 710 l 648 0 l 554 0 l 483 202 l 185 202 l 114 0 m 334 635 l 214 286 l 454 286 l 334 635 m 390 945 b 304.0 985.9 284.1 1004.2 248.5 983.5 q 238 973 236 939 l 184 939 b 220.3 1066.8 301.2 1074.4 347 1023 b 379.6 987.5 413.6 981.5 431 1058 l 483 1058 b 486.4 1005.4 452.3 950.3 390 945 m 335 773 b 274.8 765.4 206.5 812.5 195 901 l 253 901 b 283.7 815.5 370.5 808.0 416 901 l 474 901 b 479.2 843.3 428.8 779.9 335 773"},"Ǎ":{"ha":668,"x_min":20,"x_max":648,"o":"m 114 0 l 20 0 l 276 710 l 392 710 l 648 0 l 554 0 l 483 202 l 185 202 l 114 0 m 334 635 l 214 286 l 454 286 l 334 635 m 287 778 l 197 911 l 267 911 l 334 822 l 401 911 l 471 911 l 381 778 l 287 778"},"Â":{"ha":668,"x_min":20,"x_max":648,"o":"m 114 0 l 20 0 l 276 710 l 392 710 l 648 0 l 554 0 l 483 202 l 185 202 l 114 0 m 334 635 l 214 286 l 454 286 l 334 635 m 267 778 l 197 778 l 287 911 l 381 911 l 471 778 l 401 778 l 334 867 l 267 778"},"Ấ":{"ha":668,"x_min":20,"x_max":648,"o":"m 114 0 l 20 0 l 276 710 l 392 710 l 648 0 l 554 0 l 483 202 l 185 202 l 114 0 m 334 635 l 214 286 l 454 286 l 334 635 m 489 870 l 419 870 l 471 998 l 565 998 l 489 870 m 267 768 l 197 768 l 287 890 l 381 890 l 471 768 l 401 768 l 334 844 l 267 768"},"Ậ":{"ha":668,"x_min":20,"x_max":648,"o":"m 114 0 l 20 0 l 276 710 l 392 710 l 648 0 l 554 0 l 483 202 l 185 202 l 114 0 m 334 635 l 214 286 l 454 286 l 334 635 m 378 -150 l 290 -150 l 290 -60 l 378 -60 l 378 -150 m 267 778 l 197 778 l 287 911 l 381 911 l 471 778 l 401 778 l 334 867 l 267 778"},"Ầ":{"ha":668,"x_min":20,"x_max":648,"o":"m 114 0 l 20 0 l 276 710 l 392 710 l 648 0 l 554 0 l 483 202 l 185 202 l 114 0 m 334 635 l 214 286 l 454 286 l 334 635 m 535 870 l 465 870 l 389 998 l 483 998 l 535 870 m 267 768 l 197 768 l 287 890 l 381 890 l 471 768 l 401 768 l 334 844 l 267 768"},"Ẩ":{"ha":668,"x_min":20,"x_max":648,"o":"m 114 0 l 20 0 l 276 710 l 392 710 l 648 0 l 554 0 l 483 202 l 185 202 l 114 0 m 334 635 l 214 286 l 454 286 l 334 635 m 468 863 l 414 863 b 466.2 914.0 472.1 954.0 425 962 b 410.2 962.2 388.4 958.7 375 955 l 375 1007 b 471.0 1034.0 537.3 995.2 500 894.5 q 485 875 468 863 m 267 768 l 197 768 l 287 890 l 381 890 l 471 768 l 401 768 l 334 844 l 267 768"},"Ẫ":{"ha":668,"x_min":20,"x_max":648,"o":"m 114 0 l 20 0 l 276 710 l 392 710 l 648 0 l 554 0 l 483 202 l 185 202 l 114 0 m 334 635 l 214 286 l 454 286 l 334 635 m 392 925 b 306.0 965.9 284.5 984.2 250 963.5 q 240 953 238 919 l 186 919 b 221.1 1047.6 301.5 1054.4 349 1003 b 381.8 967.5 415.7 961.5 432 1038 l 484 1038 b 488.4 984.5 454.5 929.9 392 925 m 268 767 l 198 767 l 288 890 l 382 890 l 472 767 l 402 767 l 335 843 l 268 767"},"Ä":{"ha":668,"x_min":20,"x_max":648,"o":"m 114 0 l 20 0 l 276 710 l 392 710 l 648 0 l 554 0 l 483 202 l 185 202 l 114 0 m 334 635 l 214 286 l 454 286 l 334 635 m 291 793 l 203 793 l 203 891 l 291 891 l 291 793 m 465 793 l 377 793 l 377 891 l 465 891 l 465 793"},"Ạ":{"ha":668,"x_min":20,"x_max":648,"o":"m 114 0 l 20 0 l 276 710 l 392 710 l 648 0 l 554 0 l 483 202 l 185 202 l 114 0 m 334 635 l 214 286 l 454 286 l 334 635 m 378 -150 l 290 -150 l 290 -60 l 378 -60 l 378 -150"},"À":{"ha":668,"x_min":20,"x_max":648,"o":"m 114 0 l 20 0 l 276 710 l 392 710 l 648 0 l 554 0 l 483 202 l 185 202 l 114 0 m 334 635 l 214 286 l 454 286 l 334 635 m 373 778 l 303 778 l 213 906 l 307 906 l 373 778"},"Ả":{"ha":668,"x_min":20,"x_max":648,"o":"m 114 0 l 20 0 l 276 710 l 392 710 l 648 0 l 554 0 l 483 202 l 185 202 l 114 0 m 334 635 l 214 286 l 454 286 l 334 635 m 362 770 l 302 770 b 361.1 824.9 368.4 868.9 309 880 b 297.2 880.4 273.9 876.9 258 872 l 258 930 b 283.9 950.9 365.8 956.9 414 862 b 416.0 830.4 392.5 792.0 362 770"},"Ā":{"ha":668,"x_min":20,"x_max":648,"o":"m 114 0 l 20 0 l 276 710 l 392 710 l 648 0 l 554 0 l 483 202 l 185 202 l 114 0 m 334 635 l 214 286 l 454 286 l 334 635 m 468 805 l 200 805 l 200 877 l 468 877 l 468 805"},"Ą":{"ha":668,"x_min":20,"x_max":683,"o":"m 114 0 l 20 0 l 276 710 l 392 710 l 648 0 l 554 0 l 483 202 l 185 202 l 114 0 m 334 635 l 214 286 l 454 286 l 334 635 m 597 -210 b 484.4 -198.4 476.1 -121.7 561 -22 l 591 18 l 648 0 l 613 -48 b 571.9 -105.3 570.1 -135.7 611 -142 q 639 -142 659 -128 l 683 -184 b 675.3 -195.0 639.0 -208.3 597 -210"},"Å":{"ha":669,"x_min":19,"x_max":647,"o":"m 113 0 l 19 0 l 275 710 l 391 710 l 647 0 l 553 0 l 482 202 l 184 202 l 113 0 m 333 635 l 213 286 l 453 286 l 333 635 m 330 756 b 214.4 787.1 201.9 888.3 330 940 b 445.6 908.9 458.1 807.7 330 756 m 330 806 b 382.9 820.0 388.5 866.6 330 890 b 277.1 876.0 271.5 829.4 330 806"},"Ã":{"ha":668,"x_min":20,"x_max":648,"o":"m 114 0 l 20 0 l 276 710 l 392 710 l 648 0 l 554 0 l 483 202 l 185 202 l 114 0 m 334 635 l 214 286 l 454 286 l 334 635 m 393 790 b 346.0 798.7 304.6 832.5 271 844 b 253.4 849.2 232.9 833.4 228 783 l 176 783 b 212.2 919.5 296.8 927.4 347 870 b 391.2 829.8 427.4 832.5 439 910 l 491 910 b 493.7 853.5 458.1 795.4 393 790"},"Æ":{"ha":972,"x_min":20,"x_max":915,"o":"m 117 0 l 20 0 l 400 710 l 907 710 l 907 626 l 579 626 l 579 397 l 895 397 l 895 315 l 579 315 l 579 84 l 915 84 l 915 0 l 493 0 l 493 202 l 221 202 l 117 0 m 493 286 l 493 629 l 442 629 l 265 286 l 493 286"},"B":{"ha":680,"x_min":92,"x_max":618,"o":"m 376 0 l 92 0 l 92 710 l 336 710 b 640.5 657.0 660.7 451.7 462 367 b 674.9 304.6 700.2 100.2 376 0 m 178 626 l 178 403 l 336 403 b 481.1 391.8 575.1 461.3 336 626 l 178 626 m 178 319 l 178 84 l 376 84 b 570.7 115.9 589.2 256.8 376 319 l 178 319"},"C":{"ha":703,"x_min":45,"x_max":663,"o":"m 364 -16 b 107.6 -4.2 -9.3 194.7 85 552.5 b 216.7 785.9 490.3 810.5 657 484 l 566 478 b 494.5 681.9 297.2 701.2 164 508.5 b 90.9 282.9 151.3 103.4 364 68 b 454.1 57.1 547.4 122.2 572 248 l 663 242 b 661.0 126.5 577.0 13.9 364 -16"},"Ć":{"ha":703,"x_min":45,"x_max":663,"o":"m 364 -16 b 107.6 -4.2 -9.3 194.7 85 552.5 b 216.7 785.9 490.3 810.5 657 484 l 566 478 b 494.5 681.9 297.2 701.2 164 508.5 b 90.9 282.9 151.3 103.4 364 68 b 454.1 57.1 547.4 122.2 572 248 l 663 242 b 661.0 126.5 577.0 13.9 364 -16 m 395 778 l 325 778 l 391 906 l 485 906 l 395 778"},"Č":{"ha":703,"x_min":45,"x_max":663,"o":"m 364 -16 b 107.6 -4.2 -9.3 194.7 85 552.5 b 216.7 785.9 490.3 810.5 657 484 l 566 478 b 494.5 681.9 297.2 701.2 164 508.5 b 90.9 282.9 151.3 103.4 364 68 b 454.1 57.1 547.4 122.2 572 248 l 663 242 b 661.0 126.5 577.0 13.9 364 -16 m 315 778 l 225 911 l 295 911 l 362 822 l 429 911 l 499 911 l 409 778 l 315 778"},"Ç":{"ha":703,"x_min":45,"x_max":663,"o":"m 364 -16 b 107.6 -4.2 -9.3 194.7 85 552.5 b 216.7 785.9 490.3 810.5 657 484 l 566 478 b 494.5 681.9 297.2 701.2 164 508.5 b 90.9 282.9 151.3 103.4 364 68 b 454.1 57.1 547.4 122.2 572 248 l 663 242 b 661.0 126.5 577.0 13.9 364 -16 m 356 -220 b 310.0 -224.2 258.3 -193.6 239 -142 l 290 -122 b 414.6 -188.0 448.2 -112.5 332 -80 l 304 -50 l 342 10 l 406 10 l 372 -36 b 498.8 -65.7 509.4 -168.5 356 -220"},"Ĉ":{"ha":703,"x_min":45,"x_max":663,"o":"m 364 -16 b 107.6 -4.2 -9.3 194.7 85 552.5 b 216.7 785.9 490.3 810.5 657 484 l 566 478 b 494.5 681.9 297.2 701.2 164 508.5 b 90.9 282.9 151.3 103.4 364 68 b 454.1 57.1 547.4 122.2 572 248 l 663 242 b 661.0 126.5 577.0 13.9 364 -16 m 295 778 l 225 778 l 315 911 l 409 911 l 499 778 l 429 778 l 362 867 l 295 778"},"Ċ":{"ha":703,"x_min":45,"x_max":663,"o":"m 364 -16 b 107.6 -4.2 -9.3 194.7 85 552.5 b 216.7 785.9 490.3 810.5 657 484 l 566 478 b 494.5 681.9 297.2 701.2 164 508.5 b 90.9 282.9 151.3 103.4 364 68 b 454.1 57.1 547.4 122.2 572 248 l 663 242 b 661.0 126.5 577.0 13.9 364 -16 m 406 793 l 318 793 l 318 891 l 406 891 l 406 793"},"D":{"ha":694,"x_min":92,"x_max":653,"o":"m 318 0 l 92 0 l 92 710 l 312 710 b 747.9 609.3 788.9 179.8 318 0 m 178 626 l 178 84 l 312 84 b 594.4 97.6 665.0 492.3 312 626 l 178 626"},"Ď":{"ha":694,"x_min":92,"x_max":653,"o":"m 318 0 l 92 0 l 92 710 l 312 710 b 747.9 609.3 788.9 179.8 318 0 m 178 626 l 178 84 l 312 84 b 594.4 97.6 665.0 492.3 312 626 l 178 626 m 276 778 l 186 911 l 256 911 l 323 822 l 390 911 l 460 911 l 370 778 l 276 778"},"Đ":{"ha":694,"x_min":20,"x_max":653,"o":"m 318 0 l 92 0 l 92 710 l 312 710 b 747.9 609.3 788.9 179.8 318 0 m 178 626 l 178 84 l 312 84 b 594.4 97.6 665.0 492.3 312 626 l 178 626 m 380 316 l 20 316 l 20 394 l 380 394 l 380 316"},"Ð":{"ha":694,"x_min":20,"x_max":653,"o":"m 318 0 l 92 0 l 92 710 l 312 710 b 747.9 609.3 788.9 179.8 318 0 m 178 626 l 178 84 l 312 84 b 594.4 97.6 665.0 492.3 312 626 l 178 626 m 380 316 l 20 316 l 20 394 l 380 394 l 380 316"},"E":{"ha":603,"x_min":92,"x_max":546,"o":"m 546 0 l 92 0 l 92 710 l 538 710 l 538 626 l 178 626 l 178 397 l 526 397 l 526 315 l 178 315 l 178 84 l 546 84 l 546 0"},"É":{"ha":603,"x_min":92,"x_max":546,"o":"m 546 0 l 92 0 l 92 710 l 538 710 l 538 626 l 178 626 l 178 397 l 526 397 l 526 315 l 178 315 l 178 84 l 546 84 l 546 0 m 350 778 l 280 778 l 346 906 l 440 906 l 350 778"},"Ě":{"ha":603,"x_min":92,"x_max":546,"o":"m 546 0 l 92 0 l 92 710 l 538 710 l 538 626 l 178 626 l 178 397 l 526 397 l 526 315 l 178 315 l 178 84 l 546 84 l 546 0 m 270 778 l 180 911 l 250 911 l 317 822 l 384 911 l 454 911 l 364 778 l 270 778"},"Ê":{"ha":603,"x_min":92,"x_max":546,"o":"m 546 0 l 92 0 l 92 710 l 538 710 l 538 626 l 178 626 l 178 397 l 526 397 l 526 315 l 178 315 l 178 84 l 546 84 l 546 0 m 250 778 l 180 778 l 270 911 l 364 911 l 454 778 l 384 778 l 317 867 l 250 778"},"Ế":{"ha":603,"x_min":92,"x_max":548,"o":"m 546 0 l 92 0 l 92 710 l 538 710 l 538 626 l 178 626 l 178 397 l 526 397 l 526 315 l 178 315 l 178 84 l 546 84 l 546 0 m 472 870 l 402 870 l 454 998 l 548 998 l 472 870 m 250 768 l 180 768 l 270 890 l 364 890 l 454 768 l 384 768 l 317 844 l 250 768"},"Ệ":{"ha":603,"x_min":92,"x_max":546,"o":"m 546 0 l 92 0 l 92 710 l 538 710 l 538 626 l 178 626 l 178 397 l 526 397 l 526 315 l 178 315 l 178 84 l 546 84 l 546 0 m 363 -150 l 275 -150 l 275 -60 l 363 -60 l 363 -150 m 250 778 l 180 778 l 270 911 l 364 911 l 454 778 l 384 778 l 317 867 l 250 778"},"Ề":{"ha":603,"x_min":92,"x_max":546,"o":"m 546 0 l 92 0 l 92 710 l 538 710 l 538 626 l 178 626 l 178 397 l 526 397 l 526 315 l 178 315 l 178 84 l 546 84 l 546 0 m 518 870 l 448 870 l 372 998 l 466 998 l 518 870 m 250 768 l 180 768 l 270 890 l 364 890 l 454 768 l 384 768 l 317 844 l 250 768"},"Ể":{"ha":603,"x_min":92,"x_max":546,"o":"m 546 0 l 92 0 l 92 710 l 538 710 l 538 626 l 178 626 l 178 397 l 526 397 l 526 315 l 178 315 l 178 84 l 546 84 l 546 0 m 451 863 l 397 863 b 449.2 914.0 455.1 954.0 408 962 b 393.2 962.2 371.4 958.7 358 955 l 358 1007 b 454.0 1034.0 520.3 995.2 483 894.5 q 468 875 451 863 m 250 768 l 180 768 l 270 890 l 364 890 l 454 768 l 384 768 l 317 844 l 250 768"},"Ễ":{"ha":603,"x_min":92,"x_max":546,"o":"m 546 0 l 92 0 l 92 710 l 538 710 l 538 626 l 178 626 l 178 397 l 526 397 l 526 315 l 178 315 l 178 84 l 546 84 l 546 0 m 375 925 b 289.0 965.9 267.5 984.2 233 963.5 q 223 953 221 919 l 169 919 b 204.1 1047.6 284.5 1054.4 332 1003 b 364.8 967.5 398.7 961.5 415 1038 l 467 1038 b 471.4 984.5 437.5 929.9 375 925 m 251 767 l 181 767 l 271 890 l 365 890 l 455 767 l 385 767 l 318 843 l 251 767"},"Ë":{"ha":603,"x_min":92,"x_max":546,"o":"m 546 0 l 92 0 l 92 710 l 538 710 l 538 626 l 178 626 l 178 397 l 526 397 l 526 315 l 178 315 l 178 84 l 546 84 l 546 0 m 274 793 l 186 793 l 186 891 l 274 891 l 274 793 m 448 793 l 360 793 l 360 891 l 448 891 l 448 793"},"Ė":{"ha":603,"x_min":92,"x_max":546,"o":"m 546 0 l 92 0 l 92 710 l 538 710 l 538 626 l 178 626 l 178 397 l 526 397 l 526 315 l 178 315 l 178 84 l 546 84 l 546 0 m 361 793 l 273 793 l 273 891 l 361 891 l 361 793"},"Ẹ":{"ha":603,"x_min":92,"x_max":546,"o":"m 546 0 l 92 0 l 92 710 l 538 710 l 538 626 l 178 626 l 178 397 l 526 397 l 526 315 l 178 315 l 178 84 l 546 84 l 546 0 m 363 -150 l 275 -150 l 275 -60 l 363 -60 l 363 -150"},"È":{"ha":603,"x_min":92,"x_max":546,"o":"m 546 0 l 92 0 l 92 710 l 538 710 l 538 626 l 178 626 l 178 397 l 526 397 l 526 315 l 178 315 l 178 84 l 546 84 l 546 0 m 356 778 l 286 778 l 196 906 l 290 906 l 356 778"},"Ẻ":{"ha":603,"x_min":92,"x_max":546,"o":"m 546 0 l 92 0 l 92 710 l 538 710 l 538 626 l 178 626 l 178 397 l 526 397 l 526 315 l 178 315 l 178 84 l 546 84 l 546 0 m 345 770 l 285 770 b 344.1 824.9 351.4 868.9 292 880 b 280.2 880.4 256.9 876.9 241 872 l 241 930 b 266.9 950.9 348.8 956.9 397 862 b 399.0 830.4 375.5 792.0 345 770"},"Ē":{"ha":603,"x_min":92,"x_max":546,"o":"m 546 0 l 92 0 l 92 710 l 538 710 l 538 626 l 178 626 l 178 397 l 526 397 l 526 315 l 178 315 l 178 84 l 546 84 l 546 0 m 451 805 l 183 805 l 183 877 l 451 877 l 451 805"},"Ę":{"ha":603,"x_min":92,"x_max":581,"o":"m 546 0 l 92 0 l 92 710 l 538 710 l 538 626 l 178 626 l 178 397 l 526 397 l 526 315 l 178 315 l 178 84 l 546 84 l 546 0 m 495 -210 b 382.4 -198.4 374.1 -121.7 459 -22 l 489 18 l 546 0 l 511 -48 b 469.9 -105.3 468.1 -135.7 509 -142 q 537 -142 557 -128 l 581 -184 b 573.3 -195.0 537.0 -208.3 495 -210"},"Ẽ":{"ha":603,"x_min":92,"x_max":546,"o":"m 546 0 l 92 0 l 92 710 l 538 710 l 538 626 l 178 626 l 178 397 l 526 397 l 526 315 l 178 315 l 178 84 l 546 84 l 546 0 m 376 790 b 329.0 798.7 287.6 832.5 254 844 b 236.4 849.2 215.9 833.4 211 783 l 159 783 b 195.2 919.5 279.8 927.4 330 870 b 374.2 829.8 410.4 832.5 422 910 l 474 910 b 476.7 853.5 441.1 795.4 376 790"},"Ə":{"ha":713,"x_min":45,"x_max":668,"o":"m 668 355 b 642.8 52.7 460.6 -72.3 235.5 6.5 b 153.4 21.8 69.3 118.3 45 340 l 45 390 l 577 390 b 552.5 599.9 430.4 686.8 235.5 607 q 186 572 158 501 l 67 510 b 193.7 778.4 444.0 803.5 629 551.5 q 668 468 668 355 m 577 303 l 577 306 l 137 306 b 219.8 22.3 409.7 1.8 538.5 173.5 q 570 226 577 303"},"F":{"ha":590,"x_min":92,"x_max":538,"o":"m 178 0 l 92 0 l 92 710 l 538 710 l 538 626 l 178 626 l 178 388 l 520 388 l 520 306 l 178 306 l 178 0"},"G":{"ha":700,"x_min":45,"x_max":650,"o":"m 362 -16 b 100.5 4.6 -9.2 205.9 83 545 b 219.9 764.9 454.7 783.5 600.5 611 q 635 558 648 492 l 558 486 b 497.5 681.6 286.1 701.6 158.5 496.5 b 92.3 292.8 138.9 116.2 364 68 b 458.1 58.3 546.7 123.8 570 277 l 366 277 l 366 359 l 650 359 l 650 0 l 586 0 l 582 119 b 564.7 59.3 476.4 -8.2 362 -16"},"Ğ":{"ha":700,"x_min":45,"x_max":650,"o":"m 362 -16 b 100.5 4.6 -9.2 205.9 83 545 b 219.9 764.9 454.7 783.5 600.5 611 q 635 558 648 492 l 558 486 b 497.5 681.6 286.1 701.6 158.5 496.5 b 92.3 292.8 138.9 116.2 364 68 b 458.1 58.3 546.7 123.8 570 277 l 366 277 l 366 359 l 650 359 l 650 0 l 586 0 l 582 119 b 564.7 59.3 476.4 -8.2 362 -16 m 364 783 b 303.8 775.4 235.5 822.5 224 911 l 282 911 b 312.7 825.5 399.5 818.0 445 911 l 503 911 b 508.2 853.3 457.8 789.9 364 783"},"Ǧ":{"ha":700,"x_min":45,"x_max":650,"o":"m 362 -16 b 100.5 4.6 -9.2 205.9 83 545 b 219.9 764.9 454.7 783.5 600.5 611 q 635 558 648 492 l 558 486 b 497.5 681.6 286.1 701.6 158.5 496.5 b 92.3 292.8 138.9 116.2 364 68 b 458.1 58.3 546.7 123.8 570 277 l 366 277 l 366 359 l 650 359 l 650 0 l 586 0 l 582 119 b 564.7 59.3 476.4 -8.2 362 -16 m 317 778 l 227 911 l 297 911 l 364 822 l 431 911 l 501 911 l 411 778 l 317 778"},"Ĝ":{"ha":700,"x_min":45,"x_max":650,"o":"m 362 -16 b 100.5 4.6 -9.2 205.9 83 545 b 219.9 764.9 454.7 783.5 600.5 611 q 635 558 648 492 l 558 486 b 497.5 681.6 286.1 701.6 158.5 496.5 b 92.3 292.8 138.9 116.2 364 68 b 458.1 58.3 546.7 123.8 570 277 l 366 277 l 366 359 l 650 359 l 650 0 l 586 0 l 582 119 b 564.7 59.3 476.4 -8.2 362 -16 m 297 778 l 227 778 l 317 911 l 411 911 l 501 778 l 431 778 l 364 867 l 297 778"},"Ģ":{"ha":700,"x_min":45,"x_max":650,"o":"m 362 -16 b 100.5 4.6 -9.2 205.9 83 545 b 219.9 764.9 454.7 783.5 600.5 611 q 635 558 648 492 l 558 486 b 497.5 681.6 286.1 701.6 158.5 496.5 b 92.3 292.8 138.9 116.2 364 68 b 458.1 58.3 546.7 123.8 570 277 l 366 277 l 366 359 l 650 359 l 650 0 l 586 0 l 582 119 b 564.7 59.3 476.4 -8.2 362 -16 m 355 -240 l 297 -240 l 352 -143 l 316 -143 l 316 -53 l 416 -53 l 416 -135 l 355 -240"},"Ġ":{"ha":700,"x_min":45,"x_max":650,"o":"m 362 -16 b 100.5 4.6 -9.2 205.9 83 545 b 219.9 764.9 454.7 783.5 600.5 611 q 635 558 648 492 l 558 486 b 497.5 681.6 286.1 701.6 158.5 496.5 b 92.3 292.8 138.9 116.2 364 68 b 458.1 58.3 546.7 123.8 570 277 l 366 277 l 366 359 l 650 359 l 650 0 l 586 0 l 582 119 b 564.7 59.3 476.4 -8.2 362 -16 m 408 793 l 320 793 l 320 891 l 408 891 l 408 793"},"Ḡ":{"ha":700,"x_min":45,"x_max":650,"o":"m 362 -16 b 100.5 4.6 -9.2 205.9 83 545 b 219.9 764.9 454.7 783.5 600.5 611 q 635 558 648 492 l 558 486 b 497.5 681.6 286.1 701.6 158.5 496.5 b 92.3 292.8 138.9 116.2 364 68 b 458.1 58.3 546.7 123.8 570 277 l 366 277 l 366 359 l 650 359 l 650 0 l 586 0 l 582 119 b 564.7 59.3 476.4 -8.2 362 -16 m 498 805 l 230 805 l 230 877 l 498 877 l 498 805"},"Ǥ":{"ha":744,"x_min":45,"x_max":704,"o":"m 362 -16 b 97.2 8.4 -9.4 211.2 82.5 542 b 212.1 783.9 487.3 810.0 648 492 l 558 486 b 546.4 611.7 458.3 674.8 233 602 b 105.7 473.8 94.8 275.0 233.5 105.5 b 322.2 45.7 448.5 53.7 531 149 l 366 149 l 366 219 l 562 219 q 569 246 570 277 l 366 277 l 366 359 l 650 359 l 650 315 q 650 264 642 219 l 704 219 l 704 149 l 622 149 b 603.5 70.7 507.7 -8.9 362 -16"},"H":{"ha":713,"x_min":92,"x_max":621,"o":"m 178 0 l 92 0 l 92 710 l 178 710 l 178 399 l 535 399 l 535 710 l 621 710 l 621 0 l 535 0 l 535 315 l 178 315 l 178 0"},"Ħ":{"ha":713,"x_min":17,"x_max":697,"o":"m 178 0 l 92 0 l 92 710 l 178 710 l 178 399 l 535 399 l 535 710 l 621 710 l 621 0 l 535 0 l 535 315 l 178 315 l 178 0 m 697 528 l 17 528 l 17 608 l 697 608 l 697 528"},"Ĥ":{"ha":713,"x_min":92,"x_max":621,"o":"m 178 0 l 92 0 l 92 710 l 178 710 l 178 399 l 535 399 l 535 710 l 621 710 l 621 0 l 535 0 l 535 315 l 178 315 l 178 0 m 290 778 l 220 778 l 310 911 l 404 911 l 494 778 l 424 778 l 357 867 l 290 778"},"I":{"ha":270,"x_min":92,"x_max":178,"o":"m 178 0 l 92 0 l 92 710 l 178 710 l 178 0"},"Ĳ":{"ha":847,"x_min":92,"x_max":770,"o":"m 178 0 l 92 0 l 92 710 l 178 710 l 178 0 m 543 -16 b 443.7 -29.5 344.8 42.6 317 232 l 405 238 b 445.1 18.5 612.0 -2.6 684 248 l 684 710 l 770 710 l 770 248 b 783.1 126.6 719.4 11.9 543 -16"},"Í":{"ha":270,"x_min":92,"x_max":258,"o":"m 178 0 l 92 0 l 92 710 l 178 710 l 178 0 m 168 778 l 98 778 l 164 906 l 258 906 l 168 778"},"Î":{"ha":270,"x_min":-2,"x_max":272,"o":"m 178 0 l 92 0 l 92 710 l 178 710 l 178 0 m 68 778 l -2 778 l 88 911 l 182 911 l 272 778 l 202 778 l 135 867 l 68 778"},"Ï":{"ha":270,"x_min":4,"x_max":266,"o":"m 178 0 l 92 0 l 92 710 l 178 710 l 178 0 m 92 793 l 4 793 l 4 891 l 92 891 l 92 793 m 266 793 l 178 793 l 178 891 l 266 891 l 266 793"},"İ":{"ha":270,"x_min":91,"x_max":179,"o":"m 178 0 l 92 0 l 92 710 l 178 710 l 178 0 m 179 793 l 91 793 l 91 891 l 179 891 l 179 793"},"Ị":{"ha":270,"x_min":91,"x_max":179,"o":"m 178 0 l 92 0 l 92 710 l 178 710 l 178 0 m 179 -150 l 91 -150 l 91 -60 l 179 -60 l 179 -150"},"Ì":{"ha":270,"x_min":14,"x_max":178,"o":"m 178 0 l 92 0 l 92 710 l 178 710 l 178 0 m 174 778 l 104 778 l 14 906 l 108 906 l 174 778"},"Ỉ":{"ha":270,"x_min":59,"x_max":215,"o":"m 178 0 l 92 0 l 92 710 l 178 710 l 178 0 m 163 770 l 103 770 b 162.1 824.9 169.4 868.9 110 880 b 98.2 880.4 74.9 876.9 59 872 l 59 930 b 84.9 950.9 166.8 956.9 215 862 b 217.0 830.4 193.5 792.0 163 770"},"Ī":{"ha":270,"x_min":1,"x_max":269,"o":"m 178 0 l 92 0 l 92 710 l 178 710 l 178 0 m 269 805 l 1 805 l 1 877 l 269 877 l 269 805"},"Į":{"ha":270,"x_min":34,"x_max":213,"o":"m 178 0 l 92 0 l 92 710 l 178 710 l 178 0 m 127 -210 b 14.4 -198.4 6.1 -121.7 91 -22 l 121 18 l 178 0 l 143 -48 b 101.9 -105.3 100.1 -135.7 141 -142 q 169 -142 189 -128 l 213 -184 b 205.3 -195.0 169.0 -208.3 127 -210"},"Ĩ":{"ha":270,"x_min":-23,"x_max":292,"o":"m 178 0 l 92 0 l 92 710 l 178 710 l 178 0 m 194 790 b 147.0 798.7 105.6 832.5 72 844 b 54.4 849.2 33.9 833.4 29 783 l -23 783 b 13.2 919.5 97.8 927.4 148 870 b 192.2 829.8 228.4 832.5 240 910 l 292 910 b 294.7 853.5 259.1 795.4 194 790"},"J":{"ha":597,"x_min":67,"x_max":520,"o":"m 293 -16 b 193.7 -29.5 94.8 42.6 67 232 l 155 238 b 195.1 18.5 362.0 -2.6 434 248 l 434 710 l 520 710 l 520 248 b 533.1 126.6 469.4 11.9 293 -16"},"Ĵ":{"ha":597,"x_min":67,"x_max":615,"o":"m 293 -16 b 193.7 -29.5 94.8 42.6 67 232 l 155 238 b 195.1 18.5 362.0 -2.6 434 248 l 434 710 l 520 710 l 520 248 b 533.1 126.6 469.4 11.9 293 -16 m 411 778 l 341 778 l 431 911 l 525 911 l 615 778 l 545 778 l 478 867 l 411 778"},"K":{"ha":640,"x_min":92,"x_max":625,"o":"m 178 0 l 92 0 l 92 710 l 178 710 l 178 357 l 497 710 l 606 710 l 328 402 l 625 0 l 520 0 l 270 338 l 178 237 l 178 0"},"Ǩ":{"ha":640,"x_min":92,"x_max":625,"o":"m 178 0 l 92 0 l 92 710 l 178 710 l 178 357 l 497 710 l 606 710 l 328 402 l 625 0 l 520 0 l 270 338 l 178 237 l 178 0 m 281 778 l 191 911 l 261 911 l 328 822 l 395 911 l 465 911 l 375 778 l 281 778"},"Ķ":{"ha":640,"x_min":92,"x_max":625,"o":"m 178 0 l 92 0 l 92 710 l 178 710 l 178 357 l 497 710 l 606 710 l 328 402 l 625 0 l 520 0 l 270 338 l 178 237 l 178 0 m 336 -240 l 278 -240 l 333 -143 l 297 -143 l 297 -53 l 397 -53 l 397 -135 l 336 -240"},"L":{"ha":580,"x_min":92,"x_max":533,"o":"m 533 0 l 92 0 l 92 710 l 178 710 l 178 84 l 533 84 l 533 0"},"Ĺ":{"ha":580,"x_min":92,"x_max":533,"o":"m 533 0 l 92 0 l 92 710 l 178 710 l 178 84 l 533 84 l 533 0 m 168 778 l 98 778 l 164 906 l 258 906 l 168 778"},"Ľ":{"ha":580,"x_min":92,"x_max":533,"o":"m 533 0 l 92 0 l 92 710 l 178 710 l 178 84 l 533 84 l 533 0 m 462 455 l 400 455 l 430 710 l 514 710 l 462 455"},"Ļ":{"ha":580,"x_min":92,"x_max":533,"o":"m 533 0 l 92 0 l 92 710 l 178 710 l 178 84 l 533 84 l 533 0 m 302 -240 l 244 -240 l 299 -143 l 263 -143 l 263 -53 l 363 -53 l 363 -135 l 302 -240"},"Ł":{"ha":580,"x_min":20,"x_max":533,"o":"m 533 0 l 92 0 l 92 710 l 178 710 l 178 84 l 533 84 l 533 0 m 328 422 l 20 262 l 20 338 l 328 498 l 328 422"},"M":{"ha":877,"x_min":92,"x_max":785,"o":"m 178 0 l 92 0 l 92 710 l 212 710 l 439 94 l 665 710 l 785 710 l 785 0 l 699 0 l 699 550 l 496 0 l 381 0 l 178 550 l 178 0"},"N":{"ha":743,"x_min":92,"x_max":651,"o":"m 178 0 l 92 0 l 92 710 l 214 710 l 565 86 l 565 710 l 651 710 l 651 0 l 523 0 l 178 612 l 178 0"},"Ń":{"ha":743,"x_min":92,"x_max":651,"o":"m 178 0 l 92 0 l 92 710 l 214 710 l 565 86 l 565 710 l 651 710 l 651 0 l 523 0 l 178 612 l 178 0 m 419 778 l 349 778 l 415 906 l 509 906 l 419 778"},"Ň":{"ha":743,"x_min":92,"x_max":651,"o":"m 178 0 l 92 0 l 92 710 l 214 710 l 565 86 l 565 710 l 651 710 l 651 0 l 523 0 l 178 612 l 178 0 m 339 778 l 249 911 l 319 911 l 386 822 l 453 911 l 523 911 l 433 778 l 339 778"},"Ņ":{"ha":743,"x_min":92,"x_max":651,"o":"m 178 0 l 92 0 l 92 710 l 214 710 l 565 86 l 565 710 l 651 710 l 651 0 l 523 0 l 178 612 l 178 0 m 362 -240 l 304 -240 l 359 -143 l 323 -143 l 323 -53 l 423 -53 l 423 -135 l 362 -240"},"Ñ":{"ha":743,"x_min":92,"x_max":651,"o":"m 178 0 l 92 0 l 92 710 l 214 710 l 565 86 l 565 710 l 651 710 l 651 0 l 523 0 l 178 612 l 178 0 m 445 790 b 398.0 798.7 356.6 832.5 323 844 b 305.4 849.2 284.9 833.4 280 783 l 228 783 b 264.2 919.5 348.8 927.4 399 870 b 443.2 829.8 479.4 832.5 491 910 l 543 910 b 545.7 853.5 510.1 795.4 445 790"},"Ŋ":{"ha":743,"x_min":92,"x_max":651,"o":"m 178 0 l 92 0 l 92 710 l 214 710 l 565 87 l 565 710 l 651 710 l 651 -7 b 660.1 -71.6 605.7 -142.4 501 -150 l 398 -150 l 398 -70 l 502 -70 b 533.6 -73.6 563.1 -50.8 565 -8 l 565 0 l 523 0 l 178 611 l 178 0"},"O":{"ha":739,"x_min":45,"x_max":694,"o":"m 369 -16 b 103.6 -4.2 -10.2 194.7 84 552.5 b 216.0 774.8 468.8 795.9 655 552.5 b 756.1 263.4 676.4 31.5 369 -16 m 369 68 b 668.8 150.7 698.1 492.0 369 642 b 70.7 557.2 41.4 215.4 369 68"},"Ó":{"ha":739,"x_min":45,"x_max":694,"o":"m 369 -16 b 103.6 -4.2 -10.2 194.7 84 552.5 b 216.0 774.8 468.8 795.9 655 552.5 b 756.1 263.4 676.4 31.5 369 -16 m 369 68 b 668.8 150.7 698.1 492.0 369 642 b 70.7 557.2 41.4 215.4 369 68 m 402 778 l 332 778 l 398 906 l 492 906 l 402 778"},"Ô":{"ha":739,"x_min":45,"x_max":694,"o":"m 369 -16 b 103.6 -4.2 -10.2 194.7 84 552.5 b 216.0 774.8 468.8 795.9 655 552.5 b 756.1 263.4 676.4 31.5 369 -16 m 369 68 b 668.8 150.7 698.1 492.0 369 642 b 70.7 557.2 41.4 215.4 369 68 m 302 778 l 232 778 l 322 911 l 416 911 l 506 778 l 436 778 l 369 867 l 302 778"},"Ố":{"ha":739,"x_min":45,"x_max":694,"o":"m 369 -16 b 103.6 -4.2 -10.2 194.7 84 552.5 b 216.0 774.8 468.8 795.9 655 552.5 b 756.1 263.4 676.4 31.5 369 -16 m 369 68 b 668.8 150.7 698.1 492.0 369 642 b 70.7 557.2 41.4 215.4 369 68 m 524 870 l 454 870 l 506 998 l 600 998 l 524 870 m 302 768 l 232 768 l 322 890 l 416 890 l 506 768 l 436 768 l 369 844 l 302 768"},"Ộ":{"ha":739,"x_min":45,"x_max":694,"o":"m 369 -16 b 103.6 -4.2 -10.2 194.7 84 552.5 b 216.0 774.8 468.8 795.9 655 552.5 b 756.1 263.4 676.4 31.5 369 -16 m 369 68 b 668.8 150.7 698.1 492.0 369 642 b 70.7 557.2 41.4 215.4 369 68 m 413 -150 l 325 -150 l 325 -60 l 413 -60 l 413 -150 m 302 778 l 232 778 l 322 911 l 416 911 l 506 778 l 436 778 l 369 867 l 302 778"},"Ồ":{"ha":739,"x_min":45,"x_max":694,"o":"m 369 -16 b 103.6 -4.2 -10.2 194.7 84 552.5 b 216.0 774.8 468.8 795.9 655 552.5 b 756.1 263.4 676.4 31.5 369 -16 m 369 68 b 668.8 150.7 698.1 492.0 369 642 b 70.7 557.2 41.4 215.4 369 68 m 570 870 l 500 870 l 424 998 l 518 998 l 570 870 m 302 768 l 232 768 l 322 890 l 416 890 l 506 768 l 436 768 l 369 844 l 302 768"},"Ổ":{"ha":739,"x_min":45,"x_max":694,"o":"m 369 -16 b 103.6 -4.2 -10.2 194.7 84 552.5 b 216.0 774.8 468.8 795.9 655 552.5 b 756.1 263.4 676.4 31.5 369 -16 m 369 68 b 668.8 150.7 698.1 492.0 369 642 b 70.7 557.2 41.4 215.4 369 68 m 503 863 l 449 863 b 501.2 914.0 507.1 954.0 460 962 b 445.2 962.2 423.4 958.7 410 955 l 410 1007 b 506.0 1034.0 572.3 995.2 535 894.5 q 520 875 503 863 m 302 768 l 232 768 l 322 890 l 416 890 l 506 768 l 436 768 l 369 844 l 302 768"},"Ỗ":{"ha":739,"x_min":45,"x_max":694,"o":"m 369 -16 b 103.6 -4.2 -10.2 194.7 84 552.5 b 216.0 774.8 468.8 795.9 655 552.5 b 756.1 263.4 676.4 31.5 369 -16 m 369 68 b 668.8 150.7 698.1 492.0 369 642 b 70.7 557.2 41.4 215.4 369 68 m 427 925 b 341.0 965.9 319.5 984.2 285 963.5 q 275 953 273 919 l 221 919 b 256.1 1047.6 336.5 1054.4 384 1003 b 416.8 967.5 450.7 961.5 467 1038 l 519 1038 b 523.4 984.5 489.5 929.9 427 925 m 303 767 l 233 767 l 323 890 l 417 890 l 507 767 l 437 767 l 370 843 l 303 767"},"Ö":{"ha":739,"x_min":45,"x_max":694,"o":"m 369 -16 b 103.6 -4.2 -10.2 194.7 84 552.5 b 216.0 774.8 468.8 795.9 655 552.5 b 756.1 263.4 676.4 31.5 369 -16 m 369 68 b 668.8 150.7 698.1 492.0 369 642 b 70.7 557.2 41.4 215.4 369 68 m 326 793 l 238 793 l 238 891 l 326 891 l 326 793 m 500 793 l 412 793 l 412 891 l 500 891 l 500 793"},"Ọ":{"ha":739,"x_min":45,"x_max":694,"o":"m 369 -16 b 103.6 -4.2 -10.2 194.7 84 552.5 b 216.0 774.8 468.8 795.9 655 552.5 b 756.1 263.4 676.4 31.5 369 -16 m 369 68 b 668.8 150.7 698.1 492.0 369 642 b 70.7 557.2 41.4 215.4 369 68 m 413 -150 l 325 -150 l 325 -60 l 413 -60 l 413 -150"},"Ò":{"ha":739,"x_min":45,"x_max":694,"o":"m 369 -16 b 103.6 -4.2 -10.2 194.7 84 552.5 b 216.0 774.8 468.8 795.9 655 552.5 b 756.1 263.4 676.4 31.5 369 -16 m 369 68 b 668.8 150.7 698.1 492.0 369 642 b 70.7 557.2 41.4 215.4 369 68 m 408 778 l 338 778 l 248 906 l 342 906 l 408 778"},"Ỏ":{"ha":739,"x_min":45,"x_max":694,"o":"m 369 -16 b 103.6 -4.2 -10.2 194.7 84 552.5 b 216.0 774.8 468.8 795.9 655 552.5 b 756.1 263.4 676.4 31.5 369 -16 m 369 68 b 668.8 150.7 698.1 492.0 369 642 b 70.7 557.2 41.4 215.4 369 68 m 397 770 l 337 770 b 396.1 824.9 403.4 868.9 344 880 b 332.2 880.4 308.9 876.9 293 872 l 293 930 b 318.9 950.9 400.8 956.9 449 862 b 451.0 830.4 427.5 792.0 397 770"},"Ơ":{"ha":739,"x_min":45,"x_max":694,"o":"m 369 -16 b 103.6 -4.2 -10.2 194.7 84 552.5 b 216.0 774.8 468.8 795.9 655 552.5 b 756.1 263.4 676.4 31.5 369 -16 m 369 68 b 668.8 150.7 698.1 492.0 369 642 b 70.7 557.2 41.4 215.4 369 68 m 531 662 l 475 662 l 469 710 l 523 710 b 580.8 712.5 584.7 772.2 559 850 l 633 850 b 666.7 803.7 674.8 709.4 531 662"},"Ớ":{"ha":739,"x_min":45,"x_max":694,"o":"m 369 -16 b 103.6 -4.2 -10.2 194.7 84 552.5 b 216.0 774.8 468.8 795.9 655 552.5 b 756.1 263.4 676.4 31.5 369 -16 m 369 68 b 668.8 150.7 698.1 492.0 369 642 b 70.7 557.2 41.4 215.4 369 68 m 531 662 l 475 662 l 469 710 l 523 710 b 580.8 712.5 584.7 772.2 559 850 l 633 850 b 666.7 803.7 674.8 709.4 531 662 m 402 778 l 332 778 l 398 906 l 492 906 l 402 778"},"Ợ":{"ha":739,"x_min":45,"x_max":694,"o":"m 369 -16 b 103.6 -4.2 -10.2 194.7 84 552.5 b 216.0 774.8 468.8 795.9 655 552.5 b 756.1 263.4 676.4 31.5 369 -16 m 369 68 b 668.8 150.7 698.1 492.0 369 642 b 70.7 557.2 41.4 215.4 369 68 m 531 662 l 475 662 l 469 710 l 523 710 b 580.8 712.5 584.7 772.2 559 850 l 633 850 b 666.7 803.7 674.8 709.4 531 662 m 413 -150 l 325 -150 l 325 -60 l 413 -60 l 413 -150"},"Ờ":{"ha":739,"x_min":45,"x_max":694,"o":"m 369 -16 b 103.6 -4.2 -10.2 194.7 84 552.5 b 216.0 774.8 468.8 795.9 655 552.5 b 756.1 263.4 676.4 31.5 369 -16 m 369 68 b 668.8 150.7 698.1 492.0 369 642 b 70.7 557.2 41.4 215.4 369 68 m 531 662 l 475 662 l 469 710 l 523 710 b 580.8 712.5 584.7 772.2 559 850 l 633 850 b 666.7 803.7 674.8 709.4 531 662 m 408 778 l 338 778 l 248 906 l 342 906 l 408 778"},"Ở":{"ha":739,"x_min":45,"x_max":694,"o":"m 369 -16 b 103.6 -4.2 -10.2 194.7 84 552.5 b 216.0 774.8 468.8 795.9 655 552.5 b 756.1 263.4 676.4 31.5 369 -16 m 369 68 b 668.8 150.7 698.1 492.0 369 642 b 70.7 557.2 41.4 215.4 369 68 m 531 662 l 475 662 l 469 710 l 523 710 b 580.8 712.5 584.7 772.2 559 850 l 633 850 b 666.7 803.7 674.8 709.4 531 662 m 397 770 l 337 770 b 396.1 824.9 403.4 868.9 344 880 b 332.2 880.4 308.9 876.9 293 872 l 293 930 b 318.9 950.9 400.8 956.9 449 862 b 451.0 830.4 427.5 792.0 397 770"},"Ỡ":{"ha":739,"x_min":45,"x_max":694,"o":"m 369 -16 b 103.6 -4.2 -10.2 194.7 84 552.5 b 216.0 774.8 468.8 795.9 655 552.5 b 756.1 263.4 676.4 31.5 369 -16 m 369 68 b 668.8 150.7 698.1 492.0 369 642 b 70.7 557.2 41.4 215.4 369 68 m 531 662 l 475 662 l 469 710 l 523 710 b 580.8 712.5 584.7 772.2 559 850 l 633 850 b 666.7 803.7 674.8 709.4 531 662 m 428 790 b 381.0 798.7 339.6 832.5 306 844 b 288.4 849.2 267.9 833.4 263 783 l 211 783 b 247.2 919.5 331.8 927.4 382 870 b 426.2 829.8 462.4 832.5 474 910 l 526 910 b 528.7 853.5 493.1 795.4 428 790"},"Ő":{"ha":739,"x_min":45,"x_max":694,"o":"m 369 -16 b 103.6 -4.2 -10.2 194.7 84 552.5 b 216.0 774.8 468.8 795.9 655 552.5 b 756.1 263.4 676.4 31.5 369 -16 m 369 68 b 668.8 150.7 698.1 492.0 369 642 b 70.7 557.2 41.4 215.4 369 68 m 335 778 l 265 778 l 331 906 l 425 906 l 335 778 m 466 778 l 396 778 l 462 906 l 556 906 l 466 778"},"Ō":{"ha":739,"x_min":45,"x_max":694,"o":"m 369 -16 b 103.6 -4.2 -10.2 194.7 84 552.5 b 216.0 774.8 468.8 795.9 655 552.5 b 756.1 263.4 676.4 31.5 369 -16 m 369 68 b 668.8 150.7 698.1 492.0 369 642 b 70.7 557.2 41.4 215.4 369 68 m 503 805 l 235 805 l 235 877 l 503 877 l 503 805"},"Ø":{"ha":739,"x_min":45,"x_max":694,"o":"m 369 -16 b 103.6 -4.2 -10.2 194.7 84 552.5 b 216.0 774.8 468.8 795.9 655 552.5 b 756.1 263.4 676.4 31.5 369 -16 m 369 68 b 668.8 150.7 698.1 492.0 369 642 b 70.7 557.2 41.4 215.4 369 68 m 159 -16 l 75 -16 l 580 726 l 664 726 l 159 -16"},"Õ":{"ha":739,"x_min":45,"x_max":694,"o":"m 369 -16 b 103.6 -4.2 -10.2 194.7 84 552.5 b 216.0 774.8 468.8 795.9 655 552.5 b 756.1 263.4 676.4 31.5 369 -16 m 369 68 b 668.8 150.7 698.1 492.0 369 642 b 70.7 557.2 41.4 215.4 369 68 m 428 790 b 381.0 798.7 339.6 832.5 306 844 b 288.4 849.2 267.9 833.4 263 783 l 211 783 b 247.2 919.5 331.8 927.4 382 870 b 426.2 829.8 462.4 832.5 474 910 l 526 910 b 528.7 853.5 493.1 795.4 428 790"},"Œ":{"ha":1088,"x_min":45,"x_max":1031,"o":"m 368 -16 b 100.8 2.1 -9.9 202.9 82.5 547.5 b 219.9 765.2 453.7 783.9 607 609 l 607 710 l 1023 710 l 1023 626 l 693 626 l 693 397 l 1011 397 l 1011 315 l 693 315 l 693 84 l 1031 84 l 1031 0 l 607 0 l 607 100 b 579.3 45.4 488.9 -10.8 368 -16 m 368 68 b 567.2 82.6 644.2 238.0 578 502 b 485.9 680.4 290.7 697.9 160.5 502 b 91.1 289.0 142.7 111.3 368 68"},"P":{"ha":650,"x_min":92,"x_max":598,"o":"m 178 0 l 92 0 l 92 710 l 347 710 b 667.8 647.8 698.8 390.2 347 276 l 178 276 l 178 0 m 178 626 l 178 360 l 347 360 b 528.1 367.6 573.4 562.5 347 626 l 178 626"},"Þ":{"ha":620,"x_min":92,"x_max":568,"o":"m 178 0 l 92 0 l 92 710 l 178 710 l 178 582 l 316 582 b 637.9 519.4 669.1 261.6 316 150 l 178 150 l 178 0 m 316 498 l 178 498 l 178 234 l 316 234 b 498.3 240.8 543.8 433.3 316 498"},"Q":{"ha":733,"x_min":45,"x_max":688,"o":"m 640 -69 l 548 -69 l 489 7 b 446.4 -47.9 294.2 -60.7 83 167 b -16.2 433.3 59.9 662.0 366 726 b 634.3 699.6 742.3 495.0 653 174 q 618 92 552 42 l 640 -69 m 366 68 b 386.0 67.2 414.6 70.4 435 79 l 332 208 l 424 208 l 500 108 b 666.3 448.6 604.1 608.3 366 642 b 169.9 620.4 95.5 462.6 160.5 211 b 175.3 146.4 250.6 75.6 366 68"},"R":{"ha":672,"x_min":92,"x_max":610,"o":"m 178 0 l 92 0 l 92 710 l 361 710 b 639.9 631.6 659.1 440.7 542 364 q 515 341 483 332 b 528.9 331.6 578.7 289.9 590 209 l 610 0 l 523 0 l 505 200 b 509.7 243.5 473.0 283.5 384 286 l 178 286 l 178 0 m 178 626 l 178 370 l 372 370 b 553.2 405.5 572.4 560.0 361 626 l 178 626"},"Ŕ":{"ha":672,"x_min":92,"x_max":610,"o":"m 178 0 l 92 0 l 92 710 l 361 710 b 639.9 631.6 659.1 440.7 542 364 q 515 341 483 332 b 528.9 331.6 578.7 289.9 590 209 l 610 0 l 523 0 l 505 200 b 509.7 243.5 473.0 283.5 384 286 l 178 286 l 178 0 m 178 626 l 178 370 l 372 370 b 553.2 405.5 572.4 560.0 361 626 l 178 626 m 370 778 l 300 778 l 366 906 l 460 906 l 370 778"},"Ř":{"ha":672,"x_min":92,"x_max":610,"o":"m 178 0 l 92 0 l 92 710 l 361 710 b 639.9 631.6 659.1 440.7 542 364 q 515 341 483 332 b 528.9 331.6 578.7 289.9 590 209 l 610 0 l 523 0 l 505 200 b 509.7 243.5 473.0 283.5 384 286 l 178 286 l 178 0 m 178 626 l 178 370 l 372 370 b 553.2 405.5 572.4 560.0 361 626 l 178 626 m 290 778 l 200 911 l 270 911 l 337 822 l 404 911 l 474 911 l 384 778 l 290 778"},"Ŗ":{"ha":672,"x_min":92,"x_max":610,"o":"m 178 0 l 92 0 l 92 710 l 361 710 b 639.9 631.6 659.1 440.7 542 364 q 515 341 483 332 b 528.9 331.6 578.7 289.9 590 209 l 610 0 l 523 0 l 505 200 b 509.7 243.5 473.0 283.5 384 286 l 178 286 l 178 0 m 178 626 l 178 370 l 372 370 b 553.2 405.5 572.4 560.0 361 626 l 178 626 m 339 -240 l 281 -240 l 336 -143 l 300 -143 l 300 -53 l 400 -53 l 400 -135 l 339 -240"},"S":{"ha":640,"x_min":55,"x_max":585,"o":"m 336 -16 b 214.6 -29.1 96.6 41.5 55 227 l 145 233 b 217.5 30.3 420.1 13.3 495 180 b 511.4 255.1 410.3 307.6 161.5 374 b 39.4 441.3 29.0 578.0 180 700.5 b 362.4 768.4 519.3 707.0 570 500 l 480 494 b 416.9 675.5 230.6 693.2 160 528 b 144.2 459.8 233.7 421.9 487.5 347.5 b 618.4 265.5 629.0 128.0 465 8.5 q 409 -16 336 -16"},"Ś":{"ha":640,"x_min":55,"x_max":585,"o":"m 336 -16 b 214.6 -29.1 96.6 41.5 55 227 l 145 233 b 217.5 30.3 420.1 13.3 495 180 b 511.4 255.1 410.3 307.6 161.5 374 b 39.4 441.3 29.0 578.0 180 700.5 b 362.4 768.4 519.3 707.0 570 500 l 480 494 b 416.9 675.5 230.6 693.2 160 528 b 144.2 459.8 233.7 421.9 487.5 347.5 b 618.4 265.5 629.0 128.0 465 8.5 q 409 -16 336 -16 m 339 778 l 269 778 l 335 906 l 429 906 l 339 778"},"Š":{"ha":640,"x_min":55,"x_max":585,"o":"m 336 -16 b 214.6 -29.1 96.6 41.5 55 227 l 145 233 b 217.5 30.3 420.1 13.3 495 180 b 511.4 255.1 410.3 307.6 161.5 374 b 39.4 441.3 29.0 578.0 180 700.5 b 362.4 768.4 519.3 707.0 570 500 l 480 494 b 416.9 675.5 230.6 693.2 160 528 b 144.2 459.8 233.7 421.9 487.5 347.5 b 618.4 265.5 629.0 128.0 465 8.5 q 409 -16 336 -16 m 259 778 l 169 911 l 239 911 l 306 822 l 373 911 l 443 911 l 353 778 l 259 778"},"Ş":{"ha":640,"x_min":55,"x_max":585,"o":"m 336 -16 b 214.6 -29.1 96.6 41.5 55 227 l 145 233 b 217.5 30.3 420.1 13.3 495 180 b 511.4 255.1 410.3 307.6 161.5 374 b 39.4 441.3 29.0 578.0 180 700.5 b 362.4 768.4 519.3 707.0 570 500 l 480 494 b 416.9 675.5 230.6 693.2 160 528 b 144.2 459.8 233.7 421.9 487.5 347.5 b 618.4 265.5 629.0 128.0 465 8.5 q 409 -16 336 -16 m 317 -220 b 271.0 -224.2 219.3 -193.6 200 -142 l 251 -122 b 375.6 -188.0 409.2 -112.5 293 -80 l 265 -50 l 303 10 l 367 10 l 333 -36 b 459.8 -65.7 470.4 -168.5 317 -220"},"Ŝ":{"ha":640,"x_min":55,"x_max":585,"o":"m 336 -16 b 214.6 -29.1 96.6 41.5 55 227 l 145 233 b 217.5 30.3 420.1 13.3 495 180 b 511.4 255.1 410.3 307.6 161.5 374 b 39.4 441.3 29.0 578.0 180 700.5 b 362.4 768.4 519.3 707.0 570 500 l 480 494 b 416.9 675.5 230.6 693.2 160 528 b 144.2 459.8 233.7 421.9 487.5 347.5 b 618.4 265.5 629.0 128.0 465 8.5 q 409 -16 336 -16 m 239 778 l 169 778 l 259 911 l 353 911 l 443 778 l 373 778 l 306 867 l 239 778"},"Ș":{"ha":640,"x_min":55,"x_max":585,"o":"m 336 -16 b 214.6 -29.1 96.6 41.5 55 227 l 145 233 b 217.5 30.3 420.1 13.3 495 180 b 511.4 255.1 410.3 307.6 161.5 374 b 39.4 441.3 29.0 578.0 180 700.5 b 362.4 768.4 519.3 707.0 570 500 l 480 494 b 416.9 675.5 230.6 693.2 160 528 b 144.2 459.8 233.7 421.9 487.5 347.5 b 618.4 265.5 629.0 128.0 465 8.5 q 409 -16 336 -16 m 316 -240 l 258 -240 l 313 -143 l 277 -143 l 277 -53 l 377 -53 l 377 -135 l 316 -240"},"ẞ":{"ha":692,"x_min":92,"x_max":630,"o":"m 178 0 l 92 0 l 92 501 b 79.9 597.3 152.4 699.7 292 710 l 583 710 l 583 618 l 374 428 b 682.2 361.0 701.9 153.1 511.5 27.5 q 455 0 379 0 l 245 0 l 245 84 l 379 84 b 585.7 123.9 606.8 284.3 367 353 l 265 353 l 265 430 l 473 626 l 292 626 b 237.5 634.2 182.8 591.7 178 501 l 178 0"},"T":{"ha":552,"x_min":12,"x_max":540,"o":"m 319 0 l 233 0 l 233 626 l 12 626 l 12 710 l 540 710 l 540 626 l 319 626 l 319 0"},"Ŧ":{"ha":552,"x_min":12,"x_max":540,"o":"m 319 0 l 233 0 l 233 626 l 12 626 l 12 710 l 540 710 l 540 626 l 319 626 l 319 0 m 456 309 l 96 309 l 96 387 l 456 387 l 456 309"},"Ť":{"ha":552,"x_min":12,"x_max":540,"o":"m 319 0 l 233 0 l 233 626 l 12 626 l 12 710 l 540 710 l 540 626 l 319 626 l 319 0 m 229 778 l 139 911 l 209 911 l 276 822 l 343 911 l 413 911 l 323 778 l 229 778"},"Ţ":{"ha":552,"x_min":12,"x_max":540,"o":"m 319 0 l 233 0 l 233 626 l 12 626 l 12 710 l 540 710 l 540 626 l 319 626 l 319 0 m 266 -220 b 220.0 -224.2 168.3 -193.6 149 -142 l 200 -122 b 324.6 -188.0 358.2 -112.5 242 -80 l 214 -50 l 252 10 l 316 10 l 282 -36 b 408.8 -65.7 419.4 -168.5 266 -220"},"Ț":{"ha":552,"x_min":12,"x_max":540,"o":"m 319 0 l 233 0 l 233 626 l 12 626 l 12 710 l 540 710 l 540 626 l 319 626 l 319 0 m 265 -240 l 207 -240 l 262 -143 l 226 -143 l 226 -53 l 326 -53 l 326 -135 l 265 -240"},"U":{"ha":689,"x_min":77,"x_max":612,"o":"m 345 -16 b 222.0 -31.7 105.4 41.8 77 248 l 77 710 l 163 710 l 163 248 b 214.9 17.7 433.2 -4.4 526 248 l 526 710 l 612 710 l 612 248 b 627.7 126.6 553.3 11.9 345 -16"},"Ú":{"ha":689,"x_min":77,"x_max":612,"o":"m 345 -16 b 222.0 -31.7 105.4 41.8 77 248 l 77 710 l 163 710 l 163 248 b 214.9 17.7 433.2 -4.4 526 248 l 526 710 l 612 710 l 612 248 b 627.7 126.6 553.3 11.9 345 -16 m 378 778 l 308 778 l 374 906 l 468 906 l 378 778"},"Ŭ":{"ha":689,"x_min":77,"x_max":612,"o":"m 345 -16 b 222.0 -31.7 105.4 41.8 77 248 l 77 710 l 163 710 l 163 248 b 214.9 17.7 433.2 -4.4 526 248 l 526 710 l 612 710 l 612 248 b 627.7 126.6 553.3 11.9 345 -16 m 345 783 b 284.8 775.4 216.5 822.5 205 911 l 263 911 b 293.7 825.5 380.5 818.0 426 911 l 484 911 b 489.2 853.3 438.8 789.9 345 783"},"Û":{"ha":689,"x_min":77,"x_max":612,"o":"m 345 -16 b 222.0 -31.7 105.4 41.8 77 248 l 77 710 l 163 710 l 163 248 b 214.9 17.7 433.2 -4.4 526 248 l 526 710 l 612 710 l 612 248 b 627.7 126.6 553.3 11.9 345 -16 m 278 778 l 208 778 l 298 911 l 392 911 l 482 778 l 412 778 l 345 867 l 278 778"},"Ü":{"ha":689,"x_min":77,"x_max":612,"o":"m 345 -16 b 222.0 -31.7 105.4 41.8 77 248 l 77 710 l 163 710 l 163 248 b 214.9 17.7 433.2 -4.4 526 248 l 526 710 l 612 710 l 612 248 b 627.7 126.6 553.3 11.9 345 -16 m 302 793 l 214 793 l 214 891 l 302 891 l 302 793 m 476 793 l 388 793 l 388 891 l 476 891 l 476 793"},"Ụ":{"ha":689,"x_min":77,"x_max":612,"o":"m 345 -16 b 222.0 -31.7 105.4 41.8 77 248 l 77 710 l 163 710 l 163 248 b 214.9 17.7 433.2 -4.4 526 248 l 526 710 l 612 710 l 612 248 b 627.7 126.6 553.3 11.9 345 -16 m 389 -150 l 301 -150 l 301 -60 l 389 -60 l 389 -150"},"Ù":{"ha":689,"x_min":77,"x_max":612,"o":"m 345 -16 b 222.0 -31.7 105.4 41.8 77 248 l 77 710 l 163 710 l 163 248 b 214.9 17.7 433.2 -4.4 526 248 l 526 710 l 612 710 l 612 248 b 627.7 126.6 553.3 11.9 345 -16 m 384 778 l 314 778 l 224 906 l 318 906 l 384 778"},"Ủ":{"ha":689,"x_min":77,"x_max":612,"o":"m 345 -16 b 222.0 -31.7 105.4 41.8 77 248 l 77 710 l 163 710 l 163 248 b 214.9 17.7 433.2 -4.4 526 248 l 526 710 l 612 710 l 612 248 b 627.7 126.6 553.3 11.9 345 -16 m 373 770 l 313 770 b 372.1 824.9 379.4 868.9 320 880 b 308.2 880.4 284.9 876.9 269 872 l 269 930 b 294.9 950.9 376.8 956.9 425 862 b 427.0 830.4 403.5 792.0 373 770"},"Ư":{"ha":689,"x_min":77,"x_max":710,"o":"m 345 -16 b 222.0 -31.7 105.4 41.8 77 248 l 77 710 l 163 710 l 163 248 b 214.9 17.7 433.2 -4.4 526 248 l 526 710 l 612 710 l 612 248 b 627.7 126.6 553.3 11.9 345 -16 m 594 662 l 538 662 l 532 710 l 586 710 b 643.8 712.5 647.7 772.2 622 850 l 696 850 b 729.7 803.7 737.8 709.4 594 662"},"Ứ":{"ha":689,"x_min":77,"x_max":710,"o":"m 345 -16 b 222.0 -31.7 105.4 41.8 77 248 l 77 710 l 163 710 l 163 248 b 214.9 17.7 433.2 -4.4 526 248 l 526 710 l 612 710 l 612 248 b 627.7 126.6 553.3 11.9 345 -16 m 594 662 l 538 662 l 532 710 l 586 710 b 643.8 712.5 647.7 772.2 622 850 l 696 850 b 729.7 803.7 737.8 709.4 594 662 m 378 778 l 308 778 l 374 906 l 468 906 l 378 778"},"Ự":{"ha":689,"x_min":77,"x_max":710,"o":"m 345 -16 b 222.0 -31.7 105.4 41.8 77 248 l 77 710 l 163 710 l 163 248 b 214.9 17.7 433.2 -4.4 526 248 l 526 710 l 612 710 l 612 248 b 627.7 126.6 553.3 11.9 345 -16 m 594 662 l 538 662 l 532 710 l 586 710 b 643.8 712.5 647.7 772.2 622 850 l 696 850 b 729.7 803.7 737.8 709.4 594 662 m 389 -150 l 301 -150 l 301 -60 l 389 -60 l 389 -150"},"Ừ":{"ha":689,"x_min":77,"x_max":710,"o":"m 345 -16 b 222.0 -31.7 105.4 41.8 77 248 l 77 710 l 163 710 l 163 248 b 214.9 17.7 433.2 -4.4 526 248 l 526 710 l 612 710 l 612 248 b 627.7 126.6 553.3 11.9 345 -16 m 594 662 l 538 662 l 532 710 l 586 710 b 643.8 712.5 647.7 772.2 622 850 l 696 850 b 729.7 803.7 737.8 709.4 594 662 m 384 778 l 314 778 l 224 906 l 318 906 l 384 778"},"Ử":{"ha":689,"x_min":77,"x_max":710,"o":"m 345 -16 b 222.0 -31.7 105.4 41.8 77 248 l 77 710 l 163 710 l 163 248 b 214.9 17.7 433.2 -4.4 526 248 l 526 710 l 612 710 l 612 248 b 627.7 126.6 553.3 11.9 345 -16 m 594 662 l 538 662 l 532 710 l 586 710 b 643.8 712.5 647.7 772.2 622 850 l 696 850 b 729.7 803.7 737.8 709.4 594 662 m 373 770 l 313 770 b 372.1 824.9 379.4 868.9 320 880 b 308.2 880.4 284.9 876.9 269 872 l 269 930 b 294.9 950.9 376.8 956.9 425 862 b 427.0 830.4 403.5 792.0 373 770"},"Ữ":{"ha":689,"x_min":77,"x_max":710,"o":"m 345 -16 b 222.0 -31.7 105.4 41.8 77 248 l 77 710 l 163 710 l 163 248 b 214.9 17.7 433.2 -4.4 526 248 l 526 710 l 612 710 l 612 248 b 627.7 126.6 553.3 11.9 345 -16 m 594 662 l 538 662 l 532 710 l 586 710 b 643.8 712.5 647.7 772.2 622 850 l 696 850 b 729.7 803.7 737.8 709.4 594 662 m 404 790 b 357.0 798.7 315.6 832.5 282 844 b 264.4 849.2 243.9 833.4 239 783 l 187 783 b 223.2 919.5 307.8 927.4 358 870 b 402.2 829.8 438.4 832.5 450 910 l 502 910 b 504.7 853.5 469.1 795.4 404 790"},"Ű":{"ha":689,"x_min":77,"x_max":612,"o":"m 345 -16 b 222.0 -31.7 105.4 41.8 77 248 l 77 710 l 163 710 l 163 248 b 214.9 17.7 433.2 -4.4 526 248 l 526 710 l 612 710 l 612 248 b 627.7 126.6 553.3 11.9 345 -16 m 311 778 l 241 778 l 307 906 l 401 906 l 311 778 m 442 778 l 372 778 l 438 906 l 532 906 l 442 778"},"Ū":{"ha":689,"x_min":77,"x_max":612,"o":"m 345 -16 b 222.0 -31.7 105.4 41.8 77 248 l 77 710 l 163 710 l 163 248 b 214.9 17.7 433.2 -4.4 526 248 l 526 710 l 612 710 l 612 248 b 627.7 126.6 553.3 11.9 345 -16 m 479 805 l 211 805 l 211 877 l 479 877 l 479 805"},"Ų":{"ha":689,"x_min":77,"x_max":612,"o":"m 345 -16 b 222.0 -31.7 105.4 41.8 77 248 l 77 710 l 163 710 l 163 248 b 214.9 17.7 433.2 -4.4 526 248 l 526 710 l 612 710 l 612 248 b 627.7 126.6 553.3 11.9 345 -16 m 406 -207 b 293.4 -195.4 285.1 -118.7 370 -19 l 400 21 l 457 3 l 422 -45 b 380.9 -102.3 379.1 -132.7 420 -139 q 448 -139 468 -125 l 492 -181 b 484.3 -192.0 448.0 -205.3 406 -207"},"Ů":{"ha":689,"x_min":77,"x_max":612,"o":"m 345 -16 b 222.0 -31.7 105.4 41.8 77 248 l 77 710 l 163 710 l 163 248 b 214.9 17.7 433.2 -4.4 526 248 l 526 710 l 612 710 l 612 248 b 627.7 126.6 553.3 11.9 345 -16 m 345 756 b 229.4 787.1 216.9 888.3 345 940 b 460.6 908.9 473.1 807.7 345 756 m 345 806 b 397.9 820.0 403.5 866.6 345 890 b 292.1 876.0 286.5 829.4 345 806"},"Ũ":{"ha":689,"x_min":77,"x_max":612,"o":"m 345 -16 b 222.0 -31.7 105.4 41.8 77 248 l 77 710 l 163 710 l 163 248 b 214.9 17.7 433.2 -4.4 526 248 l 526 710 l 612 710 l 612 248 b 627.7 126.6 553.3 11.9 345 -16 m 404 790 b 357.0 798.7 315.6 832.5 282 844 b 264.4 849.2 243.9 833.4 239 783 l 187 783 b 223.2 919.5 307.8 927.4 358 870 b 402.2 829.8 438.4 832.5 450 910 l 502 910 b 504.7 853.5 469.1 795.4 404 790"},"V":{"ha":667,"x_min":20,"x_max":647,"o":"m 390 0 l 277 0 l 20 710 l 114 710 l 334 94 l 553 710 l 647 710 l 390 0"},"W":{"ha":945,"x_min":38,"x_max":907,"o":"m 332 0 l 225 0 l 38 710 l 132 710 l 278 118 l 423 710 l 521 710 l 667 118 l 812 710 l 907 710 l 720 0 l 612 0 l 472 550 l 332 0"},"Ẃ":{"ha":945,"x_min":38,"x_max":907,"o":"m 332 0 l 225 0 l 38 710 l 132 710 l 278 118 l 423 710 l 521 710 l 667 118 l 812 710 l 907 710 l 720 0 l 612 0 l 472 550 l 332 0 m 505 778 l 435 778 l 501 906 l 595 906 l 505 778"},"Ŵ":{"ha":945,"x_min":38,"x_max":907,"o":"m 332 0 l 225 0 l 38 710 l 132 710 l 278 118 l 423 710 l 521 710 l 667 118 l 812 710 l 907 710 l 720 0 l 612 0 l 472 550 l 332 0 m 405 778 l 335 778 l 425 911 l 519 911 l 609 778 l 539 778 l 472 867 l 405 778"},"Ẅ":{"ha":945,"x_min":38,"x_max":907,"o":"m 332 0 l 225 0 l 38 710 l 132 710 l 278 118 l 423 710 l 521 710 l 667 118 l 812 710 l 907 710 l 720 0 l 612 0 l 472 550 l 332 0 m 429 793 l 341 793 l 341 891 l 429 891 l 429 793 m 603 793 l 515 793 l 515 891 l 603 891 l 603 793"},"Ẁ":{"ha":945,"x_min":38,"x_max":907,"o":"m 332 0 l 225 0 l 38 710 l 132 710 l 278 118 l 423 710 l 521 710 l 667 118 l 812 710 l 907 710 l 720 0 l 612 0 l 472 550 l 332 0 m 511 778 l 441 778 l 351 906 l 445 906 l 511 778"},"X":{"ha":606,"x_min":15,"x_max":591,"o":"m 115 0 l 15 0 l 248 356 l 17 710 l 119 710 l 304 424 l 487 710 l 587 710 l 356 358 l 591 0 l 489 0 l 302 290 l 115 0"},"Y":{"ha":576,"x_min":-6,"x_max":582,"o":"m 331 0 l 245 0 l 245 290 l -6 710 l 96 710 l 288 378 l 480 710 l 582 710 l 331 290 l 331 0"},"Ý":{"ha":576,"x_min":-6,"x_max":582,"o":"m 331 0 l 245 0 l 245 290 l -6 710 l 96 710 l 288 378 l 480 710 l 582 710 l 331 290 l 331 0 m 321 778 l 251 778 l 317 906 l 411 906 l 321 778"},"Ŷ":{"ha":576,"x_min":-6,"x_max":582,"o":"m 331 0 l 245 0 l 245 290 l -6 710 l 96 710 l 288 378 l 480 710 l 582 710 l 331 290 l 331 0 m 221 778 l 151 778 l 241 911 l 335 911 l 425 778 l 355 778 l 288 867 l 221 778"},"Ÿ":{"ha":576,"x_min":-6,"x_max":582,"o":"m 331 0 l 245 0 l 245 290 l -6 710 l 96 710 l 288 378 l 480 710 l 582 710 l 331 290 l 331 0 m 245 793 l 157 793 l 157 891 l 245 891 l 245 793 m 419 793 l 331 793 l 331 891 l 419 891 l 419 793"},"Ỵ":{"ha":576,"x_min":-6,"x_max":582,"o":"m 331 0 l 245 0 l 245 290 l -6 710 l 96 710 l 288 378 l 480 710 l 582 710 l 331 290 l 331 0 m 332 -150 l 244 -150 l 244 -60 l 332 -60 l 332 -150"},"Ỳ":{"ha":576,"x_min":-6,"x_max":582,"o":"m 331 0 l 245 0 l 245 290 l -6 710 l 96 710 l 288 378 l 480 710 l 582 710 l 331 290 l 331 0 m 327 778 l 257 778 l 167 906 l 261 906 l 327 778"},"Ỷ":{"ha":576,"x_min":-6,"x_max":582,"o":"m 331 0 l 245 0 l 245 290 l -6 710 l 96 710 l 288 378 l 480 710 l 582 710 l 331 290 l 331 0 m 316 770 l 256 770 b 315.1 824.9 322.4 868.9 263 880 b 251.2 880.4 227.9 876.9 212 872 l 212 930 b 237.9 950.9 319.8 956.9 368 862 b 370.0 830.4 346.5 792.0 316 770"},"Ỹ":{"ha":576,"x_min":-6,"x_max":582,"o":"m 331 0 l 245 0 l 245 290 l -6 710 l 96 710 l 288 378 l 480 710 l 582 710 l 331 290 l 331 0 m 347 790 b 300.0 798.7 258.6 832.5 225 844 b 207.4 849.2 186.9 833.4 182 783 l 130 783 b 166.2 919.5 250.8 927.4 301 870 b 345.2 829.8 381.4 832.5 393 910 l 445 910 b 447.7 853.5 412.1 795.4 347 790"},"Z":{"ha":544,"x_min":28,"x_max":516,"o":"m 516 0 l 28 0 l 28 88 l 408 626 l 41 626 l 41 710 l 506 710 l 506 622 l 126 84 l 516 84 l 516 0"},"Ź":{"ha":544,"x_min":28,"x_max":516,"o":"m 516 0 l 28 0 l 28 88 l 408 626 l 41 626 l 41 710 l 506 710 l 506 622 l 126 84 l 516 84 l 516 0 m 313 778 l 243 778 l 309 906 l 403 906 l 313 778"},"Ž":{"ha":544,"x_min":28,"x_max":516,"o":"m 516 0 l 28 0 l 28 88 l 408 626 l 41 626 l 41 710 l 506 710 l 506 622 l 126 84 l 516 84 l 516 0 m 233 778 l 143 911 l 213 911 l 280 822 l 347 911 l 417 911 l 327 778 l 233 778"},"Ż":{"ha":544,"x_min":28,"x_max":516,"o":"m 516 0 l 28 0 l 28 88 l 408 626 l 41 626 l 41 710 l 506 710 l 506 622 l 126 84 l 516 84 l 516 0 m 324 793 l 236 793 l 236 891 l 324 891 l 324 793"},"Ꞌ":{"ha":176,"x_min":45,"x_max":131,"o":"m 119 350 l 57 350 l 45 590 l 45 710 l 131 710 l 131 590 l 119 350"},"a":{"ha":551,"x_min":44,"x_max":532,"o":"m 223 -12 b -2.6 26.8 -26.6 196.2 211 294 l 399 329 b 334.2 509.9 188.8 495.5 142 367 l 53 374 b 138.4 594.5 379.0 620.0 483 326 l 483 107 q 483 74 511 74 l 532 74 l 532 0 b 519.4 -15.3 441.8 -12.3 401 77 l 400 82 b 387.7 41.1 316.0 -6.2 223 -12 m 231 62 b 310.3 53.7 391.6 114.8 399 218 l 399 256 l 227 224 b 101.2 187.9 93.1 101.1 231 62"},"á":{"ha":551,"x_min":44,"x_max":532,"o":"m 223 -12 b -2.6 26.8 -26.6 196.2 211 294 l 399 329 b 334.2 509.9 188.8 495.5 142 367 l 53 374 b 138.4 594.5 379.0 620.0 483 326 l 483 107 q 483 74 511 74 l 532 74 l 532 0 b 519.4 -15.3 441.8 -12.3 401 77 l 400 82 b 387.7 41.1 316.0 -6.2 223 -12 m 231 62 b 310.3 53.7 391.6 114.8 399 218 l 399 256 l 227 224 b 101.2 187.9 93.1 101.1 231 62 m 311 598 l 241 598 l 307 726 l 401 726 l 311 598"},"ă":{"ha":551,"x_min":44,"x_max":532,"o":"m 223 -12 b -2.6 26.8 -26.6 196.2 211 294 l 399 329 b 334.2 509.9 188.8 495.5 142 367 l 53 374 b 138.4 594.5 379.0 620.0 483 326 l 483 107 q 483 74 511 74 l 532 74 l 532 0 b 519.4 -15.3 441.8 -12.3 401 77 l 400 82 b 387.7 41.1 316.0 -6.2 223 -12 m 231 62 b 310.3 53.7 391.6 114.8 399 218 l 399 256 l 227 224 b 101.2 187.9 93.1 101.1 231 62 m 278 603 b 217.8 595.4 149.5 642.5 138 731 l 196 731 b 226.7 645.5 313.5 638.0 359 731 l 417 731 b 422.2 673.3 371.8 609.9 278 603"},"ắ":{"ha":551,"x_min":44,"x_max":532,"o":"m 223 -12 b -2.6 26.8 -26.6 196.2 211 294 l 399 329 b 334.2 509.9 188.8 495.5 142 367 l 53 374 b 138.4 594.5 379.0 620.0 483 326 l 483 107 q 483 74 511 74 l 532 74 l 532 0 b 519.4 -15.3 441.8 -12.3 401 77 l 400 82 b 387.7 41.1 316.0 -6.2 223 -12 m 231 62 b 310.3 53.7 391.6 114.8 399 218 l 399 256 l 227 224 b 101.2 187.9 93.1 101.1 231 62 m 314 731 l 246 731 l 294 839 l 380 839 l 314 731 m 278 593 b 217.8 585.4 149.5 632.5 138 721 l 196 721 b 226.7 635.5 313.5 628.0 359 721 l 417 721 b 422.2 663.3 371.8 599.9 278 593"},"ặ":{"ha":551,"x_min":44,"x_max":532,"o":"m 223 -12 b -2.6 26.8 -26.6 196.2 211 294 l 399 329 b 334.2 509.9 188.8 495.5 142 367 l 53 374 b 138.4 594.5 379.0 620.0 483 326 l 483 107 q 483 74 511 74 l 532 74 l 532 0 b 519.4 -15.3 441.8 -12.3 401 77 l 400 82 b 387.7 41.1 316.0 -6.2 223 -12 m 231 62 b 310.3 53.7 391.6 114.8 399 218 l 399 256 l 227 224 b 101.2 187.9 93.1 101.1 231 62 m 311 -150 l 223 -150 l 223 -60 l 311 -60 l 311 -150 m 278 603 b 217.8 595.4 149.5 642.5 138 731 l 196 731 b 226.7 645.5 313.5 638.0 359 731 l 417 731 b 422.2 673.3 371.8 609.9 278 603"},"ằ":{"ha":551,"x_min":44,"x_max":532,"o":"m 223 -12 b -2.6 26.8 -26.6 196.2 211 294 l 399 329 b 334.2 509.9 188.8 495.5 142 367 l 53 374 b 138.4 594.5 379.0 620.0 483 326 l 483 107 q 483 74 511 74 l 532 74 l 532 0 b 519.4 -15.3 441.8 -12.3 401 77 l 400 82 b 387.7 41.1 316.0 -6.2 223 -12 m 231 62 b 310.3 53.7 391.6 114.8 399 218 l 399 256 l 227 224 b 101.2 187.9 93.1 101.1 231 62 m 314 731 l 246 731 l 180 839 l 266 839 l 314 731 m 278 593 b 217.8 585.4 149.5 632.5 138 721 l 196 721 b 226.7 635.5 313.5 628.0 359 721 l 417 721 b 422.2 663.3 371.8 599.9 278 593"},"ẳ":{"ha":551,"x_min":44,"x_max":532,"o":"m 223 -12 b -2.6 26.8 -26.6 196.2 211 294 l 399 329 b 334.2 509.9 188.8 495.5 142 367 l 53 374 b 138.4 594.5 379.0 620.0 483 326 l 483 107 q 483 74 511 74 l 532 74 l 532 0 b 519.4 -15.3 441.8 -12.3 401 77 l 400 82 b 387.7 41.1 316.0 -6.2 223 -12 m 231 62 b 310.3 53.7 391.6 114.8 399 218 l 399 256 l 227 224 b 101.2 187.9 93.1 101.1 231 62 m 305 723 l 251 723 b 303.8 772.2 310.2 811.9 258 822 b 247.1 822.4 226.1 819.7 212 815 l 212 867 b 234.5 885.7 308.1 890.8 352 806 b 353.8 777.0 332.3 742.1 305 723 m 278 603 b 217.8 595.4 149.5 642.5 138 731 l 196 731 b 226.7 645.5 313.5 638.0 359 731 l 417 731 b 422.2 673.3 371.8 609.9 278 603"},"ẵ":{"ha":551,"x_min":44,"x_max":532,"o":"m 223 -12 b -2.6 26.8 -26.6 196.2 211 294 l 399 329 b 334.2 509.9 188.8 495.5 142 367 l 53 374 b 138.4 594.5 379.0 620.0 483 326 l 483 107 q 483 74 511 74 l 532 74 l 532 0 b 519.4 -15.3 441.8 -12.3 401 77 l 400 82 b 387.7 41.1 316.0 -6.2 223 -12 m 231 62 b 310.3 53.7 391.6 114.8 399 218 l 399 256 l 227 224 b 101.2 187.9 93.1 101.1 231 62 m 334 765 b 248.0 805.9 228.1 824.2 192.5 803.5 q 182 793 180 759 l 128 759 b 164.3 886.8 245.2 894.4 291 843 b 323.6 807.5 357.6 801.5 375 878 l 427 878 b 430.4 825.4 396.3 770.3 334 765 m 279 593 b 218.8 585.4 150.5 632.5 139 721 l 197 721 b 227.7 635.5 314.5 628.0 360 721 l 418 721 b 423.2 663.3 372.8 599.9 279 593"},"ǎ":{"ha":551,"x_min":44,"x_max":532,"o":"m 223 -12 b -2.6 26.8 -26.6 196.2 211 294 l 399 329 b 334.2 509.9 188.8 495.5 142 367 l 53 374 b 138.4 594.5 379.0 620.0 483 326 l 483 107 q 483 74 511 74 l 532 74 l 532 0 b 519.4 -15.3 441.8 -12.3 401 77 l 400 82 b 387.7 41.1 316.0 -6.2 223 -12 m 231 62 b 310.3 53.7 391.6 114.8 399 218 l 399 256 l 227 224 b 101.2 187.9 93.1 101.1 231 62 m 231 598 l 141 731 l 211 731 l 278 642 l 345 731 l 415 731 l 325 598 l 231 598"},"â":{"ha":551,"x_min":44,"x_max":532,"o":"m 223 -12 b -2.6 26.8 -26.6 196.2 211 294 l 399 329 b 334.2 509.9 188.8 495.5 142 367 l 53 374 b 138.4 594.5 379.0 620.0 483 326 l 483 107 q 483 74 511 74 l 532 74 l 532 0 b 519.4 -15.3 441.8 -12.3 401 77 l 400 82 b 387.7 41.1 316.0 -6.2 223 -12 m 231 62 b 310.3 53.7 391.6 114.8 399 218 l 399 256 l 227 224 b 101.2 187.9 93.1 101.1 231 62 m 211 598 l 141 598 l 231 731 l 325 731 l 415 598 l 345 598 l 278 687 l 211 598"},"ấ":{"ha":551,"x_min":44,"x_max":532,"o":"m 223 -12 b -2.6 26.8 -26.6 196.2 211 294 l 399 329 b 334.2 509.9 188.8 495.5 142 367 l 53 374 b 138.4 594.5 379.0 620.0 483 326 l 483 107 q 483 74 511 74 l 532 74 l 532 0 b 519.4 -15.3 441.8 -12.3 401 77 l 400 82 b 387.7 41.1 316.0 -6.2 223 -12 m 231 62 b 310.3 53.7 391.6 114.8 399 218 l 399 256 l 227 224 b 101.2 187.9 93.1 101.1 231 62 m 433 690 l 363 690 l 415 818 l 509 818 l 433 690 m 211 588 l 141 588 l 231 710 l 325 710 l 415 588 l 345 588 l 278 664 l 211 588"},"ậ":{"ha":551,"x_min":44,"x_max":532,"o":"m 223 -12 b -2.6 26.8 -26.6 196.2 211 294 l 399 329 b 334.2 509.9 188.8 495.5 142 367 l 53 374 b 138.4 594.5 379.0 620.0 483 326 l 483 107 q 483 74 511 74 l 532 74 l 532 0 b 519.4 -15.3 441.8 -12.3 401 77 l 400 82 b 387.7 41.1 316.0 -6.2 223 -12 m 231 62 b 310.3 53.7 391.6 114.8 399 218 l 399 256 l 227 224 b 101.2 187.9 93.1 101.1 231 62 m 311 -150 l 223 -150 l 223 -60 l 311 -60 l 311 -150 m 211 598 l 141 598 l 231 731 l 325 731 l 415 598 l 345 598 l 278 687 l 211 598"},"ầ":{"ha":551,"x_min":44,"x_max":532,"o":"m 223 -12 b -2.6 26.8 -26.6 196.2 211 294 l 399 329 b 334.2 509.9 188.8 495.5 142 367 l 53 374 b 138.4 594.5 379.0 620.0 483 326 l 483 107 q 483 74 511 74 l 532 74 l 532 0 b 519.4 -15.3 441.8 -12.3 401 77 l 400 82 b 387.7 41.1 316.0 -6.2 223 -12 m 231 62 b 310.3 53.7 391.6 114.8 399 218 l 399 256 l 227 224 b 101.2 187.9 93.1 101.1 231 62 m 479 690 l 409 690 l 333 818 l 427 818 l 479 690 m 211 588 l 141 588 l 231 710 l 325 710 l 415 588 l 345 588 l 278 664 l 211 588"},"ẩ":{"ha":551,"x_min":44,"x_max":532,"o":"m 223 -12 b -2.6 26.8 -26.6 196.2 211 294 l 399 329 b 334.2 509.9 188.8 495.5 142 367 l 53 374 b 138.4 594.5 379.0 620.0 483 326 l 483 107 q 483 74 511 74 l 532 74 l 532 0 b 519.4 -15.3 441.8 -12.3 401 77 l 400 82 b 387.7 41.1 316.0 -6.2 223 -12 m 231 62 b 310.3 53.7 391.6 114.8 399 218 l 399 256 l 227 224 b 101.2 187.9 93.1 101.1 231 62 m 412 683 l 358 683 b 410.2 734.0 416.1 774.0 369 782 b 354.2 782.2 332.4 778.7 319 775 l 319 827 b 415.0 854.0 481.3 815.2 444 714.5 q 429 695 412 683 m 211 588 l 141 588 l 231 710 l 325 710 l 415 588 l 345 588 l 278 664 l 211 588"},"ẫ":{"ha":551,"x_min":44,"x_max":532,"o":"m 223 -12 b -2.6 26.8 -26.6 196.2 211 294 l 399 329 b 334.2 509.9 188.8 495.5 142 367 l 53 374 b 138.4 594.5 379.0 620.0 483 326 l 483 107 q 483 74 511 74 l 532 74 l 532 0 b 519.4 -15.3 441.8 -12.3 401 77 l 400 82 b 387.7 41.1 316.0 -6.2 223 -12 m 231 62 b 310.3 53.7 391.6 114.8 399 218 l 399 256 l 227 224 b 101.2 187.9 93.1 101.1 231 62 m 336 745 b 250.0 785.9 228.5 804.2 194 783.5 q 184 773 182 739 l 130 739 b 165.1 867.6 245.5 874.4 293 823 b 325.8 787.5 359.7 781.5 376 858 l 428 858 b 432.4 804.5 398.5 749.9 336 745 m 212 587 l 142 587 l 232 710 l 326 710 l 416 587 l 346 587 l 279 663 l 212 587"},"ä":{"ha":551,"x_min":44,"x_max":532,"o":"m 223 -12 b -2.6 26.8 -26.6 196.2 211 294 l 399 329 b 334.2 509.9 188.8 495.5 142 367 l 53 374 b 138.4 594.5 379.0 620.0 483 326 l 483 107 q 483 74 511 74 l 532 74 l 532 0 b 519.4 -15.3 441.8 -12.3 401 77 l 400 82 b 387.7 41.1 316.0 -6.2 223 -12 m 231 62 b 310.3 53.7 391.6 114.8 399 218 l 399 256 l 227 224 b 101.2 187.9 93.1 101.1 231 62 m 235 613 l 147 613 l 147 711 l 235 711 l 235 613 m 409 613 l 321 613 l 321 711 l 409 711 l 409 613"},"ạ":{"ha":551,"x_min":44,"x_max":532,"o":"m 223 -12 b -2.6 26.8 -26.6 196.2 211 294 l 399 329 b 334.2 509.9 188.8 495.5 142 367 l 53 374 b 138.4 594.5 379.0 620.0 483 326 l 483 107 q 483 74 511 74 l 532 74 l 532 0 b 519.4 -15.3 441.8 -12.3 401 77 l 400 82 b 387.7 41.1 316.0 -6.2 223 -12 m 231 62 b 310.3 53.7 391.6 114.8 399 218 l 399 256 l 227 224 b 101.2 187.9 93.1 101.1 231 62 m 311 -150 l 223 -150 l 223 -60 l 311 -60 l 311 -150"},"à":{"ha":551,"x_min":44,"x_max":532,"o":"m 223 -12 b -2.6 26.8 -26.6 196.2 211 294 l 399 329 b 334.2 509.9 188.8 495.5 142 367 l 53 374 b 138.4 594.5 379.0 620.0 483 326 l 483 107 q 483 74 511 74 l 532 74 l 532 0 b 519.4 -15.3 441.8 -12.3 401 77 l 400 82 b 387.7 41.1 316.0 -6.2 223 -12 m 231 62 b 310.3 53.7 391.6 114.8 399 218 l 399 256 l 227 224 b 101.2 187.9 93.1 101.1 231 62 m 317 598 l 247 598 l 157 726 l 251 726 l 317 598"},"ả":{"ha":551,"x_min":44,"x_max":532,"o":"m 223 -12 b -2.6 26.8 -26.6 196.2 211 294 l 399 329 b 334.2 509.9 188.8 495.5 142 367 l 53 374 b 138.4 594.5 379.0 620.0 483 326 l 483 107 q 483 74 511 74 l 532 74 l 532 0 b 519.4 -15.3 441.8 -12.3 401 77 l 400 82 b 387.7 41.1 316.0 -6.2 223 -12 m 231 62 b 310.3 53.7 391.6 114.8 399 218 l 399 256 l 227 224 b 101.2 187.9 93.1 101.1 231 62 m 306 590 l 246 590 b 305.1 644.9 312.4 688.9 253 700 b 241.2 700.4 217.9 696.9 202 692 l 202 750 b 227.9 770.9 309.8 776.9 358 682 b 360.0 650.4 336.5 612.0 306 590"},"ā":{"ha":551,"x_min":44,"x_max":532,"o":"m 223 -12 b -2.6 26.8 -26.6 196.2 211 294 l 399 329 b 334.2 509.9 188.8 495.5 142 367 l 53 374 b 138.4 594.5 379.0 620.0 483 326 l 483 107 q 483 74 511 74 l 532 74 l 532 0 b 519.4 -15.3 441.8 -12.3 401 77 l 400 82 b 387.7 41.1 316.0 -6.2 223 -12 m 231 62 b 310.3 53.7 391.6 114.8 399 218 l 399 256 l 227 224 b 101.2 187.9 93.1 101.1 231 62 m 412 625 l 144 625 l 144 697 l 412 697 l 412 625"},"ą":{"ha":551,"x_min":44,"x_max":567,"o":"m 223 -12 b -2.6 26.8 -26.6 196.2 211 294 l 399 329 b 334.2 509.9 188.8 495.5 142 367 l 53 374 b 138.4 594.5 379.0 620.0 483 326 l 483 107 q 483 74 511 74 l 532 74 l 532 0 b 519.4 -15.3 441.8 -12.3 401 77 l 400 82 b 387.7 41.1 316.0 -6.2 223 -12 m 231 62 b 310.3 53.7 391.6 114.8 399 218 l 399 256 l 227 224 b 101.2 187.9 93.1 101.1 231 62 m 481 -210 b 368.4 -198.4 360.1 -121.7 445 -22 l 475 18 l 532 0 l 497 -48 b 455.9 -105.3 454.1 -135.7 495 -142 q 523 -142 543 -128 l 567 -184 b 559.3 -195.0 523.0 -208.3 481 -210"},"å":{"ha":551,"x_min":44,"x_max":532,"o":"m 223 -12 b -2.6 26.8 -26.6 196.2 211 294 l 399 329 b 334.2 509.9 188.8 495.5 142 367 l 53 374 b 138.4 594.5 379.0 620.0 483 326 l 483 107 q 483 74 511 74 l 532 74 l 532 0 b 519.4 -15.3 441.8 -12.3 401 77 l 400 82 b 387.7 41.1 316.0 -6.2 223 -12 m 231 62 b 310.3 53.7 391.6 114.8 399 218 l 399 256 l 227 224 b 101.2 187.9 93.1 101.1 231 62 m 278 576 b 162.4 607.1 149.9 708.3 278 760 b 393.6 728.9 406.1 627.7 278 576 m 278 626 b 330.9 640.0 336.5 686.6 278 710 b 225.1 696.0 219.5 649.4 278 626"},"ã":{"ha":551,"x_min":44,"x_max":532,"o":"m 223 -12 b -2.6 26.8 -26.6 196.2 211 294 l 399 329 b 334.2 509.9 188.8 495.5 142 367 l 53 374 b 138.4 594.5 379.0 620.0 483 326 l 483 107 q 483 74 511 74 l 532 74 l 532 0 b 519.4 -15.3 441.8 -12.3 401 77 l 400 82 b 387.7 41.1 316.0 -6.2 223 -12 m 231 62 b 310.3 53.7 391.6 114.8 399 218 l 399 256 l 227 224 b 101.2 187.9 93.1 101.1 231 62 m 337 610 b 290.0 618.7 248.6 652.5 215 664 b 197.4 669.2 176.9 653.4 172 603 l 120 603 b 156.2 739.5 240.8 747.4 291 690 b 335.2 649.8 371.4 652.5 383 730 l 435 730 b 437.7 673.5 402.1 615.4 337 610"},"æ":{"ha":919,"x_min":44,"x_max":875,"o":"m 225 -12 b 12.0 27.6 -6.8 187.9 129.5 271 q 168 288 211 294 l 399 319 b 368.0 496.6 214.9 507.9 142 367 l 53 374 b 58.8 507.4 186.4 597.1 454 450 b 545.3 573.4 705.4 587.1 845.5 415 q 875 353 875 264 l 875 239 l 490 239 b 544.9 32.0 700.8 18.2 777 157 l 867 150 b 771.0 -47.8 572.2 -67.6 437 108 b 420.1 53.3 338.4 -5.8 225 -12 m 490 313 l 783 313 b 732.8 506.1 581.3 522.4 490 313 m 247 62 b 311.9 55.2 389.2 109.2 399 218 l 399 246 l 227 224 b 96.0 186.3 88.7 99.9 247 62"},"b":{"ha":595,"x_min":80,"x_max":551,"o":"m 323 -12 b 271.5 -17.7 198.7 15.1 159 80 l 156 0 l 80 0 l 80 710 l 164 710 l 164 456 b 231.7 569.8 384.3 586.5 523 412 b 594.7 198.5 537.0 25.6 323 -12 m 318 68 b 502.3 127.1 520.2 359.3 320 462 b 121.3 403.9 102.0 171.6 318 68"},"c":{"ha":546,"x_min":44,"x_max":512,"o":"m 287 -12 b 90.1 -1.2 2.6 148.8 74 411 b 172.6 587.0 377.9 606.8 512 358 l 424 352 b 372.9 507.0 215.4 525.4 132 265 b 180.0 26.2 344.7 5.6 424 188 l 512 182 b 511.3 94.5 427.3 -1.6 287 -12"},"ć":{"ha":546,"x_min":44,"x_max":512,"o":"m 287 -12 b 90.1 -1.2 2.6 148.8 74 411 b 172.6 587.0 377.9 606.8 512 358 l 424 352 b 372.9 507.0 215.4 525.4 132 265 b 180.0 26.2 344.7 5.6 424 188 l 512 182 b 511.3 94.5 427.3 -1.6 287 -12 m 320 598 l 250 598 l 316 726 l 410 726 l 320 598"},"č":{"ha":546,"x_min":44,"x_max":512,"o":"m 287 -12 b 90.1 -1.2 2.6 148.8 74 411 b 172.6 587.0 377.9 606.8 512 358 l 424 352 b 372.9 507.0 215.4 525.4 132 265 b 180.0 26.2 344.7 5.6 424 188 l 512 182 b 511.3 94.5 427.3 -1.6 287 -12 m 240 598 l 150 731 l 220 731 l 287 642 l 354 731 l 424 731 l 334 598 l 240 598"},"ç":{"ha":546,"x_min":44,"x_max":512,"o":"m 287 -12 b 90.1 -1.2 2.6 148.8 74 411 b 172.6 587.0 377.9 606.8 512 358 l 424 352 b 372.9 507.0 215.4 525.4 132 265 b 180.0 26.2 344.7 5.6 424 188 l 512 182 b 511.3 94.5 427.3 -1.6 287 -12 m 277 -220 b 231.0 -224.2 179.3 -193.6 160 -142 l 211 -122 b 335.6 -188.0 369.2 -112.5 253 -80 l 225 -50 l 263 10 l 327 10 l 293 -36 b 419.8 -65.7 430.4 -168.5 277 -220"},"ĉ":{"ha":546,"x_min":44,"x_max":512,"o":"m 287 -12 b 90.1 -1.2 2.6 148.8 74 411 b 172.6 587.0 377.9 606.8 512 358 l 424 352 b 372.9 507.0 215.4 525.4 132 265 b 180.0 26.2 344.7 5.6 424 188 l 512 182 b 511.3 94.5 427.3 -1.6 287 -12 m 220 598 l 150 598 l 240 731 l 334 731 l 424 598 l 354 598 l 287 687 l 220 598"},"ċ":{"ha":546,"x_min":44,"x_max":512,"o":"m 287 -12 b 90.1 -1.2 2.6 148.8 74 411 b 172.6 587.0 377.9 606.8 512 358 l 424 352 b 372.9 507.0 215.4 525.4 132 265 b 180.0 26.2 344.7 5.6 424 188 l 512 182 b 511.3 94.5 427.3 -1.6 287 -12 m 331 613 l 243 613 l 243 711 l 331 711 l 331 613"},"d":{"ha":595,"x_min":44,"x_max":515,"o":"m 268 -12 b 84.9 -1.4 5.8 147.5 71 412 b 168.7 571.2 326.2 584.3 431 456 l 431 710 l 515 710 l 515 0 l 439 0 l 436 80 b 421.5 37.3 355.0 -7.6 268 -12 m 285 68 b 472.4 127.1 489.9 359.3 285 462 b 90.5 403.9 71.1 171.6 285 68"},"ď":{"ha":662,"x_min":44,"x_max":682,"o":"m 268 -12 b 84.9 -1.4 5.8 147.5 71 412 b 168.7 571.2 326.2 584.3 431 456 l 431 710 l 515 710 l 515 0 l 439 0 l 436 80 b 421.5 37.3 355.0 -7.6 268 -12 m 285 68 b 472.4 127.1 489.9 359.3 285 462 b 90.5 403.9 71.1 171.6 285 68 m 630 455 l 568 455 l 598 710 l 682 710 l 630 455"},"đ":{"ha":595,"x_min":44,"x_max":581,"o":"m 268 -12 b 84.9 -1.4 5.8 147.5 71 412 b 168.7 571.2 326.2 584.3 431 456 l 431 710 l 515 710 l 515 0 l 439 0 l 436 80 b 421.5 37.3 355.0 -7.6 268 -12 m 285 68 b 472.4 127.1 489.9 359.3 285 462 b 90.5 403.9 71.1 171.6 285 68 m 581 582 l 281 582 l 281 650 l 581 650 l 581 582"},"ð":{"ha":573,"x_min":44,"x_max":545,"o":"m 287 -12 b 90.5 -3.5 2.6 135.3 74 382.5 b 187.9 524.0 338.1 533.8 424 454 q 402 524 359 568 l 239 526 l 215 590 l 291 617 q 238 642 165 648 l 185 722 b 241.3 719.9 323.4 692.9 382 649 l 521 698 l 545 634 l 436 596 b 581.4 401.5 598.9 112.0 287 -12 m 287 68 b 483.8 119.8 502.8 337.5 287 422 b 89.1 372.1 69.9 158.1 287 68"},"e":{"ha":561,"x_min":44,"x_max":517,"o":"m 287 -12 b 88.7 -1.2 2.6 148.8 73.5 411 b 173.0 577.7 351.4 594.0 487.5 415 q 517 353 517 264 l 517 239 l 132 239 b 186.9 32.0 342.8 18.2 419 157 l 509 150 b 499.3 79.3 415.3 -2.2 287 -12 m 132 313 l 425 313 b 374.8 506.1 223.3 522.4 132 313"},"é":{"ha":561,"x_min":44,"x_max":517,"o":"m 287 -12 b 88.7 -1.2 2.6 148.8 73.5 411 b 173.0 577.7 351.4 594.0 487.5 415 q 517 353 517 264 l 517 239 l 132 239 b 186.9 32.0 342.8 18.2 419 157 l 509 150 b 499.3 79.3 415.3 -2.2 287 -12 m 132 313 l 425 313 b 374.8 506.1 223.3 522.4 132 313 m 320 596 l 250 596 l 316 724 l 410 724 l 320 596"},"ě":{"ha":561,"x_min":44,"x_max":517,"o":"m 287 -12 b 88.7 -1.2 2.6 148.8 73.5 411 b 173.0 577.7 351.4 594.0 487.5 415 q 517 353 517 264 l 517 239 l 132 239 b 186.9 32.0 342.8 18.2 419 157 l 509 150 b 499.3 79.3 415.3 -2.2 287 -12 m 132 313 l 425 313 b 374.8 506.1 223.3 522.4 132 313 m 240 596 l 150 729 l 220 729 l 287 640 l 354 729 l 424 729 l 334 596 l 240 596"},"ê":{"ha":561,"x_min":44,"x_max":517,"o":"m 287 -12 b 88.7 -1.2 2.6 148.8 73.5 411 b 173.0 577.7 351.4 594.0 487.5 415 q 517 353 517 264 l 517 239 l 132 239 b 186.9 32.0 342.8 18.2 419 157 l 509 150 b 499.3 79.3 415.3 -2.2 287 -12 m 132 313 l 425 313 b 374.8 506.1 223.3 522.4 132 313 m 220 596 l 150 596 l 240 729 l 334 729 l 424 596 l 354 596 l 287 685 l 220 596"},"ế":{"ha":561,"x_min":44,"x_max":518,"o":"m 287 -12 b 88.7 -1.2 2.6 148.8 73.5 411 b 173.0 577.7 351.4 594.0 487.5 415 q 517 353 517 264 l 517 239 l 132 239 b 186.9 32.0 342.8 18.2 419 157 l 509 150 b 499.3 79.3 415.3 -2.2 287 -12 m 132 313 l 425 313 b 374.8 506.1 223.3 522.4 132 313 m 442 688 l 372 688 l 424 816 l 518 816 l 442 688 m 220 586 l 150 586 l 240 708 l 334 708 l 424 586 l 354 586 l 287 662 l 220 586"},"ệ":{"ha":561,"x_min":44,"x_max":517,"o":"m 287 -12 b 88.7 -1.2 2.6 148.8 73.5 411 b 173.0 577.7 351.4 594.0 487.5 415 q 517 353 517 264 l 517 239 l 132 239 b 186.9 32.0 342.8 18.2 419 157 l 509 150 b 499.3 79.3 415.3 -2.2 287 -12 m 132 313 l 425 313 b 374.8 506.1 223.3 522.4 132 313 m 331 -150 l 243 -150 l 243 -60 l 331 -60 l 331 -150 m 220 596 l 150 596 l 240 729 l 334 729 l 424 596 l 354 596 l 287 685 l 220 596"},"ề":{"ha":561,"x_min":44,"x_max":517,"o":"m 287 -12 b 88.7 -1.2 2.6 148.8 73.5 411 b 173.0 577.7 351.4 594.0 487.5 415 q 517 353 517 264 l 517 239 l 132 239 b 186.9 32.0 342.8 18.2 419 157 l 509 150 b 499.3 79.3 415.3 -2.2 287 -12 m 132 313 l 425 313 b 374.8 506.1 223.3 522.4 132 313 m 488 688 l 418 688 l 342 816 l 436 816 l 488 688 m 220 586 l 150 586 l 240 708 l 334 708 l 424 586 l 354 586 l 287 662 l 220 586"},"ể":{"ha":561,"x_min":44,"x_max":517,"o":"m 287 -12 b 88.7 -1.2 2.6 148.8 73.5 411 b 173.0 577.7 351.4 594.0 487.5 415 q 517 353 517 264 l 517 239 l 132 239 b 186.9 32.0 342.8 18.2 419 157 l 509 150 b 499.3 79.3 415.3 -2.2 287 -12 m 132 313 l 425 313 b 374.8 506.1 223.3 522.4 132 313 m 421 681 l 367 681 b 419.2 732.0 425.1 772.0 378 780 b 363.2 780.2 341.4 776.7 328 773 l 328 825 b 424.0 852.0 490.3 813.2 453 712.5 q 438 693 421 681 m 220 586 l 150 586 l 240 708 l 334 708 l 424 586 l 354 586 l 287 662 l 220 586"},"ễ":{"ha":561,"x_min":44,"x_max":517,"o":"m 287 -12 b 88.7 -1.2 2.6 148.8 73.5 411 b 173.0 577.7 351.4 594.0 487.5 415 q 517 353 517 264 l 517 239 l 132 239 b 186.9 32.0 342.8 18.2 419 157 l 509 150 b 499.3 79.3 415.3 -2.2 287 -12 m 132 313 l 425 313 b 374.8 506.1 223.3 522.4 132 313 m 345 743 b 259.0 783.9 237.5 802.2 203 781.5 q 193 771 191 737 l 139 737 b 174.1 865.6 254.5 872.4 302 821 b 334.8 785.5 368.7 779.5 385 856 l 437 856 b 441.4 802.5 407.5 747.9 345 743 m 221 585 l 151 585 l 241 708 l 335 708 l 425 585 l 355 585 l 288 661 l 221 585"},"ë":{"ha":561,"x_min":44,"x_max":517,"o":"m 287 -12 b 88.7 -1.2 2.6 148.8 73.5 411 b 173.0 577.7 351.4 594.0 487.5 415 q 517 353 517 264 l 517 239 l 132 239 b 186.9 32.0 342.8 18.2 419 157 l 509 150 b 499.3 79.3 415.3 -2.2 287 -12 m 132 313 l 425 313 b 374.8 506.1 223.3 522.4 132 313 m 244 611 l 156 611 l 156 709 l 244 709 l 244 611 m 418 611 l 330 611 l 330 709 l 418 709 l 418 611"},"ė":{"ha":561,"x_min":44,"x_max":517,"o":"m 287 -12 b 88.7 -1.2 2.6 148.8 73.5 411 b 173.0 577.7 351.4 594.0 487.5 415 q 517 353 517 264 l 517 239 l 132 239 b 186.9 32.0 342.8 18.2 419 157 l 509 150 b 499.3 79.3 415.3 -2.2 287 -12 m 132 313 l 425 313 b 374.8 506.1 223.3 522.4 132 313 m 331 611 l 243 611 l 243 709 l 331 709 l 331 611"},"ẹ":{"ha":561,"x_min":44,"x_max":517,"o":"m 287 -12 b 88.7 -1.2 2.6 148.8 73.5 411 b 173.0 577.7 351.4 594.0 487.5 415 q 517 353 517 264 l 517 239 l 132 239 b 186.9 32.0 342.8 18.2 419 157 l 509 150 b 499.3 79.3 415.3 -2.2 287 -12 m 132 313 l 425 313 b 374.8 506.1 223.3 522.4 132 313 m 331 -150 l 243 -150 l 243 -60 l 331 -60 l 331 -150"},"è":{"ha":561,"x_min":44,"x_max":517,"o":"m 287 -12 b 88.7 -1.2 2.6 148.8 73.5 411 b 173.0 577.7 351.4 594.0 487.5 415 q 517 353 517 264 l 517 239 l 132 239 b 186.9 32.0 342.8 18.2 419 157 l 509 150 b 499.3 79.3 415.3 -2.2 287 -12 m 132 313 l 425 313 b 374.8 506.1 223.3 522.4 132 313 m 326 596 l 256 596 l 166 724 l 260 724 l 326 596"},"ẻ":{"ha":561,"x_min":44,"x_max":517,"o":"m 287 -12 b 88.7 -1.2 2.6 148.8 73.5 411 b 173.0 577.7 351.4 594.0 487.5 415 q 517 353 517 264 l 517 239 l 132 239 b 186.9 32.0 342.8 18.2 419 157 l 509 150 b 499.3 79.3 415.3 -2.2 287 -12 m 132 313 l 425 313 b 374.8 506.1 223.3 522.4 132 313 m 315 588 l 255 588 b 314.1 642.9 321.4 686.9 262 698 b 250.2 698.4 226.9 694.9 211 690 l 211 748 b 236.9 768.9 318.8 774.9 367 680 b 369.0 648.4 345.5 610.0 315 588"},"ē":{"ha":561,"x_min":44,"x_max":517,"o":"m 287 -12 b 88.7 -1.2 2.6 148.8 73.5 411 b 173.0 577.7 351.4 594.0 487.5 415 q 517 353 517 264 l 517 239 l 132 239 b 186.9 32.0 342.8 18.2 419 157 l 509 150 b 499.3 79.3 415.3 -2.2 287 -12 m 132 313 l 425 313 b 374.8 506.1 223.3 522.4 132 313 m 421 623 l 153 623 l 153 695 l 421 695 l 421 623"},"ę":{"ha":561,"x_min":44,"x_max":517,"o":"m 287 -12 b 88.7 -1.2 2.6 148.8 73.5 411 b 173.0 577.7 351.4 594.0 487.5 415 q 517 353 517 264 l 517 239 l 132 239 b 186.9 32.0 342.8 18.2 419 157 l 509 150 q 495 103 464 66 l 467 66 l 384 -35 b 339.2 -93.9 336.4 -133.9 378 -142 q 406 -142 426 -128 l 450 -184 b 406.8 -226.0 320.9 -233.3 273 -126 b 270.1 -97.8 286.8 -54.1 320 -16 l 326 -9 q 307 -12 287 -12 m 132 313 l 425 313 b 374.8 506.1 223.3 522.4 132 313"},"ẽ":{"ha":561,"x_min":44,"x_max":517,"o":"m 287 -12 b 88.7 -1.2 2.6 148.8 73.5 411 b 173.0 577.7 351.4 594.0 487.5 415 q 517 353 517 264 l 517 239 l 132 239 b 186.9 32.0 342.8 18.2 419 157 l 509 150 b 499.3 79.3 415.3 -2.2 287 -12 m 132 313 l 425 313 b 374.8 506.1 223.3 522.4 132 313 m 346 608 b 299.0 616.7 257.6 650.5 224 662 b 206.4 667.2 185.9 651.4 181 601 l 129 601 b 165.2 737.5 249.8 745.4 300 688 b 344.2 647.8 380.4 650.5 392 728 l 444 728 b 446.7 671.5 411.1 613.4 346 608"},"ə":{"ha":561,"x_min":44,"x_max":517,"o":"m 274 542 b 472.3 530.3 558.4 381.2 487.5 118.5 b 387.9 -48.0 209.6 -63.9 74 115 q 44 177 44 266 l 44 291 l 429 291 b 374.5 498.4 218.4 512.0 142 373 l 52 380 b 61.7 450.7 145.7 532.2 274 542 m 429 217 l 136 217 b 187.2 24.3 338.8 7.8 429 217"},"f":{"ha":395,"x_min":60,"x_max":356,"o":"m 216 0 l 132 0 l 132 456 l 60 456 l 60 530 l 132 530 l 132 578 b 122.1 636.7 166.8 702.5 272 710 l 356 710 l 356 636 l 278 636 b 247.3 640.0 218.1 617.2 216 572 l 216 530 l 349 530 l 349 456 l 216 456 l 216 0"},"g":{"ha":594,"x_min":44,"x_max":514,"o":"m 281 -162 b 198.8 -171.1 94.3 -114.7 59 -8 l 147 -2 b 190.7 -109.7 351.9 -122.8 430 34 l 430 120 b 363.7 -2.1 217.7 -16.0 73.5 152 b 0.0 343.7 60.8 502.7 271 542 b 324.3 547.8 399.9 512.9 434 446 l 434 530 l 514 530 l 514 36 b 528.6 -56.3 446.4 -152.7 281 -162 m 279 108 b 469.5 160.9 492.0 369.1 279 462 b 91.0 409.1 73.3 200.9 279 108"},"ğ":{"ha":594,"x_min":44,"x_max":514,"o":"m 281 -162 b 198.8 -171.1 94.3 -114.7 59 -8 l 147 -2 b 190.7 -109.7 351.9 -122.8 430 34 l 430 120 b 363.7 -2.1 217.7 -16.0 73.5 152 b 0.0 343.7 60.8 502.7 271 542 b 324.3 547.8 399.9 512.9 434 446 l 434 530 l 514 530 l 514 36 b 528.6 -56.3 446.4 -152.7 281 -162 m 279 108 b 469.5 160.9 492.0 369.1 279 462 b 91.0 409.1 73.3 200.9 279 108 m 283 603 b 222.8 595.4 154.5 642.5 143 731 l 201 731 b 231.7 645.5 318.5 638.0 364 731 l 422 731 b 427.2 673.3 376.8 609.9 283 603"},"ǧ":{"ha":594,"x_min":44,"x_max":514,"o":"m 281 -162 b 198.8 -171.1 94.3 -114.7 59 -8 l 147 -2 b 190.7 -109.7 351.9 -122.8 430 34 l 430 120 b 363.7 -2.1 217.7 -16.0 73.5 152 b 0.0 343.7 60.8 502.7 271 542 b 324.3 547.8 399.9 512.9 434 446 l 434 530 l 514 530 l 514 36 b 528.6 -56.3 446.4 -152.7 281 -162 m 279 108 b 469.5 160.9 492.0 369.1 279 462 b 91.0 409.1 73.3 200.9 279 108 m 236 598 l 146 731 l 216 731 l 283 642 l 350 731 l 420 731 l 330 598 l 236 598"},"ĝ":{"ha":594,"x_min":44,"x_max":514,"o":"m 281 -162 b 198.8 -171.1 94.3 -114.7 59 -8 l 147 -2 b 190.7 -109.7 351.9 -122.8 430 34 l 430 120 b 363.7 -2.1 217.7 -16.0 73.5 152 b 0.0 343.7 60.8 502.7 271 542 b 324.3 547.8 399.9 512.9 434 446 l 434 530 l 514 530 l 514 36 b 528.6 -56.3 446.4 -152.7 281 -162 m 279 108 b 469.5 160.9 492.0 369.1 279 462 b 91.0 409.1 73.3 200.9 279 108 m 216 598 l 146 598 l 236 731 l 330 731 l 420 598 l 350 598 l 283 687 l 216 598"},"ģ":{"ha":594,"x_min":44,"x_max":514,"o":"m 281 -162 b 198.8 -171.1 94.3 -114.7 59 -8 l 147 -2 b 190.7 -109.7 351.9 -122.8 430 34 l 430 120 b 363.7 -2.1 217.7 -16.0 73.5 152 b 0.0 343.7 60.8 502.7 271 542 b 324.3 547.8 399.9 512.9 434 446 l 434 530 l 514 530 l 514 36 b 528.6 -56.3 446.4 -152.7 281 -162 m 279 108 b 469.5 160.9 492.0 369.1 279 462 b 91.0 409.1 73.3 200.9 279 108 m 331 603 l 231 603 l 231 685 l 292 790 l 350 790 l 295 693 l 331 693 l 331 603"},"ġ":{"ha":594,"x_min":44,"x_max":514,"o":"m 281 -162 b 198.8 -171.1 94.3 -114.7 59 -8 l 147 -2 b 190.7 -109.7 351.9 -122.8 430 34 l 430 120 b 363.7 -2.1 217.7 -16.0 73.5 152 b 0.0 343.7 60.8 502.7 271 542 b 324.3 547.8 399.9 512.9 434 446 l 434 530 l 514 530 l 514 36 b 528.6 -56.3 446.4 -152.7 281 -162 m 279 108 b 469.5 160.9 492.0 369.1 279 462 b 91.0 409.1 73.3 200.9 279 108 m 327 613 l 239 613 l 239 711 l 327 711 l 327 613"},"ḡ":{"ha":594,"x_min":44,"x_max":514,"o":"m 281 -162 b 198.8 -171.1 94.3 -114.7 59 -8 l 147 -2 b 190.7 -109.7 351.9 -122.8 430 34 l 430 120 b 363.7 -2.1 217.7 -16.0 73.5 152 b 0.0 343.7 60.8 502.7 271 542 b 324.3 547.8 399.9 512.9 434 446 l 434 530 l 514 530 l 514 36 b 528.6 -56.3 446.4 -152.7 281 -162 m 279 108 b 469.5 160.9 492.0 369.1 279 462 b 91.0 409.1 73.3 200.9 279 108 m 417 625 l 149 625 l 149 697 l 417 697 l 417 625"},"ǥ":{"ha":624,"x_min":44,"x_max":584,"o":"m 281 -162 b 198.8 -171.1 94.3 -114.7 59 -8 l 147 -2 b 190.7 -109.7 351.9 -122.8 430 34 l 430 120 b 363.7 -2.1 217.7 -16.0 73.5 152 b 0.0 343.7 60.8 502.7 271 542 b 324.3 547.8 399.9 512.9 434 446 l 434 530 l 514 530 l 514 316 l 584 316 l 584 246 l 514 246 l 514 36 b 528.6 -56.3 446.4 -152.7 281 -162 m 279 108 b 336.0 99.8 404.0 147.4 426 241 l 427 246 l 234 246 l 234 316 l 429 316 b 373.4 507.1 206.8 527.2 132 285 b 123.0 203.6 176.0 116.8 279 108"},"h":{"ha":581,"x_min":80,"x_max":501,"o":"m 164 0 l 80 0 l 80 710 l 164 710 l 164 447 b 236.7 587.2 408.8 602.8 501 341 l 501 0 l 417 0 l 417 317 b 364.2 529.5 209.4 510.9 164 316 l 164 0"},"ħ":{"ha":581,"x_min":10,"x_max":501,"o":"m 164 0 l 80 0 l 80 710 l 164 710 l 164 447 b 236.7 587.2 408.8 602.8 501 341 l 501 0 l 417 0 l 417 317 b 364.2 529.5 209.4 510.9 164 316 l 164 0 m 310 582 l 10 582 l 10 650 l 310 650 l 310 582"},"ĥ":{"ha":581,"x_min":-15,"x_max":501,"o":"m 164 0 l 80 0 l 80 710 l 164 710 l 164 447 b 236.7 587.2 408.8 602.8 501 341 l 501 0 l 417 0 l 417 317 b 364.2 529.5 209.4 510.9 164 316 l 164 0 m 55 758 l -15 758 l 75 891 l 169 891 l 259 758 l 189 758 l 122 847 l 55 758"},"i":{"ha":244,"x_min":78,"x_max":166,"o":"m 164 0 l 80 0 l 80 530 l 164 530 l 164 0 m 166 613 l 78 613 l 78 711 l 166 711 l 166 613"},"ı":{"ha":244,"x_min":80,"x_max":164,"o":"m 164 0 l 80 0 l 80 530 l 164 530 l 164 0"},"í":{"ha":244,"x_min":80,"x_max":245,"o":"m 164 0 l 80 0 l 80 530 l 164 530 l 164 0 m 155 598 l 85 598 l 151 726 l 245 726 l 155 598"},"î":{"ha":244,"x_min":-15,"x_max":259,"o":"m 164 0 l 80 0 l 80 530 l 164 530 l 164 0 m 55 598 l -15 598 l 75 731 l 169 731 l 259 598 l 189 598 l 122 687 l 55 598"},"ï":{"ha":244,"x_min":14,"x_max":230,"o":"m 164 0 l 80 0 l 80 530 l 164 530 l 164 0 m 102 613 l 14 613 l 14 711 l 102 711 l 102 613 m 230 613 l 142 613 l 142 711 l 230 711 l 230 613"},"ị":{"ha":244,"x_min":78,"x_max":166,"o":"m 164 0 l 80 0 l 80 530 l 164 530 l 164 0 m 166 613 l 78 613 l 78 711 l 166 711 l 166 613 m 166 -150 l 78 -150 l 78 -60 l 166 -60 l 166 -150"},"ì":{"ha":244,"x_min":1,"x_max":164,"o":"m 164 0 l 80 0 l 80 530 l 164 530 l 164 0 m 161 598 l 91 598 l 1 726 l 95 726 l 161 598"},"ỉ":{"ha":244,"x_min":46,"x_max":202,"o":"m 164 0 l 80 0 l 80 530 l 164 530 l 164 0 m 150 590 l 90 590 b 149.1 644.9 156.4 688.9 97 700 b 85.2 700.4 61.9 696.9 46 692 l 46 750 b 71.9 770.9 153.8 776.9 202 682 b 204.0 650.4 180.5 612.0 150 590"},"ī":{"ha":244,"x_min":-12,"x_max":256,"o":"m 164 0 l 80 0 l 80 530 l 164 530 l 164 0 m 256 625 l -12 625 l -12 697 l 256 697 l 256 625"},"į":{"ha":244,"x_min":20,"x_max":199,"o":"m 164 0 l 80 0 l 80 530 l 164 530 l 164 0 m 166 613 l 78 613 l 78 711 l 166 711 l 166 613 m 113 -210 b 0.4 -198.4 -7.9 -121.7 77 -22 l 107 18 l 164 0 l 129 -48 b 87.9 -105.3 86.1 -135.7 127 -142 q 155 -142 175 -128 l 199 -184 b 191.3 -195.0 155.0 -208.3 113 -210"},"ĩ":{"ha":244,"x_min":-36,"x_max":279,"o":"m 164 0 l 80 0 l 80 530 l 164 530 l 164 0 m 181 610 b 134.0 618.7 92.6 652.5 59 664 b 41.4 669.2 20.9 653.4 16 603 l -36 603 b 0.2 739.5 84.8 747.4 135 690 b 179.2 649.8 215.4 652.5 227 730 l 279 730 b 281.7 673.5 246.1 615.4 181 610"},"ĳ":{"ha":494,"x_min":78,"x_max":416,"o":"m 164 0 l 80 0 l 80 530 l 164 530 l 164 0 m 166 613 l 78 613 l 78 711 l 166 711 l 166 613 m 280 -150 l 229 -150 l 229 -76 l 272 -76 b 297.9 -80.7 326.7 -64.7 330 -18 l 330 530 l 414 530 l 414 -22 b 424.0 -90.9 383.7 -148.1 280 -150 m 416 613 l 328 613 l 328 711 l 416 711 l 416 613"},"j":{"ha":260,"x_min":-5,"x_max":182,"o":"m 46 -150 l -5 -150 l -5 -76 l 38 -76 b 63.9 -80.7 92.7 -64.7 96 -18 l 96 530 l 180 530 l 180 -22 b 190.0 -90.9 149.7 -148.1 46 -150 m 182 613 l 94 613 l 94 711 l 182 711 l 182 613"},"ȷ":{"ha":260,"x_min":-5,"x_max":180,"o":"m 46 -150 l -5 -150 l -5 -76 l 38 -76 b 63.9 -80.7 92.7 -64.7 96 -18 l 96 530 l 180 530 l 180 -22 b 190.0 -90.9 149.7 -148.1 46 -150"},"ĵ":{"ha":260,"x_min":-5,"x_max":275,"o":"m 46 -150 l -5 -150 l -5 -76 l 38 -76 b 63.9 -80.7 92.7 -64.7 96 -18 l 96 530 l 180 530 l 180 -22 b 190.0 -90.9 149.7 -148.1 46 -150 m 71 598 l 1 598 l 91 731 l 185 731 l 275 598 l 205 598 l 138 687 l 71 598"},"k":{"ha":590,"x_min":80,"x_max":543,"o":"m 164 0 l 80 0 l 80 710 l 164 710 l 164 245 l 422 530 l 534 530 l 325 305 l 543 0 l 441 0 l 268 248 l 164 138 l 164 0"},"ǩ":{"ha":590,"x_min":-15,"x_max":543,"o":"m 164 0 l 80 0 l 80 710 l 164 710 l 164 245 l 422 530 l 534 530 l 325 305 l 543 0 l 441 0 l 268 248 l 164 138 l 164 0 m 75 738 l -15 871 l 55 871 l 122 782 l 189 871 l 259 871 l 169 738 l 75 738"},"ķ":{"ha":590,"x_min":80,"x_max":543,"o":"m 164 0 l 80 0 l 80 710 l 164 710 l 164 245 l 422 530 l 534 530 l 325 305 l 543 0 l 441 0 l 268 248 l 164 138 l 164 0 m 284 -240 l 226 -240 l 281 -143 l 245 -143 l 245 -53 l 345 -53 l 345 -135 l 284 -240"},"l":{"ha":267,"x_min":80,"x_max":243,"o":"m 243 0 l 184 0 b 138.2 -7.2 86.1 24.3 80 100 l 80 710 l 164 710 l 164 107 q 164 74 197 74 l 243 74 l 243 0"},"ĺ":{"ha":267,"x_min":80,"x_max":245,"o":"m 243 0 l 184 0 b 138.2 -7.2 86.1 24.3 80 100 l 80 710 l 164 710 l 164 107 q 164 74 197 74 l 243 74 l 243 0 m 155 738 l 85 738 l 151 866 l 245 866 l 155 738"},"ľ":{"ha":318,"x_min":80,"x_max":338,"o":"m 243 0 l 184 0 b 138.2 -7.2 86.1 24.3 80 100 l 80 710 l 164 710 l 164 107 q 164 74 197 74 l 243 74 l 243 0 m 286 455 l 224 455 l 254 710 l 338 710 l 286 455"},"ļ":{"ha":267,"x_min":80,"x_max":243,"o":"m 243 0 l 184 0 b 138.2 -7.2 86.1 24.3 80 100 l 80 710 l 164 710 l 164 107 q 164 74 197 74 l 243 74 l 243 0 m 154 -240 l 96 -240 l 151 -143 l 115 -143 l 115 -53 l 215 -53 l 215 -135 l 154 -240"},"ł":{"ha":267,"x_min":6,"x_max":243,"o":"m 243 0 l 184 0 b 138.2 -7.2 86.1 24.3 80 100 l 80 710 l 164 710 l 164 107 q 164 74 197 74 l 243 74 l 243 0 m 236 432 l 6 312 l 6 378 l 236 498 l 236 432"},"m":{"ha":877,"x_min":80,"x_max":797,"o":"m 164 0 l 80 0 l 80 530 l 157 530 l 159 437 b 228.1 571.8 365.8 585.6 467 431 b 530.8 587.6 705.3 606.9 797 341 l 797 0 l 713 0 l 713 323 b 657.0 527.9 516.2 508.7 480 317 l 480 0 l 396 0 l 396 317 b 374.1 509.8 232.9 528.5 164 317 l 164 0"},"n":{"ha":581,"x_min":80,"x_max":501,"o":"m 164 0 l 80 0 l 80 530 l 157 530 l 159 435 b 237.3 572.3 382.7 583.0 481.5 442.5 q 501 397 501 341 l 501 0 l 417 0 l 417 317 b 395.1 511.0 245.9 529.1 164 317 l 164 0"},"ń":{"ha":581,"x_min":80,"x_max":501,"o":"m 164 0 l 80 0 l 80 530 l 157 530 l 159 435 b 237.3 572.3 382.7 583.0 481.5 442.5 q 501 397 501 341 l 501 0 l 417 0 l 417 317 b 395.1 511.0 245.9 529.1 164 317 l 164 0 m 324 598 l 254 598 l 320 726 l 414 726 l 324 598"},"ň":{"ha":581,"x_min":80,"x_max":501,"o":"m 164 0 l 80 0 l 80 530 l 157 530 l 159 435 b 237.3 572.3 382.7 583.0 481.5 442.5 q 501 397 501 341 l 501 0 l 417 0 l 417 317 b 395.1 511.0 245.9 529.1 164 317 l 164 0 m 244 598 l 154 731 l 224 731 l 291 642 l 358 731 l 428 731 l 338 598 l 244 598"},"ņ":{"ha":581,"x_min":80,"x_max":501,"o":"m 164 0 l 80 0 l 80 530 l 157 530 l 159 435 b 237.3 572.3 382.7 583.0 481.5 442.5 q 501 397 501 341 l 501 0 l 417 0 l 417 317 b 395.1 511.0 245.9 529.1 164 317 l 164 0 m 280 -240 l 222 -240 l 277 -143 l 241 -143 l 241 -53 l 341 -53 l 341 -135 l 280 -240"},"ñ":{"ha":581,"x_min":80,"x_max":501,"o":"m 164 0 l 80 0 l 80 530 l 157 530 l 159 435 b 237.3 572.3 382.7 583.0 481.5 442.5 q 501 397 501 341 l 501 0 l 417 0 l 417 317 b 395.1 511.0 245.9 529.1 164 317 l 164 0 m 350 610 b 303.0 618.7 261.6 652.5 228 664 b 210.4 669.2 189.9 653.4 185 603 l 133 603 b 169.2 739.5 253.8 747.4 304 690 b 348.2 649.8 384.4 652.5 396 730 l 448 730 b 450.7 673.5 415.1 615.4 350 610"},"ŋ":{"ha":581,"x_min":80,"x_max":501,"o":"m 164 0 l 80 0 l 80 530 l 157 530 l 159 435 b 237.3 572.3 382.7 583.0 481.5 442.5 q 501 397 501 341 l 501 -7 b 510.1 -71.6 455.7 -142.4 351 -150 l 270 -150 l 270 -76 l 353 -76 b 381.8 -80.1 413.5 -55.2 417 -8 l 417 317 b 395.1 511.0 245.9 529.1 164 317 l 164 0"},"o":{"ha":573,"x_min":44,"x_max":529,"o":"m 287 -12 b 90.5 -1.4 2.6 148.5 74 412 b 175.7 578.3 358.6 594.3 499 412 b 575.5 199.1 513.4 25.8 287 -12 m 287 68 b 483.8 126.1 502.8 359.3 287 462 b 89.1 403.9 69.9 170.7 287 68"},"ó":{"ha":573,"x_min":44,"x_max":529,"o":"m 287 -12 b 90.5 -1.4 2.6 148.5 74 412 b 175.7 578.3 358.6 594.3 499 412 b 575.5 199.1 513.4 25.8 287 -12 m 287 68 b 483.8 126.1 502.8 359.3 287 462 b 89.1 403.9 69.9 170.7 287 68 m 320 598 l 250 598 l 316 726 l 410 726 l 320 598"},"ô":{"ha":573,"x_min":44,"x_max":529,"o":"m 287 -12 b 90.5 -1.4 2.6 148.5 74 412 b 175.7 578.3 358.6 594.3 499 412 b 575.5 199.1 513.4 25.8 287 -12 m 287 68 b 483.8 126.1 502.8 359.3 287 462 b 89.1 403.9 69.9 170.7 287 68 m 220 598 l 150 598 l 240 731 l 334 731 l 424 598 l 354 598 l 287 687 l 220 598"},"ố":{"ha":573,"x_min":44,"x_max":529,"o":"m 287 -12 b 90.5 -1.4 2.6 148.5 74 412 b 175.7 578.3 358.6 594.3 499 412 b 575.5 199.1 513.4 25.8 287 -12 m 287 68 b 483.8 126.1 502.8 359.3 287 462 b 89.1 403.9 69.9 170.7 287 68 m 442 690 l 372 690 l 424 818 l 518 818 l 442 690 m 220 588 l 150 588 l 240 710 l 334 710 l 424 588 l 354 588 l 287 664 l 220 588"},"ộ":{"ha":573,"x_min":44,"x_max":529,"o":"m 287 -12 b 90.5 -1.4 2.6 148.5 74 412 b 175.7 578.3 358.6 594.3 499 412 b 575.5 199.1 513.4 25.8 287 -12 m 287 68 b 483.8 126.1 502.8 359.3 287 462 b 89.1 403.9 69.9 170.7 287 68 m 331 -150 l 243 -150 l 243 -60 l 331 -60 l 331 -150 m 220 598 l 150 598 l 240 731 l 334 731 l 424 598 l 354 598 l 287 687 l 220 598"},"ồ":{"ha":573,"x_min":44,"x_max":529,"o":"m 287 -12 b 90.5 -1.4 2.6 148.5 74 412 b 175.7 578.3 358.6 594.3 499 412 b 575.5 199.1 513.4 25.8 287 -12 m 287 68 b 483.8 126.1 502.8 359.3 287 462 b 89.1 403.9 69.9 170.7 287 68 m 488 690 l 418 690 l 342 818 l 436 818 l 488 690 m 220 588 l 150 588 l 240 710 l 334 710 l 424 588 l 354 588 l 287 664 l 220 588"},"ổ":{"ha":573,"x_min":44,"x_max":529,"o":"m 287 -12 b 90.5 -1.4 2.6 148.5 74 412 b 175.7 578.3 358.6 594.3 499 412 b 575.5 199.1 513.4 25.8 287 -12 m 287 68 b 483.8 126.1 502.8 359.3 287 462 b 89.1 403.9 69.9 170.7 287 68 m 421 683 l 367 683 b 419.2 734.0 425.1 774.0 378 782 b 363.2 782.2 341.4 778.7 328 775 l 328 827 b 424.0 854.0 490.3 815.2 453 714.5 q 438 695 421 683 m 220 588 l 150 588 l 240 710 l 334 710 l 424 588 l 354 588 l 287 664 l 220 588"},"ỗ":{"ha":573,"x_min":44,"x_max":529,"o":"m 287 -12 b 90.5 -1.4 2.6 148.5 74 412 b 175.7 578.3 358.6 594.3 499 412 b 575.5 199.1 513.4 25.8 287 -12 m 287 68 b 483.8 126.1 502.8 359.3 287 462 b 89.1 403.9 69.9 170.7 287 68 m 345 745 b 259.0 785.9 237.5 804.2 203 783.5 q 193 773 191 739 l 139 739 b 174.1 867.6 254.5 874.4 302 823 b 334.8 787.5 368.7 781.5 385 858 l 437 858 b 441.4 804.5 407.5 749.9 345 745 m 221 587 l 151 587 l 241 710 l 335 710 l 425 587 l 355 587 l 288 663 l 221 587"},"ö":{"ha":573,"x_min":44,"x_max":529,"o":"m 287 -12 b 90.5 -1.4 2.6 148.5 74 412 b 175.7 578.3 358.6 594.3 499 412 b 575.5 199.1 513.4 25.8 287 -12 m 287 68 b 483.8 126.1 502.8 359.3 287 462 b 89.1 403.9 69.9 170.7 287 68 m 244 613 l 156 613 l 156 711 l 244 711 l 244 613 m 418 613 l 330 613 l 330 711 l 418 711 l 418 613"},"ọ":{"ha":573,"x_min":44,"x_max":529,"o":"m 287 -12 b 90.5 -1.4 2.6 148.5 74 412 b 175.7 578.3 358.6 594.3 499 412 b 575.5 199.1 513.4 25.8 287 -12 m 287 68 b 483.8 126.1 502.8 359.3 287 462 b 89.1 403.9 69.9 170.7 287 68 m 331 -150 l 243 -150 l 243 -60 l 331 -60 l 331 -150"},"ò":{"ha":573,"x_min":44,"x_max":529,"o":"m 287 -12 b 90.5 -1.4 2.6 148.5 74 412 b 175.7 578.3 358.6 594.3 499 412 b 575.5 199.1 513.4 25.8 287 -12 m 287 68 b 483.8 126.1 502.8 359.3 287 462 b 89.1 403.9 69.9 170.7 287 68 m 326 598 l 256 598 l 166 726 l 260 726 l 326 598"},"ỏ":{"ha":573,"x_min":44,"x_max":529,"o":"m 287 -12 b 90.5 -1.4 2.6 148.5 74 412 b 175.7 578.3 358.6 594.3 499 412 b 575.5 199.1 513.4 25.8 287 -12 m 287 68 b 483.8 126.1 502.8 359.3 287 462 b 89.1 403.9 69.9 170.7 287 68 m 315 590 l 255 590 b 314.1 644.9 321.4 688.9 262 700 b 250.2 700.4 226.9 696.9 211 692 l 211 750 b 236.9 770.9 318.8 776.9 367 682 b 369.0 650.4 345.5 612.0 315 590"},"ơ":{"ha":573,"x_min":44,"x_max":529,"o":"m 287 -12 b 90.5 -1.4 2.6 148.5 74 412 b 175.7 578.3 358.6 594.3 499 412 b 575.5 199.1 513.4 25.8 287 -12 m 287 68 b 483.8 126.1 502.8 359.3 287 462 b 89.1 403.9 69.9 170.7 287 68 m 412 482 l 356 482 l 350 530 l 404 530 b 461.8 532.5 465.7 592.2 440 670 l 514 670 b 547.7 623.7 555.8 529.4 412 482"},"ớ":{"ha":573,"x_min":44,"x_max":529,"o":"m 287 -12 b 90.5 -1.4 2.6 148.5 74 412 b 175.7 578.3 358.6 594.3 499 412 b 575.5 199.1 513.4 25.8 287 -12 m 287 68 b 483.8 126.1 502.8 359.3 287 462 b 89.1 403.9 69.9 170.7 287 68 m 412 482 l 356 482 l 350 530 l 404 530 b 461.8 532.5 465.7 592.2 440 670 l 514 670 b 547.7 623.7 555.8 529.4 412 482 m 310 598 l 240 598 l 306 726 l 400 726 l 310 598"},"ợ":{"ha":573,"x_min":44,"x_max":529,"o":"m 287 -12 b 90.5 -1.4 2.6 148.5 74 412 b 175.7 578.3 358.6 594.3 499 412 b 575.5 199.1 513.4 25.8 287 -12 m 287 68 b 483.8 126.1 502.8 359.3 287 462 b 89.1 403.9 69.9 170.7 287 68 m 412 482 l 356 482 l 350 530 l 404 530 b 461.8 532.5 465.7 592.2 440 670 l 514 670 b 547.7 623.7 555.8 529.4 412 482 m 331 -150 l 243 -150 l 243 -60 l 331 -60 l 331 -150"},"ờ":{"ha":573,"x_min":44,"x_max":529,"o":"m 287 -12 b 90.5 -1.4 2.6 148.5 74 412 b 175.7 578.3 358.6 594.3 499 412 b 575.5 199.1 513.4 25.8 287 -12 m 287 68 b 483.8 126.1 502.8 359.3 287 462 b 89.1 403.9 69.9 170.7 287 68 m 412 482 l 356 482 l 350 530 l 404 530 b 461.8 532.5 465.7 592.2 440 670 l 514 670 b 547.7 623.7 555.8 529.4 412 482 m 316 598 l 246 598 l 156 726 l 250 726 l 316 598"},"ở":{"ha":573,"x_min":44,"x_max":529,"o":"m 287 -12 b 90.5 -1.4 2.6 148.5 74 412 b 175.7 578.3 358.6 594.3 499 412 b 575.5 199.1 513.4 25.8 287 -12 m 287 68 b 483.8 126.1 502.8 359.3 287 462 b 89.1 403.9 69.9 170.7 287 68 m 412 482 l 356 482 l 350 530 l 404 530 b 461.8 532.5 465.7 592.2 440 670 l 514 670 b 547.7 623.7 555.8 529.4 412 482 m 305 590 l 245 590 b 304.1 644.9 311.4 688.9 252 700 b 240.2 700.4 216.9 696.9 201 692 l 201 750 b 226.9 770.9 308.8 776.9 357 682 b 359.0 650.4 335.5 612.0 305 590"},"ỡ":{"ha":573,"x_min":44,"x_max":529,"o":"m 287 -12 b 90.5 -1.4 2.6 148.5 74 412 b 175.7 578.3 358.6 594.3 499 412 b 575.5 199.1 513.4 25.8 287 -12 m 287 68 b 483.8 126.1 502.8 359.3 287 462 b 89.1 403.9 69.9 170.7 287 68 m 412 482 l 356 482 l 350 530 l 404 530 b 461.8 532.5 465.7 592.2 440 670 l 514 670 b 547.7 623.7 555.8 529.4 412 482 m 336 610 b 289.0 618.7 247.6 652.5 214 664 b 196.4 669.2 175.9 653.4 171 603 l 119 603 b 155.2 739.5 239.8 747.4 290 690 b 334.2 649.8 370.4 652.5 382 730 l 434 730 b 436.7 673.5 401.1 615.4 336 610"},"ő":{"ha":573,"x_min":44,"x_max":529,"o":"m 287 -12 b 90.5 -1.4 2.6 148.5 74 412 b 175.7 578.3 358.6 594.3 499 412 b 575.5 199.1 513.4 25.8 287 -12 m 287 68 b 483.8 126.1 502.8 359.3 287 462 b 89.1 403.9 69.9 170.7 287 68 m 253 598 l 183 598 l 249 726 l 343 726 l 253 598 m 384 598 l 314 598 l 380 726 l 474 726 l 384 598"},"ō":{"ha":573,"x_min":44,"x_max":529,"o":"m 287 -12 b 90.5 -1.4 2.6 148.5 74 412 b 175.7 578.3 358.6 594.3 499 412 b 575.5 199.1 513.4 25.8 287 -12 m 287 68 b 483.8 126.1 502.8 359.3 287 462 b 89.1 403.9 69.9 170.7 287 68 m 421 625 l 153 625 l 153 697 l 421 697 l 421 625"},"ø":{"ha":573,"x_min":44,"x_max":529,"o":"m 287 -12 b 90.5 -1.4 2.6 148.5 74 412 b 175.7 578.3 358.6 594.3 499 412 b 575.5 199.1 513.4 25.8 287 -12 m 287 68 b 483.8 126.1 502.8 359.3 287 462 b 89.1 403.9 69.9 170.7 287 68 m 134 -14 l 62 -14 l 439 544 l 511 544 l 134 -14"},"õ":{"ha":573,"x_min":44,"x_max":529,"o":"m 287 -12 b 90.5 -1.4 2.6 148.5 74 412 b 175.7 578.3 358.6 594.3 499 412 b 575.5 199.1 513.4 25.8 287 -12 m 287 68 b 483.8 126.1 502.8 359.3 287 462 b 89.1 403.9 69.9 170.7 287 68 m 346 610 b 299.0 618.7 257.6 652.5 224 664 b 206.4 669.2 185.9 653.4 181 603 l 129 603 b 165.2 739.5 249.8 747.4 300 690 b 344.2 649.8 380.4 652.5 392 730 l 444 730 b 446.7 673.5 411.1 615.4 346 610"},"œ":{"ha":958,"x_min":44,"x_max":914,"o":"m 287 -12 b 90.5 -1.4 2.6 148.5 74 412 b 175.7 578.3 358.6 594.3 499 412 b 575.5 199.1 513.4 25.8 287 -12 m 287 68 b 483.8 126.1 502.8 359.3 287 462 b 89.1 403.9 69.9 170.7 287 68 m 684 -12 b 485.7 -1.2 399.6 148.8 470.5 411 b 570.0 577.7 748.4 594.0 884.5 415 q 914 353 914 264 l 914 239 l 529 239 b 583.9 32.0 739.8 18.2 816 157 l 906 150 b 896.3 79.3 812.3 -2.2 684 -12 m 529 313 l 822 313 b 771.8 506.1 620.3 522.4 529 313"},"p":{"ha":595,"x_min":80,"x_max":551,"o":"m 164 -150 l 80 -150 l 80 530 l 158 530 l 159 449 b 232.3 576.4 392.5 589.4 526.5 401 b 594.0 210.0 546.1 41.0 322 -12 b 273.1 -17.0 201.5 12.5 164 70 l 164 -150 m 314 68 b 503.8 125.1 522.5 360.2 314 462 b 123.2 409.8 104.0 166.0 314 68"},"þ":{"ha":595,"x_min":80,"x_max":551,"o":"m 166 -150 l 80 -150 l 80 710 l 166 710 l 166 463 b 400.4 609.9 537.5 519.5 551 265 b 546.5 57.5 424.0 -52.8 230 8 q 190 28 166 64 l 166 -150 m 310 68 b 444.0 84.9 489.2 194.6 447.5 363.5 b 391.3 493.4 256.7 506.7 172.5 362.5 b 128.5 227.4 158.2 107.8 310 68"},"q":{"ha":595,"x_min":44,"x_max":515,"o":"m 515 530 l 515 -150 l 431 -150 l 431 70 b 361.6 -44.0 203.4 -57.5 68.5 129 b 1.0 320.0 48.9 489.0 273 542 b 323.3 548.2 395.2 517.1 436 449 l 437 530 l 515 530 m 281 68 b 472.3 121.2 490.8 364.9 281 462 b 91.3 404.9 72.5 169.8 281 68"},"r":{"ha":379,"x_min":80,"x_max":335,"o":"m 164 0 l 80 0 l 80 530 l 154 530 l 157 432 q 184 530 283 530 l 335 530 l 335 450 l 284 450 q 164 450 164 320 l 164 0"},"ŕ":{"ha":379,"x_min":80,"x_max":335,"o":"m 164 0 l 80 0 l 80 530 l 154 530 l 157 432 q 184 530 283 530 l 335 530 l 335 450 l 284 450 q 164 450 164 320 l 164 0 m 229 598 l 159 598 l 225 726 l 319 726 l 229 598"},"ř":{"ha":379,"x_min":59,"x_max":335,"o":"m 164 0 l 80 0 l 80 530 l 154 530 l 157 432 q 184 530 283 530 l 335 530 l 335 450 l 284 450 q 164 450 164 320 l 164 0 m 149 598 l 59 731 l 129 731 l 196 642 l 263 731 l 333 731 l 243 598 l 149 598"},"ŗ":{"ha":379,"x_min":53,"x_max":335,"o":"m 164 0 l 80 0 l 80 530 l 154 530 l 157 432 q 184 530 283 530 l 335 530 l 335 450 l 284 450 q 164 450 164 320 l 164 0 m 111 -240 l 53 -240 l 108 -143 l 72 -143 l 72 -53 l 172 -53 l 172 -135 l 111 -240"},"s":{"ha":520,"x_min":44,"x_max":476,"o":"m 273 -12 b 166.0 -22.0 60.1 46.3 44 167 l 132 173 b 177.4 44.6 333.2 32.1 386 142 b 402.5 186.1 343.0 209.6 141 257 b 21.1 311.0 6.3 446.3 266 542 b 368.0 548.8 451.8 492.9 476 372 l 388 366 b 354.6 482.6 203.7 495.9 153 384 b 164.4 312.0 339.1 285.0 456.5 213.5 b 510.8 173.0 494.4 42.3 273 -12"},"ś":{"ha":520,"x_min":44,"x_max":476,"o":"m 273 -12 b 166.0 -22.0 60.1 46.3 44 167 l 132 173 b 177.4 44.6 333.2 32.1 386 142 b 402.5 186.1 343.0 209.6 141 257 b 21.1 311.0 6.3 446.3 266 542 b 368.0 548.8 451.8 492.9 476 372 l 388 366 b 354.6 482.6 203.7 495.9 153 384 b 164.4 312.0 339.1 285.0 456.5 213.5 b 510.8 173.0 494.4 42.3 273 -12 m 290 598 l 220 598 l 286 726 l 380 726 l 290 598"},"š":{"ha":520,"x_min":44,"x_max":476,"o":"m 273 -12 b 166.0 -22.0 60.1 46.3 44 167 l 132 173 b 177.4 44.6 333.2 32.1 386 142 b 402.5 186.1 343.0 209.6 141 257 b 21.1 311.0 6.3 446.3 266 542 b 368.0 548.8 451.8 492.9 476 372 l 388 366 b 354.6 482.6 203.7 495.9 153 384 b 164.4 312.0 339.1 285.0 456.5 213.5 b 510.8 173.0 494.4 42.3 273 -12 m 210 598 l 120 731 l 190 731 l 257 642 l 324 731 l 394 731 l 304 598 l 210 598"},"ş":{"ha":520,"x_min":44,"x_max":476,"o":"m 273 -12 b 166.0 -22.0 60.1 46.3 44 167 l 132 173 b 177.4 44.6 333.2 32.1 386 142 b 402.5 186.1 343.0 209.6 141 257 b 21.1 311.0 6.3 446.3 266 542 b 368.0 548.8 451.8 492.9 476 372 l 388 366 b 354.6 482.6 203.7 495.9 153 384 b 164.4 312.0 339.1 285.0 456.5 213.5 b 510.8 173.0 494.4 42.3 273 -12 m 255 -220 b 209.0 -224.2 157.3 -193.6 138 -142 l 189 -122 b 313.6 -188.0 347.2 -112.5 231 -80 l 203 -50 l 241 10 l 305 10 l 271 -36 b 397.8 -65.7 408.4 -168.5 255 -220"},"ŝ":{"ha":520,"x_min":44,"x_max":476,"o":"m 273 -12 b 166.0 -22.0 60.1 46.3 44 167 l 132 173 b 177.4 44.6 333.2 32.1 386 142 b 402.5 186.1 343.0 209.6 141 257 b 21.1 311.0 6.3 446.3 266 542 b 368.0 548.8 451.8 492.9 476 372 l 388 366 b 354.6 482.6 203.7 495.9 153 384 b 164.4 312.0 339.1 285.0 456.5 213.5 b 510.8 173.0 494.4 42.3 273 -12 m 190 598 l 120 598 l 210 731 l 304 731 l 394 598 l 324 598 l 257 687 l 190 598"},"ș":{"ha":520,"x_min":44,"x_max":476,"o":"m 273 -12 b 166.0 -22.0 60.1 46.3 44 167 l 132 173 b 177.4 44.6 333.2 32.1 386 142 b 402.5 186.1 343.0 209.6 141 257 b 21.1 311.0 6.3 446.3 266 542 b 368.0 548.8 451.8 492.9 476 372 l 388 366 b 354.6 482.6 203.7 495.9 153 384 b 164.4 312.0 339.1 285.0 456.5 213.5 b 510.8 173.0 494.4 42.3 273 -12 m 254 -240 l 196 -240 l 251 -143 l 215 -143 l 215 -53 l 315 -53 l 315 -135 l 254 -240"},"ß":{"ha":587,"x_min":80,"x_max":548,"o":"m 164 0 l 80 0 l 80 502 b 83.1 683.6 193.4 765.1 449 669 b 534.8 574.0 523.8 450.7 397 385 b 605.2 310.7 631.4 109.0 296 0 l 232 0 l 232 80 l 296 80 b 507.8 111.1 528.7 268.5 286 338 l 242 338 l 242 417 l 286 417 b 452.9 454.9 469.5 584.3 296 640 b 236.3 648.6 171.1 599.8 164 502 l 164 0"},"t":{"ha":392,"x_min":55,"x_max":358,"o":"m 358 0 l 274 0 b 202.9 -9.6 137.2 33.7 133 136 l 133 456 l 55 456 l 55 530 l 133 530 l 133 654 l 217 654 l 217 530 l 358 530 l 358 456 l 217 456 l 217 138 b 212.5 102.6 233.6 74.5 282 74 l 358 74 l 358 0"},"ŧ":{"ha":392,"x_min":53,"x_max":358,"o":"m 358 0 l 274 0 b 202.9 -9.6 137.2 33.7 133 136 l 133 456 l 55 456 l 55 530 l 133 530 l 133 654 l 217 654 l 217 530 l 358 530 l 358 456 l 217 456 l 217 138 b 212.5 102.6 233.6 74.5 282 74 l 358 74 l 358 0 m 353 256 l 53 256 l 53 324 l 353 324 l 353 256"},"ť":{"ha":399,"x_min":55,"x_max":409,"o":"m 357 552 l 295 552 l 325 757 l 409 757 l 357 552 m 358 0 l 274 0 b 202.9 -9.6 137.2 33.7 133 136 l 133 456 l 55 456 l 55 530 l 133 530 l 133 654 l 217 654 l 217 530 l 358 530 l 358 456 l 217 456 l 217 138 b 212.5 102.6 233.6 74.5 282 74 l 358 74 l 358 0"},"ţ":{"ha":392,"x_min":55,"x_max":358,"o":"m 358 0 l 274 0 b 202.9 -9.6 137.2 33.7 133 136 l 133 456 l 55 456 l 55 530 l 133 530 l 133 654 l 217 654 l 217 530 l 358 530 l 358 456 l 217 456 l 217 138 b 212.5 102.6 233.6 74.5 282 74 l 358 74 l 358 0 m 224 -220 b 178.0 -224.2 126.3 -193.6 107 -142 l 158 -122 b 282.6 -188.0 316.2 -112.5 200 -80 l 172 -50 l 210 10 l 274 10 l 240 -36 b 366.8 -65.7 377.4 -168.5 224 -220"},"ț":{"ha":392,"x_min":55,"x_max":358,"o":"m 358 0 l 274 0 b 202.9 -9.6 137.2 33.7 133 136 l 133 456 l 55 456 l 55 530 l 133 530 l 133 654 l 217 654 l 217 530 l 358 530 l 358 456 l 217 456 l 217 138 b 212.5 102.6 233.6 74.5 282 74 l 358 74 l 358 0 m 223 -240 l 165 -240 l 220 -143 l 184 -143 l 184 -53 l 284 -53 l 284 -135 l 223 -240"},"u":{"ha":575,"x_min":80,"x_max":495,"o":"m 254 -12 b 175.4 -24.4 89.3 47.2 80 189 l 80 530 l 164 530 l 164 212 b 188.7 17.5 336.5 1.5 411 214 l 411 530 l 495 530 l 495 0 l 415 0 l 415 86 q 371 -12 254 -12"},"ú":{"ha":575,"x_min":80,"x_max":495,"o":"m 254 -12 b 175.4 -24.4 89.3 47.2 80 189 l 80 530 l 164 530 l 164 212 b 188.7 17.5 336.5 1.5 411 214 l 411 530 l 495 530 l 495 0 l 415 0 l 415 86 q 371 -12 254 -12 m 317 598 l 247 598 l 313 726 l 407 726 l 317 598"},"ŭ":{"ha":575,"x_min":80,"x_max":495,"o":"m 254 -12 b 175.4 -24.4 89.3 47.2 80 189 l 80 530 l 164 530 l 164 212 b 188.7 17.5 336.5 1.5 411 214 l 411 530 l 495 530 l 495 0 l 415 0 l 415 86 q 371 -12 254 -12 m 284 603 b 223.8 595.4 155.5 642.5 144 731 l 202 731 b 232.7 645.5 319.5 638.0 365 731 l 423 731 b 428.2 673.3 377.8 609.9 284 603"},"û":{"ha":575,"x_min":80,"x_max":495,"o":"m 254 -12 b 175.4 -24.4 89.3 47.2 80 189 l 80 530 l 164 530 l 164 212 b 188.7 17.5 336.5 1.5 411 214 l 411 530 l 495 530 l 495 0 l 415 0 l 415 86 q 371 -12 254 -12 m 217 598 l 147 598 l 237 731 l 331 731 l 421 598 l 351 598 l 284 687 l 217 598"},"ü":{"ha":575,"x_min":80,"x_max":495,"o":"m 254 -12 b 175.4 -24.4 89.3 47.2 80 189 l 80 530 l 164 530 l 164 212 b 188.7 17.5 336.5 1.5 411 214 l 411 530 l 495 530 l 495 0 l 415 0 l 415 86 q 371 -12 254 -12 m 241 613 l 153 613 l 153 711 l 241 711 l 241 613 m 415 613 l 327 613 l 327 711 l 415 711 l 415 613"},"ụ":{"ha":575,"x_min":80,"x_max":495,"o":"m 254 -12 b 175.4 -24.4 89.3 47.2 80 189 l 80 530 l 164 530 l 164 212 b 188.7 17.5 336.5 1.5 411 214 l 411 530 l 495 530 l 495 0 l 415 0 l 415 86 q 371 -12 254 -12 m 328 -150 l 240 -150 l 240 -60 l 328 -60 l 328 -150"},"ù":{"ha":575,"x_min":80,"x_max":495,"o":"m 254 -12 b 175.4 -24.4 89.3 47.2 80 189 l 80 530 l 164 530 l 164 212 b 188.7 17.5 336.5 1.5 411 214 l 411 530 l 495 530 l 495 0 l 415 0 l 415 86 q 371 -12 254 -12 m 323 598 l 253 598 l 163 726 l 257 726 l 323 598"},"ủ":{"ha":575,"x_min":80,"x_max":495,"o":"m 254 -12 b 175.4 -24.4 89.3 47.2 80 189 l 80 530 l 164 530 l 164 212 b 188.7 17.5 336.5 1.5 411 214 l 411 530 l 495 530 l 495 0 l 415 0 l 415 86 q 371 -12 254 -12 m 312 590 l 252 590 b 311.1 644.9 318.4 688.9 259 700 b 247.2 700.4 223.9 696.9 208 692 l 208 750 b 233.9 770.9 315.8 776.9 364 682 b 366.0 650.4 342.5 612.0 312 590"},"ư":{"ha":579,"x_min":80,"x_max":589,"o":"m 254 -12 b 175.4 -24.4 89.3 47.2 80 189 l 80 530 l 164 530 l 164 212 b 188.7 17.5 336.5 1.5 411 214 l 411 530 l 495 530 l 495 0 l 415 0 l 415 86 q 371 -12 254 -12 m 473 482 l 417 482 l 411 530 l 465 530 b 522.8 532.5 526.7 592.2 501 670 l 575 670 b 608.7 623.7 616.8 529.4 473 482"},"ứ":{"ha":579,"x_min":80,"x_max":589,"o":"m 254 -12 b 175.4 -24.4 89.3 47.2 80 189 l 80 530 l 164 530 l 164 212 b 188.7 17.5 336.5 1.5 411 214 l 411 530 l 495 530 l 495 0 l 415 0 l 415 86 q 371 -12 254 -12 m 473 482 l 417 482 l 411 530 l 465 530 b 522.8 532.5 526.7 592.2 501 670 l 575 670 b 608.7 623.7 616.8 529.4 473 482 m 317 598 l 247 598 l 313 726 l 407 726 l 317 598"},"ự":{"ha":579,"x_min":80,"x_max":589,"o":"m 254 -12 b 175.4 -24.4 89.3 47.2 80 189 l 80 530 l 164 530 l 164 212 b 188.7 17.5 336.5 1.5 411 214 l 411 530 l 495 530 l 495 0 l 415 0 l 415 86 q 371 -12 254 -12 m 473 482 l 417 482 l 411 530 l 465 530 b 522.8 532.5 526.7 592.2 501 670 l 575 670 b 608.7 623.7 616.8 529.4 473 482 m 328 -150 l 240 -150 l 240 -60 l 328 -60 l 328 -150"},"ừ":{"ha":579,"x_min":80,"x_max":589,"o":"m 254 -12 b 175.4 -24.4 89.3 47.2 80 189 l 80 530 l 164 530 l 164 212 b 188.7 17.5 336.5 1.5 411 214 l 411 530 l 495 530 l 495 0 l 415 0 l 415 86 q 371 -12 254 -12 m 473 482 l 417 482 l 411 530 l 465 530 b 522.8 532.5 526.7 592.2 501 670 l 575 670 b 608.7 623.7 616.8 529.4 473 482 m 323 598 l 253 598 l 163 726 l 257 726 l 323 598"},"ử":{"ha":579,"x_min":80,"x_max":589,"o":"m 254 -12 b 175.4 -24.4 89.3 47.2 80 189 l 80 530 l 164 530 l 164 212 b 188.7 17.5 336.5 1.5 411 214 l 411 530 l 495 530 l 495 0 l 415 0 l 415 86 q 371 -12 254 -12 m 473 482 l 417 482 l 411 530 l 465 530 b 522.8 532.5 526.7 592.2 501 670 l 575 670 b 608.7 623.7 616.8 529.4 473 482 m 312 590 l 252 590 b 311.1 644.9 318.4 688.9 259 700 b 247.2 700.4 223.9 696.9 208 692 l 208 750 b 233.9 770.9 315.8 776.9 364 682 b 366.0 650.4 342.5 612.0 312 590"},"ữ":{"ha":579,"x_min":80,"x_max":589,"o":"m 254 -12 b 175.4 -24.4 89.3 47.2 80 189 l 80 530 l 164 530 l 164 212 b 188.7 17.5 336.5 1.5 411 214 l 411 530 l 495 530 l 495 0 l 415 0 l 415 86 q 371 -12 254 -12 m 473 482 l 417 482 l 411 530 l 465 530 b 522.8 532.5 526.7 592.2 501 670 l 575 670 b 608.7 623.7 616.8 529.4 473 482 m 343 610 b 296.0 618.7 254.6 652.5 221 664 b 203.4 669.2 182.9 653.4 178 603 l 126 603 b 162.2 739.5 246.8 747.4 297 690 b 341.2 649.8 377.4 652.5 389 730 l 441 730 b 443.7 673.5 408.1 615.4 343 610"},"ű":{"ha":575,"x_min":80,"x_max":495,"o":"m 254 -12 b 175.4 -24.4 89.3 47.2 80 189 l 80 530 l 164 530 l 164 212 b 188.7 17.5 336.5 1.5 411 214 l 411 530 l 495 530 l 495 0 l 415 0 l 415 86 q 371 -12 254 -12 m 250 598 l 180 598 l 246 726 l 340 726 l 250 598 m 381 598 l 311 598 l 377 726 l 471 726 l 381 598"},"ū":{"ha":575,"x_min":80,"x_max":495,"o":"m 254 -12 b 175.4 -24.4 89.3 47.2 80 189 l 80 530 l 164 530 l 164 212 b 188.7 17.5 336.5 1.5 411 214 l 411 530 l 495 530 l 495 0 l 415 0 l 415 86 q 371 -12 254 -12 m 418 625 l 150 625 l 150 697 l 418 697 l 418 625"},"ų":{"ha":575,"x_min":80,"x_max":530,"o":"m 254 -12 b 175.4 -24.4 89.3 47.2 80 189 l 80 530 l 164 530 l 164 212 b 188.7 17.5 336.5 1.5 411 214 l 411 530 l 495 530 l 495 0 l 415 0 l 415 86 q 371 -12 254 -12 m 444 -210 b 331.4 -198.4 323.1 -121.7 408 -22 l 438 18 l 495 0 l 460 -48 b 418.9 -105.3 417.1 -135.7 458 -142 q 486 -142 506 -128 l 530 -184 b 522.3 -195.0 486.0 -208.3 444 -210"},"ů":{"ha":575,"x_min":80,"x_max":495,"o":"m 254 -12 b 175.4 -24.4 89.3 47.2 80 189 l 80 530 l 164 530 l 164 212 b 188.7 17.5 336.5 1.5 411 214 l 411 530 l 495 530 l 495 0 l 415 0 l 415 86 q 371 -12 254 -12 m 284 576 b 168.4 607.1 155.9 708.3 284 760 b 399.6 728.9 412.1 627.7 284 576 m 284 626 b 336.9 640.0 342.5 686.6 284 710 b 231.1 696.0 225.5 649.4 284 626"},"ũ":{"ha":575,"x_min":80,"x_max":495,"o":"m 254 -12 b 175.4 -24.4 89.3 47.2 80 189 l 80 530 l 164 530 l 164 212 b 188.7 17.5 336.5 1.5 411 214 l 411 530 l 495 530 l 495 0 l 415 0 l 415 86 q 371 -12 254 -12 m 330 610 b 283.0 618.7 241.6 652.5 208 664 b 190.4 669.2 169.9 653.4 165 603 l 113 603 b 149.2 739.5 233.8 747.4 284 690 b 328.2 649.8 364.4 652.5 376 730 l 428 730 b 430.7 673.5 395.1 615.4 330 610"},"v":{"ha":536,"x_min":22,"x_max":514,"o":"m 321 0 l 215 0 l 22 530 l 114 530 l 268 86 l 422 530 l 514 530 l 321 0"},"w":{"ha":819,"x_min":22,"x_max":797,"o":"m 291 0 l 186 0 l 22 530 l 114 530 l 238 88 l 364 530 l 454 530 l 580 88 l 705 530 l 797 530 l 633 0 l 527 0 l 409 403 l 291 0"},"ẃ":{"ha":819,"x_min":22,"x_max":797,"o":"m 291 0 l 186 0 l 22 530 l 114 530 l 238 88 l 364 530 l 454 530 l 580 88 l 705 530 l 797 530 l 633 0 l 527 0 l 409 403 l 291 0 m 443 598 l 373 598 l 439 726 l 533 726 l 443 598"},"ŵ":{"ha":819,"x_min":22,"x_max":797,"o":"m 291 0 l 186 0 l 22 530 l 114 530 l 238 88 l 364 530 l 454 530 l 580 88 l 705 530 l 797 530 l 633 0 l 527 0 l 409 403 l 291 0 m 343 598 l 273 598 l 363 731 l 457 731 l 547 598 l 477 598 l 410 687 l 343 598"},"ẅ":{"ha":819,"x_min":22,"x_max":797,"o":"m 291 0 l 186 0 l 22 530 l 114 530 l 238 88 l 364 530 l 454 530 l 580 88 l 705 530 l 797 530 l 633 0 l 527 0 l 409 403 l 291 0 m 367 613 l 279 613 l 279 711 l 367 711 l 367 613 m 541 613 l 453 613 l 453 711 l 541 711 l 541 613"},"ẁ":{"ha":819,"x_min":22,"x_max":797,"o":"m 291 0 l 186 0 l 22 530 l 114 530 l 238 88 l 364 530 l 454 530 l 580 88 l 705 530 l 797 530 l 633 0 l 527 0 l 409 403 l 291 0 m 449 598 l 379 598 l 289 726 l 383 726 l 449 598"},"x":{"ha":585,"x_min":47,"x_max":538,"o":"m 147 0 l 47 0 l 242 272 l 57 530 l 155 530 l 294 330 l 429 530 l 529 530 l 346 270 l 538 0 l 440 0 l 294 214 l 147 0"},"y":{"ha":537,"x_min":22,"x_max":515,"o":"m 172 -150 l 103 -150 l 103 -76 l 164 -76 b 190.5 -78.6 215.7 -67.5 226 -40 l 245 10 l 216 10 l 22 530 l 114 530 l 272 88 l 423 530 l 515 530 l 300 -67 b 292.6 -109.5 249.2 -147.8 172 -150"},"ý":{"ha":537,"x_min":22,"x_max":515,"o":"m 172 -150 l 103 -150 l 103 -76 l 164 -76 b 190.5 -78.6 215.7 -67.5 226 -40 l 245 10 l 216 10 l 22 530 l 114 530 l 272 88 l 423 530 l 515 530 l 300 -67 b 292.6 -109.5 249.2 -147.8 172 -150 m 302 598 l 232 598 l 298 726 l 392 726 l 302 598"},"ŷ":{"ha":537,"x_min":22,"x_max":515,"o":"m 172 -150 l 103 -150 l 103 -76 l 164 -76 b 190.5 -78.6 215.7 -67.5 226 -40 l 245 10 l 216 10 l 22 530 l 114 530 l 272 88 l 423 530 l 515 530 l 300 -67 b 292.6 -109.5 249.2 -147.8 172 -150 m 202 598 l 132 598 l 222 731 l 316 731 l 406 598 l 336 598 l 269 687 l 202 598"},"ÿ":{"ha":537,"x_min":22,"x_max":515,"o":"m 172 -150 l 103 -150 l 103 -76 l 164 -76 b 190.5 -78.6 215.7 -67.5 226 -40 l 245 10 l 216 10 l 22 530 l 114 530 l 272 88 l 423 530 l 515 530 l 300 -67 b 292.6 -109.5 249.2 -147.8 172 -150 m 226 613 l 138 613 l 138 711 l 226 711 l 226 613 m 400 613 l 312 613 l 312 711 l 400 711 l 400 613"},"ỵ":{"ha":537,"x_min":22,"x_max":515,"o":"m 172 -150 l 103 -150 l 103 -76 l 164 -76 b 190.5 -78.6 215.7 -67.5 226 -40 l 245 10 l 216 10 l 22 530 l 114 530 l 272 88 l 423 530 l 515 530 l 300 -67 b 292.6 -109.5 249.2 -147.8 172 -150 m 437 -150 l 349 -150 l 349 -60 l 437 -60 l 437 -150"},"ỳ":{"ha":537,"x_min":22,"x_max":515,"o":"m 172 -150 l 103 -150 l 103 -76 l 164 -76 b 190.5 -78.6 215.7 -67.5 226 -40 l 245 10 l 216 10 l 22 530 l 114 530 l 272 88 l 423 530 l 515 530 l 300 -67 b 292.6 -109.5 249.2 -147.8 172 -150 m 308 598 l 238 598 l 148 726 l 242 726 l 308 598"},"ỷ":{"ha":537,"x_min":22,"x_max":515,"o":"m 172 -150 l 103 -150 l 103 -76 l 164 -76 b 190.5 -78.6 215.7 -67.5 226 -40 l 245 10 l 216 10 l 22 530 l 114 530 l 272 88 l 423 530 l 515 530 l 300 -67 b 292.6 -109.5 249.2 -147.8 172 -150 m 297 590 l 237 590 b 296.1 644.9 303.4 688.9 244 700 b 232.2 700.4 208.9 696.9 193 692 l 193 750 b 218.9 770.9 300.8 776.9 349 682 b 351.0 650.4 327.5 612.0 297 590"},"ỹ":{"ha":537,"x_min":22,"x_max":515,"o":"m 172 -150 l 103 -150 l 103 -76 l 164 -76 b 190.5 -78.6 215.7 -67.5 226 -40 l 245 10 l 216 10 l 22 530 l 114 530 l 272 88 l 423 530 l 515 530 l 300 -67 b 292.6 -109.5 249.2 -147.8 172 -150 m 328 610 b 281.0 618.7 239.6 652.5 206 664 b 188.4 669.2 167.9 653.4 163 603 l 111 603 b 147.2 739.5 231.8 747.4 282 690 b 326.2 649.8 362.4 652.5 374 730 l 426 730 b 428.7 673.5 393.1 615.4 328 610"},"z":{"ha":537,"x_min":51,"x_max":486,"o":"m 486 0 l 51 0 l 51 84 l 386 456 l 61 456 l 61 530 l 478 530 l 478 446 l 143 74 l 486 74 l 486 0"},"ź":{"ha":537,"x_min":51,"x_max":486,"o":"m 486 0 l 51 0 l 51 84 l 386 456 l 61 456 l 61 530 l 478 530 l 478 446 l 143 74 l 486 74 l 486 0 m 303 598 l 233 598 l 299 726 l 393 726 l 303 598"},"ž":{"ha":537,"x_min":51,"x_max":486,"o":"m 486 0 l 51 0 l 51 84 l 386 456 l 61 456 l 61 530 l 478 530 l 478 446 l 143 74 l 486 74 l 486 0 m 223 598 l 133 731 l 203 731 l 270 642 l 337 731 l 407 731 l 317 598 l 223 598"},"ż":{"ha":537,"x_min":51,"x_max":486,"o":"m 486 0 l 51 0 l 51 84 l 386 456 l 61 456 l 61 530 l 478 530 l 478 446 l 143 74 l 486 74 l 486 0 m 314 613 l 226 613 l 226 711 l 314 711 l 314 613"},"ꞌ":{"ha":242,"x_min":80,"x_max":162,"o":"m 150 370 l 92 370 l 80 630 l 80 710 l 162 710 l 162 630 l 150 370"},"ﬁ":{"ha":599,"x_min":60,"x_max":521,"o":"m 216 0 l 132 0 l 132 456 l 60 456 l 60 530 l 132 530 l 132 578 b 122.1 636.7 166.8 702.5 272 710 l 356 710 l 356 636 l 278 636 b 247.3 640.0 218.1 617.2 216 572 l 216 530 l 349 530 l 349 456 l 216 456 l 216 0 m 519 0 l 435 0 l 435 530 l 519 530 l 519 0 m 521 613 l 433 613 l 433 711 l 521 711 l 521 613"},"ﬂ":{"ha":642,"x_min":60,"x_max":618,"o":"m 216 0 l 132 0 l 132 456 l 60 456 l 60 530 l 132 530 l 132 578 b 122.1 636.7 166.8 702.5 272 710 l 356 710 l 356 636 l 278 636 b 247.3 640.0 218.1 617.2 216 572 l 216 530 l 349 530 l 349 456 l 216 456 l 216 0 m 618 0 l 559 0 b 513.2 -7.2 461.1 24.3 455 100 l 455 710 l 539 710 l 539 107 q 539 74 572 74 l 618 74 l 618 0"},"ª":{"ha":401,"x_min":40,"x_max":371,"o":"m 156 376 b 10.3 399.0 -4.9 507.8 148 572 l 259 594 b 241.2 678.7 169.6 685.3 132 612 l 46 616 b 102.6 761.5 271.3 776.7 343 588 l 343 463 q 343 439 361 439 l 371 439 l 371 379 b 364.5 366.6 321.0 361.5 270 433 l 269 436 b 262.9 410.1 221.0 379.7 156 376 m 170 435 b 208.9 430.1 253.6 459.0 259 515 l 259 538 l 176 520 b 130.3 515.2 104.1 489.3 170 435"},"º":{"ha":419,"x_min":40,"x_max":379,"o":"m 210 376 b -6.2 429.3 -27.8 633.1 210 726 b 424.7 671.7 446.3 468.9 210 376 m 210 441 b 318.9 472.8 329.3 603.3 210 661 b 99.6 627.2 89.3 498.7 210 441"},"А":{"ha":668,"x_min":20,"x_max":648,"o":"m 114 0 l 20 0 l 276 710 l 392 710 l 648 0 l 554 0 l 483 202 l 185 202 l 114 0 m 334 635 l 214 286 l 454 286 l 334 635"},"Б":{"ha":660,"x_min":92,"x_max":598,"o":"m 347 0 l 92 0 l 92 710 l 533 710 l 533 626 l 178 626 l 178 434 l 347 434 b 667.8 369.4 698.8 110.8 347 0 m 178 350 l 178 84 l 347 84 b 528.1 90.1 573.4 283.1 347 350 l 178 350"},"В":{"ha":680,"x_min":92,"x_max":618,"o":"m 376 0 l 92 0 l 92 710 l 336 710 b 640.5 657.0 660.7 451.7 462 367 b 674.9 304.6 700.2 100.2 376 0 m 178 626 l 178 403 l 336 403 b 481.1 391.8 575.1 461.3 336 626 l 178 626 m 178 319 l 178 84 l 376 84 b 570.7 115.9 589.2 256.8 376 319 l 178 319"},"Г":{"ha":540,"x_min":92,"x_max":528,"o":"m 178 0 l 92 0 l 92 710 l 528 710 l 528 626 l 178 626 l 178 0"},"Ѓ":{"ha":540,"x_min":92,"x_max":528,"o":"m 178 0 l 92 0 l 92 710 l 528 710 l 528 626 l 178 626 l 178 0 m 333 778 l 263 778 l 329 906 l 423 906 l 333 778"},"Ґ":{"ha":540,"x_min":92,"x_max":528,"o":"m 178 0 l 92 0 l 92 710 l 442 710 l 442 865 l 528 865 l 528 626 l 178 626 l 178 0"},"Ғ":{"ha":600,"x_min":52,"x_max":588,"o":"m 238 0 l 152 0 l 152 300 l 52 300 l 52 380 l 152 380 l 152 710 l 588 710 l 588 626 l 238 626 l 238 380 l 438 380 l 438 300 l 238 300 l 238 0"},"Д":{"ha":780,"x_min":40,"x_max":730,"o":"m 126 -150 l 40 -150 l 40 84 l 126 84 b 146.2 102.4 168.7 154.4 176 216 l 228 710 l 644 710 l 644 84 l 730 84 l 730 -150 l 644 -150 l 644 0 l 126 0 l 126 -150 m 216 84 l 558 84 l 558 626 l 304 626 l 258 210 b 255.0 167.9 239.0 113.6 216 84"},"Е":{"ha":603,"x_min":92,"x_max":546,"o":"m 546 0 l 92 0 l 92 710 l 538 710 l 538 626 l 178 626 l 178 397 l 526 397 l 526 315 l 178 315 l 178 84 l 546 84 l 546 0"},"Ѐ":{"ha":603,"x_min":92,"x_max":546,"o":"m 546 0 l 92 0 l 92 710 l 538 710 l 538 626 l 178 626 l 178 397 l 526 397 l 526 315 l 178 315 l 178 84 l 546 84 l 546 0 m 359 778 l 289 778 l 199 906 l 293 906 l 359 778"},"Ё":{"ha":603,"x_min":92,"x_max":546,"o":"m 546 0 l 92 0 l 92 710 l 538 710 l 538 626 l 178 626 l 178 397 l 526 397 l 526 315 l 178 315 l 178 84 l 546 84 l 546 0 m 274 793 l 186 793 l 186 891 l 274 891 l 274 793 m 448 793 l 360 793 l 360 891 l 448 891 l 448 793"},"Ж":{"ha":898,"x_min":15,"x_max":883,"o":"m 121 0 l 15 0 l 320 355 l 25 710 l 131 710 l 406 367 l 406 710 l 492 710 l 492 367 l 767 710 l 873 710 l 578 355 l 883 0 l 777 0 l 492 343 l 492 0 l 406 0 l 406 343 l 121 0"},"З":{"ha":614,"x_min":40,"x_max":564,"o":"m 306 -16 b 182.9 -26.2 70.9 33.2 40 183 l 130 189 b 178.6 34.5 388.3 17.7 474 194 b 483.1 255.3 430.2 313.8 326 318 l 202 318 l 202 402 l 326 402 b 516.6 421.2 536.1 571.0 306 642 b 217.5 649.7 141.7 606.3 130 519 l 40 525 b 54.0 680.1 190.7 760.1 442.5 698.5 b 597.3 606.6 613.5 451.8 432 358 b 647.7 125.3 575.9 9.1 306 -16"},"И":{"ha":743,"x_min":92,"x_max":651,"o":"m 651 710 l 651 0 l 565 0 l 565 612 l 220 0 l 92 0 l 92 710 l 178 710 l 178 86 l 529 710 l 651 710"},"Й":{"ha":743,"x_min":92,"x_max":651,"o":"m 651 710 l 651 0 l 565 0 l 565 612 l 220 0 l 92 0 l 92 710 l 178 710 l 178 86 l 529 710 l 651 710 m 354 783 b 294.2 775.1 225.5 820.6 210 911 l 282 911 b 304.1 813.9 389.2 804.5 426 911 l 498 911 b 500.3 851.4 447.8 789.1 354 783"},"Ѝ":{"ha":738,"x_min":87,"x_max":646,"o":"m 391 778 l 321 778 l 231 906 l 325 906 l 391 778 m 646 710 l 646 0 l 560 0 l 560 612 l 215 0 l 87 0 l 87 710 l 173 710 l 173 86 l 524 710 l 646 710"},"К":{"ha":628,"x_min":92,"x_max":613,"o":"m 178 0 l 92 0 l 92 710 l 178 710 l 178 366 l 495 710 l 603 710 l 266 355 l 613 0 l 505 0 l 178 344 l 178 0"},"Ќ":{"ha":628,"x_min":92,"x_max":613,"o":"m 178 0 l 92 0 l 92 710 l 178 710 l 178 366 l 495 710 l 603 710 l 266 355 l 613 0 l 505 0 l 178 344 l 178 0 m 369 778 l 299 778 l 365 906 l 459 906 l 369 778"},"Л":{"ha":734,"x_min":67,"x_max":642,"o":"m 104 0 l 67 0 l 67 86 l 91 86 b 117.2 80.2 146.0 100.0 154 158 l 206 710 l 642 710 l 642 0 l 556 0 l 556 626 l 282 626 l 236 152 b 237.5 71.2 198.0 2.7 104 0"},"М":{"ha":877,"x_min":92,"x_max":785,"o":"m 178 0 l 92 0 l 92 710 l 212 710 l 439 94 l 665 710 l 785 710 l 785 0 l 699 0 l 699 550 l 496 0 l 381 0 l 178 550 l 178 0"},"Н":{"ha":713,"x_min":92,"x_max":621,"o":"m 178 0 l 92 0 l 92 710 l 178 710 l 178 399 l 535 399 l 535 710 l 621 710 l 621 0 l 535 0 l 535 315 l 178 315 l 178 0"},"О":{"ha":739,"x_min":45,"x_max":694,"o":"m 369 -16 b 103.6 -4.2 -10.2 194.7 84 552.5 b 216.0 774.8 468.8 795.9 655 552.5 b 756.1 263.4 676.4 31.5 369 -16 m 369 68 b 668.8 150.7 698.1 492.0 369 642 b 70.7 557.2 41.4 215.4 369 68"},"П":{"ha":713,"x_min":92,"x_max":621,"o":"m 178 0 l 92 0 l 92 710 l 621 710 l 621 0 l 535 0 l 535 626 l 178 626 l 178 0"},"Р":{"ha":650,"x_min":92,"x_max":598,"o":"m 178 0 l 92 0 l 92 710 l 347 710 b 667.8 647.8 698.8 390.2 347 276 l 178 276 l 178 0 m 178 626 l 178 360 l 347 360 b 528.1 367.6 573.4 562.5 347 626 l 178 626"},"С":{"ha":703,"x_min":45,"x_max":663,"o":"m 364 -16 b 107.6 -4.2 -9.3 194.7 85 552.5 b 216.7 785.9 490.3 810.5 657 484 l 566 478 b 494.5 681.9 297.2 701.2 164 508.5 b 90.9 282.9 151.3 103.4 364 68 b 454.1 57.1 547.4 122.2 572 248 l 663 242 b 661.0 126.5 577.0 13.9 364 -16"},"Т":{"ha":566,"x_min":0,"x_max":528,"o":"m 307 0 l 221 0 l 221 626 l 0 626 l 0 710 l 528 710 l 528 626 l 307 626 l 307 0"},"У":{"ha":628,"x_min":20,"x_max":608,"o":"m 212 0 l 106 0 l 106 84 l 207 84 b 224.4 80.5 246.7 89.1 262 122 l 291 190 l 264 190 l 20 710 l 113 710 l 321 258 l 515 710 l 608 710 l 330 84 b 318.0 40.6 279.2 2.0 212 0"},"Ў":{"ha":628,"x_min":20,"x_max":608,"o":"m 212 0 l 106 0 l 106 84 l 207 84 b 224.4 80.5 246.7 89.1 262 122 l 291 190 l 264 190 l 20 710 l 113 710 l 321 258 l 515 710 l 608 710 l 330 84 b 318.0 40.6 279.2 2.0 212 0 m 309 783 b 249.2 775.1 180.5 820.6 165 911 l 237 911 b 259.1 813.9 344.2 804.5 381 911 l 453 911 b 455.3 851.4 402.8 789.1 309 783"},"Ф":{"ha":854,"x_min":45,"x_max":809,"o":"m 469 -16 l 385 -16 l 385 73 b 89.7 89.9 -13.3 244.3 80 499 b 98.4 562.6 207.8 630.2 385 637 l 385 726 l 469 726 l 469 637 b 764.7 620.1 867.3 465.7 774 211 b 755.8 147.4 647.1 79.8 469 73 l 469 -16 m 135 355 b 114.0 265.1 167.4 179.0 385 157 l 385 553 b 245.8 564.3 145.5 508.3 135 355 m 469 553 l 469 157 b 694.5 165.1 762.0 272.0 696 459.5 b 686.4 503.6 608.5 548.8 469 553"},"Х":{"ha":606,"x_min":15,"x_max":591,"o":"m 115 0 l 15 0 l 248 356 l 17 710 l 119 710 l 304 424 l 487 710 l 587 710 l 356 358 l 591 0 l 489 0 l 302 290 l 115 0"},"Ц":{"ha":758,"x_min":92,"x_max":708,"o":"m 708 -150 l 622 -150 l 622 0 l 92 0 l 92 710 l 178 710 l 178 84 l 535 84 l 535 710 l 621 710 l 621 84 l 708 84 l 708 -150"},"Ч":{"ha":694,"x_min":62,"x_max":602,"o":"m 602 0 l 516 0 l 516 302 b 415.8 195.0 181.9 174.6 62 456 l 62 710 l 148 710 l 148 462 b 175.8 287.9 372.3 279.5 516 396 l 516 710 l 602 710 l 602 0"},"Ш":{"ha":958,"x_min":92,"x_max":866,"o":"m 866 0 l 92 0 l 92 710 l 178 710 l 178 84 l 436 84 l 436 710 l 522 710 l 522 84 l 780 84 l 780 710 l 866 710 l 866 0"},"Щ":{"ha":1002,"x_min":92,"x_max":952,"o":"m 866 0 l 92 0 l 92 710 l 178 710 l 178 84 l 436 84 l 436 710 l 522 710 l 522 84 l 780 84 l 780 710 l 866 710 l 866 84 l 952 84 l 952 -150 l 866 -150 l 866 0"},"Џ":{"ha":713,"x_min":92,"x_max":621,"o":"m 317 0 l 92 0 l 92 710 l 178 710 l 178 84 l 535 84 l 535 710 l 621 710 l 621 0 l 397 0 l 397 -150 l 317 -150 l 317 0"},"Ь":{"ha":660,"x_min":92,"x_max":598,"o":"m 92 0 l 92 710 l 178 710 l 178 454 l 347 454 b 667.8 388.8 698.8 112.9 347 0 l 92 0 m 347 370 l 178 370 l 178 84 l 347 84 b 554.3 117.9 573.3 299.6 347 370"},"Ы":{"ha":860,"x_min":92,"x_max":768,"o":"m 92 0 l 92 710 l 178 710 l 178 454 l 347 454 b 667.8 388.8 698.8 112.9 347 0 l 92 0 m 347 370 l 178 370 l 178 84 l 347 84 b 554.3 117.9 573.3 299.6 347 370 m 768 0 l 682 0 l 682 710 l 768 710 l 768 0"},"Ъ":{"ha":790,"x_min":52,"x_max":738,"o":"m 487 0 l 232 0 l 232 626 l 52 626 l 52 710 l 318 710 l 318 454 l 487 454 b 807.8 388.8 838.8 112.9 487 0 m 318 370 l 318 84 l 487 84 b 694.3 117.9 713.3 299.6 487 370 l 318 370"},"Љ":{"ha":1130,"x_min":67,"x_max":1068,"o":"m 104 0 l 67 0 l 67 86 l 91 86 b 117.2 80.2 146.0 100.0 154 158 l 206 710 l 642 710 l 642 454 l 817 454 b 1137.8 388.8 1168.8 112.9 817 0 l 556 0 l 556 626 l 282 626 l 236 152 b 237.5 71.2 198.0 2.7 104 0 m 817 370 l 642 370 l 642 84 l 817 84 b 1024.3 117.9 1043.3 299.6 817 370"},"Њ":{"ha":1103,"x_min":92,"x_max":1041,"o":"m 178 0 l 92 0 l 92 710 l 178 710 l 178 399 l 535 399 l 535 710 l 621 710 l 621 428 l 800 428 b 1110.0 363.7 1138.6 103.3 800 0 l 535 0 l 535 315 l 178 315 l 178 0 m 800 344 l 621 344 l 621 84 l 800 84 b 996.5 111.1 1013.2 277.6 800 344"},"Ѕ":{"ha":640,"x_min":55,"x_max":585,"o":"m 336 -16 b 214.6 -29.1 96.6 41.5 55 227 l 145 233 b 217.5 30.3 420.1 13.3 495 180 b 511.4 255.1 410.3 307.6 161.5 374 b 39.4 441.3 29.0 578.0 180 700.5 b 362.4 768.4 519.3 707.0 570 500 l 480 494 b 416.9 675.5 230.6 693.2 160 528 b 144.2 459.8 233.7 421.9 487.5 347.5 b 618.4 265.5 629.0 128.0 465 8.5 q 409 -16 336 -16"},"Є":{"ha":712,"x_min":45,"x_max":673,"o":"m 364 -16 b 107.6 -4.2 -9.3 194.7 85 552.5 b 215.1 787.5 488.9 812.6 667 474 l 576 468 b 496.7 701.4 271.3 726.9 137 401 l 137 396 l 471 396 l 471 312 l 137 312 b 220.5 8.7 456.4 -18.0 582 258 l 673 252 b 670.5 133.2 580.9 15.6 364 -16"},"Э":{"ha":712,"x_min":39,"x_max":667,"o":"m 348 -16 b 224.0 -30.6 98.4 47.2 39 252 l 130 258 b 210.4 6.8 441.7 -19.2 575 307 l 575 312 l 241 312 l 241 396 l 575 396 b 490.5 698.5 259.8 724.7 136 468 l 45 474 b 160.3 781.9 445.2 809.7 627 552.5 b 728.4 263.4 645.2 31.5 348 -16"},"І":{"ha":270,"x_min":92,"x_max":178,"o":"m 178 0 l 92 0 l 92 710 l 178 710 l 178 0"},"Ї":{"ha":270,"x_min":27,"x_max":243,"o":"m 178 0 l 92 0 l 92 710 l 178 710 l 178 0 m 115 793 l 27 793 l 27 891 l 115 891 l 115 793 m 243 793 l 155 793 l 155 891 l 243 891 l 243 793"},"Ј":{"ha":597,"x_min":67,"x_max":520,"o":"m 293 -16 b 193.7 -29.5 94.8 42.6 67 232 l 155 238 b 195.1 18.5 362.0 -2.6 434 248 l 434 710 l 520 710 l 520 248 b 533.1 126.6 469.4 11.9 293 -16"},"Ћ":{"ha":815,"x_min":12,"x_max":753,"o":"m 299 0 l 213 0 l 213 626 l 12 626 l 12 710 l 540 710 l 540 626 l 299 626 l 299 408 b 399.2 515.0 633.1 535.4 753 254 l 753 0 l 667 0 l 667 248 b 639.2 422.1 443.6 430.5 299 314 l 299 0"},"Ю":{"ha":946,"x_min":92,"x_max":901,"o":"m 178 0 l 92 0 l 92 710 l 178 710 l 178 399 l 294 399 b 399.6 791.3 697.0 823.0 865 552.5 b 959.1 263.4 886.0 31.5 596 -16 b 462.4 -36.5 318.8 81.3 293 315 l 178 315 l 178 0 m 596 68 b 871.3 150.7 897.5 492.0 596 642 b 322.3 557.2 296.0 215.4 596 68"},"Я":{"ha":664,"x_min":62,"x_max":572,"o":"m 157 0 l 62 0 l 241 288 b 4.6 357.2 -21.1 605.1 317 710 l 572 710 l 572 0 l 486 0 l 486 282 l 333 282 l 157 0 m 317 366 l 486 366 l 486 626 l 317 626 b 110.5 595.8 91.1 426.0 317 366"},"Ђ":{"ha":806,"x_min":12,"x_max":744,"o":"m 484 -16 b 471.5 -16.1 441.6 -14.0 420 -12 l 420 72 b 440.5 42.0 550.0 30.4 654 228 b 623.7 422.9 437.1 436.3 299 304 l 299 0 l 213 0 l 213 626 l 12 626 l 12 710 l 540 710 l 540 626 l 299 626 l 299 404 b 390.6 498.1 568.5 512.3 714 359 b 793.4 279.8 775.6 67.8 484 -16"},"Ѣ":{"ha":780,"x_min":52,"x_max":718,"o":"m 467 0 l 212 0 l 212 544 l 52 544 l 52 626 l 212 626 l 212 726 l 298 726 l 298 626 l 518 626 l 518 544 l 298 544 l 298 454 l 467 454 b 787.8 388.8 818.8 112.9 467 0 m 298 370 l 298 84 l 467 84 b 674.3 117.9 693.3 299.6 467 370 l 298 370"},"Ѫ":{"ha":724,"x_min":15,"x_max":709,"o":"m 102 0 l 15 0 l 127 300 b 140.0 351.3 182.5 396.7 252 399 l 264 399 l 75 626 l 75 710 l 650 710 l 650 626 l 461 399 l 471 399 b 515.7 406.0 567.7 374.5 597 300 l 709 0 l 622 0 l 528 258 b 520.6 289.5 501.1 314.5 460 315 l 406 315 l 406 0 l 319 0 l 319 315 l 264 315 b 236.4 319.9 211.8 305.4 196 258 l 102 0 m 177 626 l 363 400 l 548 626 l 177 626"},"Ѳ":{"ha":739,"x_min":45,"x_max":694,"o":"m 369 -16 b 103.6 -4.2 -10.2 194.7 84 552.5 b 216.0 774.8 468.8 795.9 655 552.5 b 756.1 263.4 676.4 31.5 369 -16 m 232 432 b 333.9 418.8 422.5 379.4 516 358 q 564 358 603 379 b 527.1 709.4 270.5 739.8 138 413 l 138 411 b 154.9 420.9 190.2 431.1 232 432 m 369 68 b 462.3 54.0 570.1 131.4 600 289 l 600 292 b 563.3 270.7 500.7 267.7 380.5 315 b 279.8 359.6 196.7 364.5 136 325 b 129.3 204.0 213.4 79.5 369 68"},"Ѵ":{"ha":710,"x_min":20,"x_max":700,"o":"m 390 0 l 277 0 l 20 710 l 114 710 l 334 96 l 516 608 b 535.5 678.5 585.3 727.4 652 726 l 700 726 l 700 642 l 667 642 b 644.0 646.2 619.7 630.8 604 588 l 390 0"},"Җ":{"ha":923,"x_min":15,"x_max":913,"o":"m 121 0 l 15 0 l 320 355 l 25 710 l 131 710 l 406 367 l 406 710 l 492 710 l 492 367 l 767 710 l 873 710 l 578 355 l 811 84 l 913 84 l 913 -150 l 827 -150 l 827 0 l 777 0 l 492 343 l 492 0 l 406 0 l 406 343 l 121 0"},"Қ":{"ha":656,"x_min":92,"x_max":641,"o":"m 178 0 l 92 0 l 92 710 l 178 710 l 178 366 l 495 710 l 603 710 l 266 355 l 531 84 l 641 84 l 641 -150 l 555 -150 l 555 0 l 505 0 l 178 344 l 178 0"},"Ң":{"ha":779,"x_min":92,"x_max":707,"o":"m 178 0 l 92 0 l 92 710 l 178 710 l 178 399 l 535 399 l 535 710 l 621 710 l 621 84 l 707 84 l 707 -150 l 621 -150 l 621 0 l 535 0 l 535 315 l 178 315 l 178 0"},"Ү":{"ha":576,"x_min":-6,"x_max":582,"o":"m 331 0 l 245 0 l 245 290 l -6 710 l 96 710 l 288 378 l 480 710 l 582 710 l 331 290 l 331 0"},"Ұ":{"ha":576,"x_min":-6,"x_max":582,"o":"m 331 0 l 245 0 l 245 239 l 68 239 l 68 313 l 231 313 l -6 710 l 96 710 l 288 378 l 480 710 l 582 710 l 345 313 l 508 313 l 508 239 l 331 239 l 331 0"},"Ҳ":{"ha":640,"x_min":15,"x_max":625,"o":"m 115 0 l 15 0 l 248 356 l 17 710 l 119 710 l 304 424 l 487 710 l 587 710 l 356 358 l 536 84 l 625 84 l 625 -150 l 539 -150 l 539 0 l 489 0 l 302 290 l 115 0"},"Ҷ":{"ha":739,"x_min":62,"x_max":689,"o":"m 603 0 l 516 0 l 516 302 b 415.8 195.0 181.9 174.6 62 456 l 62 710 l 148 710 l 148 462 b 175.8 287.9 372.3 279.5 516 396 l 516 710 l 602 710 l 602 84 l 689 84 l 689 -150 l 603 -150 l 603 0"},"Һ":{"ha":694,"x_min":92,"x_max":632,"o":"m 92 710 l 178 710 l 178 408 b 278.2 515.0 512.1 535.4 632 254 l 632 0 l 546 0 l 546 248 b 518.2 422.1 322.6 430.5 178 314 l 178 0 l 92 0 l 92 710"},"Ӏ":{"ha":270,"x_min":92,"x_max":178,"o":"m 178 0 l 92 0 l 92 710 l 178 710 l 178 0"},"Ә":{"ha":713,"x_min":45,"x_max":668,"o":"m 668 355 b 642.8 52.7 460.6 -72.3 235.5 6.5 b 153.4 21.8 69.3 118.3 45 340 l 45 390 l 577 390 b 552.5 599.9 430.4 686.8 235.5 607 q 186 572 158 501 l 67 510 b 193.7 778.4 444.0 803.5 629 551.5 q 668 468 668 355 m 577 303 l 577 306 l 137 306 b 219.8 22.3 409.7 1.8 538.5 173.5 q 570 226 577 303"},"Ӣ":{"ha":743,"x_min":92,"x_max":651,"o":"m 651 710 l 651 0 l 565 0 l 565 612 l 220 0 l 92 0 l 92 710 l 178 710 l 178 86 l 529 710 l 651 710 m 491 805 l 223 805 l 223 877 l 491 877 l 491 805"},"Ө":{"ha":739,"x_min":45,"x_max":694,"o":"m 369 -16 b 103.6 -4.2 -10.2 194.7 84 552.5 b 216.0 774.8 468.8 795.9 655 552.5 b 756.1 263.4 676.4 31.5 369 -16 m 137 400 l 137 395 l 602 395 b 522.6 709.4 267.7 739.9 137 400 m 369 68 b 469.0 52.4 579.0 138.5 602 314 l 603 315 l 136 315 b 131.5 198.9 216.2 79.2 369 68"},"Ӯ":{"ha":628,"x_min":20,"x_max":608,"o":"m 212 0 l 106 0 l 106 84 l 207 84 b 224.4 80.5 246.7 89.1 262 122 l 291 190 l 264 190 l 20 710 l 113 710 l 321 258 l 515 710 l 608 710 l 330 84 b 318.0 40.6 279.2 2.0 212 0 m 446 805 l 178 805 l 178 877 l 446 877 l 446 805"},"а":{"ha":551,"x_min":44,"x_max":532,"o":"m 223 -12 b -2.6 26.8 -26.6 196.2 211 294 l 399 329 b 334.2 509.9 188.8 495.5 142 367 l 53 374 b 138.4 594.5 379.0 620.0 483 326 l 483 107 q 483 74 511 74 l 532 74 l 532 0 b 519.4 -15.3 441.8 -12.3 401 77 l 400 82 b 387.7 41.1 316.0 -6.2 223 -12 m 231 62 b 310.3 53.7 391.6 114.8 399 218 l 399 256 l 227 224 b 101.2 187.9 93.1 101.1 231 62"},"б":{"ha":556,"x_min":45,"x_max":511,"o":"m 279 -12 b 7.9 74.1 -10.0 386.4 103 560 b 224.7 650.6 386.9 675.9 390 710 l 472 710 b 477.8 622.8 414.3 600.4 178.5 530 q 133 483 129 385 b 195.5 540.4 387.0 563.5 511 236 b 526.1 127.6 465.1 18.4 279 -12 m 279 68 b 462.1 107.5 480.4 323.9 279 408 b 97.2 356.3 77.6 145.9 279 68"},"в":{"ha":590,"x_min":80,"x_max":520,"o":"m 339 0 l 80 0 l 80 530 l 322 530 b 532.6 481.1 548.3 338.0 412 273 b 561.3 222.2 580.4 72.3 339 0 m 164 456 l 164 306 l 310 306 b 438.2 331.4 447.7 419.9 322 456 l 164 456 m 164 232 l 164 74 l 339 74 b 460.7 91.0 472.4 187.9 329 232 l 164 232"},"г":{"ha":460,"x_min":80,"x_max":446,"o":"m 164 0 l 80 0 l 80 530 l 446 530 l 446 456 l 164 456 l 164 0"},"ѓ":{"ha":460,"x_min":80,"x_max":446,"o":"m 164 0 l 80 0 l 80 530 l 446 530 l 446 456 l 164 456 l 164 0 m 298 598 l 228 598 l 294 726 l 388 726 l 298 598"},"ґ":{"ha":460,"x_min":80,"x_max":446,"o":"m 164 0 l 80 0 l 80 530 l 360 530 l 360 640 l 446 640 l 446 456 l 164 456 l 164 0"},"ғ":{"ha":550,"x_min":40,"x_max":506,"o":"m 224 0 l 140 0 l 140 232 l 40 232 l 40 306 l 140 306 l 140 530 l 506 530 l 506 456 l 224 456 l 224 306 l 394 306 l 394 232 l 224 232 l 224 0"},"д":{"ha":612,"x_min":30,"x_max":582,"o":"m 114 -110 l 30 -110 l 30 74 l 94 74 b 115.9 80.0 148.7 131.7 164 240 l 196 530 l 508 530 l 508 74 l 582 74 l 582 -110 l 498 -110 l 498 0 l 114 0 l 114 -110 m 266 456 l 240 232 b 235.0 172.8 212.0 106.8 186 74 l 424 74 l 424 456 l 266 456"},"е":{"ha":561,"x_min":44,"x_max":517,"o":"m 287 -12 b 88.7 -1.2 2.6 148.8 73.5 411 b 173.0 577.7 351.4 594.0 487.5 415 q 517 353 517 264 l 517 239 l 132 239 b 186.9 32.0 342.8 18.2 419 157 l 509 150 b 499.3 79.3 415.3 -2.2 287 -12 m 132 313 l 425 313 b 374.8 506.1 223.3 522.4 132 313"},"ѐ":{"ha":561,"x_min":44,"x_max":517,"o":"m 287 -12 b 88.7 -1.2 2.6 148.8 73.5 411 b 173.0 577.7 351.4 594.0 487.5 415 q 517 353 517 264 l 517 239 l 132 239 b 186.9 32.0 342.8 18.2 419 157 l 509 150 b 499.3 79.3 415.3 -2.2 287 -12 m 132 313 l 425 313 b 374.8 506.1 223.3 522.4 132 313 m 326 596 l 256 596 l 166 724 l 260 724 l 326 596"},"ё":{"ha":561,"x_min":44,"x_max":517,"o":"m 287 -12 b 88.7 -1.2 2.6 148.8 73.5 411 b 173.0 577.7 351.4 594.0 487.5 415 q 517 353 517 264 l 517 239 l 132 239 b 186.9 32.0 342.8 18.2 419 157 l 509 150 b 499.3 79.3 415.3 -2.2 287 -12 m 132 313 l 425 313 b 374.8 506.1 223.3 522.4 132 313 m 244 611 l 156 611 l 156 709 l 244 709 l 244 611 m 418 611 l 330 611 l 330 709 l 418 709 l 418 611"},"ж":{"ha":856,"x_min":47,"x_max":809,"o":"m 386 252 l 149 0 l 47 0 l 304 265 l 59 530 l 161 530 l 386 278 l 386 530 l 470 530 l 470 278 l 695 530 l 797 530 l 552 265 l 809 0 l 707 0 l 470 252 l 470 0 l 386 0 l 386 252"},"з":{"ha":516,"x_min":40,"x_max":476,"o":"m 258 -12 b 163.5 -21.8 63.4 39.5 40 154 l 128 158 b 160.7 41.6 327.1 30.0 388 152 b 395.4 189.7 362.7 229.9 284 234 l 188 234 l 188 308 l 286 308 b 413.0 326.0 425.9 416.9 258 464 b 194.1 468.1 140.4 441.2 130 392 l 42 398 b 122.3 570.4 330.9 584.8 443.5 464 b 489.0 406.4 482.6 318.0 375 272 b 522.2 226.0 543.0 82.2 258 -12"},"и":{"ha":580,"x_min":80,"x_max":500,"o":"m 170 0 l 80 0 l 80 530 l 164 530 l 164 128 l 410 530 l 500 530 l 500 0 l 416 0 l 416 402 l 170 0"},"й":{"ha":580,"x_min":80,"x_max":500,"o":"m 170 0 l 80 0 l 80 530 l 164 530 l 164 128 l 410 530 l 500 530 l 500 0 l 416 0 l 416 402 l 170 0 m 287 603 b 227.2 595.1 158.5 640.6 143 731 l 215 731 b 237.1 633.9 322.2 624.5 359 731 l 431 731 b 433.3 671.4 380.8 609.1 287 603"},"ѝ":{"ha":580,"x_min":80,"x_max":500,"o":"m 170 0 l 80 0 l 80 530 l 164 530 l 164 128 l 410 530 l 500 530 l 500 0 l 416 0 l 416 402 l 170 0 m 329 598 l 259 598 l 169 726 l 263 726 l 329 598"},"к":{"ha":574,"x_min":80,"x_max":527,"o":"m 164 0 l 80 0 l 80 530 l 164 530 l 164 275 l 409 530 l 515 530 l 254 267 l 527 0 l 421 0 l 164 255 l 164 0"},"ќ":{"ha":574,"x_min":80,"x_max":527,"o":"m 164 0 l 80 0 l 80 530 l 164 530 l 164 275 l 409 530 l 515 530 l 254 267 l 527 0 l 421 0 l 164 255 l 164 0 m 323 598 l 253 598 l 319 726 l 413 726 l 323 598"},"л":{"ha":620,"x_min":60,"x_max":540,"o":"m 90 -4 l 60 -4 l 60 70 l 84 70 b 103.2 65.3 123.2 79.8 130 126 l 174 530 l 540 530 l 540 0 l 456 0 l 456 456 l 246 456 l 208 116 b 210.4 58.5 179.0 1.0 90 -4"},"м":{"ha":700,"x_min":80,"x_max":620,"o":"m 164 0 l 80 0 l 80 530 l 188 530 l 350 88 l 512 530 l 620 530 l 620 0 l 536 0 l 536 380 l 396 0 l 304 0 l 164 380 l 164 0"},"н":{"ha":580,"x_min":80,"x_max":500,"o":"m 164 0 l 80 0 l 80 530 l 164 530 l 164 314 l 416 314 l 416 530 l 500 530 l 500 0 l 416 0 l 416 240 l 164 240 l 164 0"},"о":{"ha":573,"x_min":44,"x_max":529,"o":"m 287 -12 b 90.5 -1.4 2.6 148.5 74 412 b 175.7 578.3 358.6 594.3 499 412 b 575.5 199.1 513.4 25.8 287 -12 m 287 68 b 483.8 126.1 502.8 359.3 287 462 b 89.1 403.9 69.9 170.7 287 68"},"п":{"ha":580,"x_min":80,"x_max":500,"o":"m 164 0 l 80 0 l 80 530 l 500 530 l 500 0 l 416 0 l 416 456 l 164 456 l 164 0"},"р":{"ha":595,"x_min":80,"x_max":551,"o":"m 164 -150 l 80 -150 l 80 530 l 158 530 l 159 449 b 232.3 576.4 392.5 589.4 526.5 401 b 594.0 210.0 546.1 41.0 322 -12 b 273.1 -17.0 201.5 12.5 164 70 l 164 -150 m 314 68 b 503.8 125.1 522.5 360.2 314 462 b 123.2 409.8 104.0 166.0 314 68"},"с":{"ha":546,"x_min":44,"x_max":512,"o":"m 287 -12 b 90.1 -1.2 2.6 148.8 74 411 b 172.6 587.0 377.9 606.8 512 358 l 424 352 b 372.9 507.0 215.4 525.4 132 265 b 180.0 26.2 344.7 5.6 424 188 l 512 182 b 511.3 94.5 427.3 -1.6 287 -12"},"т":{"ha":552,"x_min":44,"x_max":508,"o":"m 318 0 l 234 0 l 234 456 l 44 456 l 44 530 l 508 530 l 508 456 l 318 456 l 318 0"},"у":{"ha":537,"x_min":22,"x_max":515,"o":"m 172 -150 l 103 -150 l 103 -76 l 164 -76 b 190.5 -78.6 215.7 -67.5 226 -40 l 245 10 l 216 10 l 22 530 l 114 530 l 272 88 l 423 530 l 515 530 l 300 -67 b 292.6 -109.5 249.2 -147.8 172 -150"},"ў":{"ha":537,"x_min":22,"x_max":515,"o":"m 172 -150 l 103 -150 l 103 -76 l 164 -76 b 190.5 -78.6 215.7 -67.5 226 -40 l 245 10 l 216 10 l 22 530 l 114 530 l 272 88 l 423 530 l 515 530 l 300 -67 b 292.6 -109.5 249.2 -147.8 172 -150 m 265 603 b 205.2 595.1 136.5 640.6 121 731 l 193 731 b 215.1 633.9 300.2 624.5 337 731 l 409 731 b 411.3 671.4 358.8 609.1 265 603"},"ф":{"ha":745,"x_min":44,"x_max":701,"o":"m 415 -150 l 330 -150 l 330 0 b 99.1 3.8 -4.7 144.6 79.5 411 b 103.1 469.4 198.9 525.7 330 530 l 330 710 l 415 710 l 415 530 b 645.9 526.2 749.7 385.4 665.5 119 b 641.9 60.6 546.1 4.3 415 0 l 415 -150 m 330 84 l 330 446 b 79.5 403.9 55.3 167.6 330 84 m 415 446 l 415 84 b 665.5 126.1 689.7 362.4 415 446"},"х":{"ha":585,"x_min":47,"x_max":538,"o":"m 147 0 l 47 0 l 242 272 l 57 530 l 155 530 l 294 330 l 429 530 l 529 530 l 346 270 l 538 0 l 440 0 l 294 214 l 147 0"},"ц":{"ha":604,"x_min":80,"x_max":574,"o":"m 574 -110 l 490 -110 l 490 0 l 80 0 l 80 530 l 164 530 l 164 74 l 416 74 l 416 530 l 500 530 l 500 74 l 574 74 l 574 -110"},"ч":{"ha":586,"x_min":80,"x_max":506,"o":"m 506 0 l 422 0 l 422 205 b 348.5 124.7 183.1 107.3 80 336 l 80 530 l 164 530 l 164 336 b 190.5 209.8 317.4 204.8 422 290 l 422 530 l 506 530 l 506 0"},"ш":{"ha":812,"x_min":80,"x_max":732,"o":"m 732 0 l 80 0 l 80 530 l 164 530 l 164 74 l 364 74 l 364 530 l 448 530 l 448 74 l 648 74 l 648 530 l 732 530 l 732 0"},"щ":{"ha":836,"x_min":80,"x_max":806,"o":"m 722 0 l 80 0 l 80 530 l 164 530 l 164 74 l 364 74 l 364 530 l 448 530 l 448 74 l 648 74 l 648 530 l 732 530 l 732 74 l 806 74 l 806 -110 l 722 -110 l 722 0"},"џ":{"ha":580,"x_min":80,"x_max":500,"o":"m 248 0 l 80 0 l 80 530 l 164 530 l 164 74 l 416 74 l 416 530 l 500 530 l 500 0 l 332 0 l 332 -110 l 248 -110 l 248 0"},"ь":{"ha":540,"x_min":80,"x_max":496,"o":"m 294 0 l 80 0 l 80 530 l 164 530 l 164 332 l 294 332 b 553.1 281.5 577.5 88.0 294 0 m 164 258 l 164 74 l 294 74 b 444.3 101.1 455.8 210.1 294 258 l 164 258"},"ы":{"ha":700,"x_min":80,"x_max":620,"o":"m 294 0 l 80 0 l 80 530 l 164 530 l 164 332 l 294 332 b 553.1 281.5 577.5 88.0 294 0 m 164 258 l 164 74 l 294 74 b 444.3 101.1 455.8 210.1 294 258 l 164 258 m 620 0 l 536 0 l 536 530 l 620 530 l 620 0"},"ъ":{"ha":610,"x_min":60,"x_max":566,"o":"m 364 0 l 180 0 l 180 456 l 60 456 l 60 530 l 264 530 l 264 332 l 364 332 b 623.1 281.5 647.5 88.0 364 0 m 264 258 l 264 74 l 364 74 b 514.3 101.1 525.8 210.1 364 258 l 264 258"},"љ":{"ha":916,"x_min":60,"x_max":872,"o":"m 670 0 l 456 0 l 456 456 l 246 456 l 208 116 b 210.4 58.5 179.0 1.0 90 -4 l 60 -4 l 60 70 l 84 70 b 103.2 65.3 123.2 79.8 130 126 l 174 530 l 540 530 l 540 332 l 670 332 b 929.1 281.5 953.5 88.0 670 0 m 540 258 l 540 74 l 670 74 b 820.3 101.1 831.8 210.1 670 258 l 540 258"},"њ":{"ha":876,"x_min":80,"x_max":832,"o":"m 164 0 l 80 0 l 80 530 l 164 530 l 164 314 l 416 314 l 416 530 l 500 530 l 500 332 l 630 332 b 889.1 281.5 913.5 88.0 630 0 l 416 0 l 416 240 l 164 240 l 164 0 m 500 258 l 500 74 l 630 74 b 780.3 101.1 791.8 210.1 630 258 l 500 258"},"ѕ":{"ha":520,"x_min":44,"x_max":476,"o":"m 273 -12 b 166.0 -22.0 60.1 46.3 44 167 l 132 173 b 177.4 44.6 333.2 32.1 386 142 b 402.5 186.1 343.0 209.6 141 257 b 21.1 311.0 6.3 446.3 266 542 b 368.0 548.8 451.8 492.9 476 372 l 388 366 b 354.6 482.6 203.7 495.9 153 384 b 164.4 312.0 339.1 285.0 456.5 213.5 b 510.8 173.0 494.4 42.3 273 -12"},"є":{"ha":556,"x_min":44,"x_max":512,"o":"m 287 -12 b 90.1 -1.2 2.6 148.8 74 411 b 172.6 585.3 377.9 604.0 512 368 l 424 362 b 372.5 498.0 224.3 514.9 134 305 l 134 302 l 356 302 l 356 228 l 134 228 b 190.5 31.5 344.4 15.0 424 178 l 512 172 b 511.3 91.3 427.3 -1.1 287 -12"},"э":{"ha":556,"x_min":44,"x_max":512,"o":"m 269 -12 b 180.5 -22.4 74.6 47.1 44 172 l 132 178 b 183.5 29.9 331.7 13.4 422 225 l 422 228 l 200 228 l 200 302 l 422 302 b 365.5 496.9 211.6 512.3 132 362 l 44 368 b 132.1 582.8 343.6 602.2 482 411 b 558.6 199.4 496.7 26.0 269 -12"},"і":{"ha":244,"x_min":78,"x_max":166,"o":"m 164 0 l 80 0 l 80 530 l 164 530 l 164 0 m 166 613 l 78 613 l 78 711 l 166 711 l 166 613"},"ї":{"ha":244,"x_min":14,"x_max":230,"o":"m 164 0 l 80 0 l 80 530 l 164 530 l 164 0 m 102 613 l 14 613 l 14 711 l 102 711 l 102 613 m 230 613 l 142 613 l 142 711 l 230 711 l 230 613"},"ј":{"ha":260,"x_min":-5,"x_max":182,"o":"m 46 -150 l -5 -150 l -5 -76 l 38 -76 b 63.9 -80.7 92.7 -64.7 96 -18 l 96 530 l 180 530 l 180 -22 b 190.0 -90.9 149.7 -148.1 46 -150 m 182 613 l 94 613 l 94 711 l 182 711 l 182 613"},"ћ":{"ha":581,"x_min":10,"x_max":501,"o":"m 164 0 l 80 0 l 80 710 l 164 710 l 164 447 b 236.7 587.2 408.8 602.8 501 341 l 501 0 l 417 0 l 417 317 b 364.2 529.5 209.4 510.9 164 316 l 164 0 m 310 582 l 10 582 l 10 650 l 310 650 l 310 582"},"ю":{"ha":782,"x_min":80,"x_max":738,"o":"m 164 0 l 80 0 l 80 530 l 164 530 l 164 301 l 255 301 b 345.0 589.7 572.6 613.9 708 412 b 784.5 199.1 722.4 25.8 496 -12 b 396.0 -26.5 280.9 60.1 255 227 l 164 227 l 164 0 m 496 68 b 692.8 126.1 711.8 359.3 496 462 b 298.1 403.9 278.9 170.7 496 68"},"я":{"ha":585,"x_min":80,"x_max":505,"o":"m 174 0 l 80 0 l 210 197 b 35.6 265.8 16.0 443.3 284 530 l 505 530 l 505 0 l 421 0 l 421 189 l 295 189 l 174 0 m 282 264 l 421 264 l 421 456 l 282 456 b 139.4 428.8 126.9 313.0 282 264"},"ђ":{"ha":581,"x_min":10,"x_max":501,"o":"m 164 0 l 80 0 l 80 582 l 10 582 l 10 650 l 80 650 l 80 710 l 164 710 l 164 650 l 310 650 l 310 582 l 164 582 l 164 447 b 236.3 587.2 408.8 602.8 501 341 l 501 -22 b 510.9 -90.9 470.5 -148.1 368 -150 l 330 -150 l 330 -76 l 360 -76 b 385.8 -80.7 414.0 -64.7 417 -18 l 417 317 b 364.2 529.5 209.4 510.9 164 316 l 164 0"},"ѣ":{"ha":558,"x_min":30,"x_max":514,"o":"m 312 0 l 108 0 l 108 456 l 30 456 l 30 530 l 108 530 l 108 650 l 192 650 l 192 530 l 353 530 l 353 456 l 192 456 l 192 316 l 312 316 b 571.1 265.6 595.5 85.9 312 0 m 192 242 l 192 74 l 312 74 b 461.1 98.0 473.3 199.9 312 242 l 192 242"},"ѫ":{"ha":706,"x_min":47,"x_max":659,"o":"m 143 0 l 47 0 l 150 225 q 185 300 248 300 l 252 300 l 76 456 l 76 530 l 631 530 l 631 456 l 455 300 l 458 300 q 522 300 556 225 l 659 0 l 563 0 l 482 187 b 475.8 210.6 454.3 228.1 417 228 l 395 228 l 395 0 l 311 0 l 311 228 l 288 228 b 265.0 231.4 240.0 220.7 224 187 l 143 0 m 529 456 l 178 456 l 354 301 l 529 456"},"ѳ":{"ha":573,"x_min":44,"x_max":529,"o":"m 287 -12 b 90.5 -1.4 2.6 148.5 74 412 b 175.7 578.3 358.6 594.3 499 412 b 575.5 199.1 513.4 25.8 287 -12 m 174 330 b 254.5 317.1 324.3 282.4 415 262 q 428 262 441 265 b 395.8 505.9 226.2 526.7 138 329 l 137 324 q 156 330 174 330 m 287 68 b 340.6 60.3 406.3 102.2 432 189 b 416.1 179.4 342.3 201.7 244.5 245.5 b 212.6 256.7 159.9 259.5 132 249 b 126.6 164.6 181.8 76.5 287 68"},"ѵ":{"ha":542,"x_min":22,"x_max":520,"o":"m 321 0 l 215 0 l 22 530 l 114 530 l 268 86 l 398 460 b 407.2 502.1 441.9 531.0 500 530 l 520 530 l 520 456 l 510 456 b 498.1 458.2 484.8 449.1 476 426 l 321 0"},"җ":{"ha":854,"x_min":47,"x_max":844,"o":"m 386 252 l 149 0 l 47 0 l 304 265 l 59 530 l 161 530 l 386 278 l 386 530 l 470 530 l 470 278 l 695 530 l 797 530 l 552 265 l 737 74 l 844 74 l 844 -110 l 760 -110 l 760 0 l 707 0 l 470 252 l 470 0 l 386 0 l 386 252"},"қ":{"ha":568,"x_min":80,"x_max":558,"o":"m 164 0 l 80 0 l 80 530 l 164 530 l 164 275 l 409 530 l 515 530 l 254 267 l 451 74 l 558 74 l 558 -110 l 474 -110 l 474 0 l 421 0 l 164 255 l 164 0"},"ң":{"ha":604,"x_min":80,"x_max":574,"o":"m 164 0 l 80 0 l 80 530 l 164 530 l 164 314 l 416 314 l 416 530 l 500 530 l 500 74 l 574 74 l 574 -110 l 490 -110 l 490 0 l 416 0 l 416 240 l 164 240 l 164 0"},"ү":{"ha":544,"x_min":22,"x_max":522,"o":"m 230 -150 l 230 0 l 22 530 l 112 530 l 272 108 l 432 530 l 522 530 l 314 0 l 314 -150 l 230 -150"},"ұ":{"ha":544,"x_min":22,"x_max":522,"o":"m 230 0 l 52 0 l 52 74 l 201 74 l 22 530 l 112 530 l 272 108 l 432 530 l 522 530 l 343 74 l 492 74 l 492 0 l 314 0 l 314 -150 l 230 -150 l 230 0"},"ҳ":{"ha":589,"x_min":47,"x_max":579,"o":"m 147 0 l 47 0 l 242 272 l 57 530 l 155 530 l 294 330 l 429 530 l 529 530 l 346 270 l 485 74 l 579 74 l 579 -110 l 495 -110 l 495 0 l 440 0 l 294 214 l 147 0"},"ҷ":{"ha":610,"x_min":80,"x_max":580,"o":"m 496 0 l 422 0 l 422 205 b 348.5 124.7 183.1 107.3 80 336 l 80 530 l 164 530 l 164 336 b 190.5 209.8 317.4 204.8 422 290 l 422 530 l 506 530 l 506 74 l 580 74 l 580 -110 l 496 -110 l 496 0"},"һ":{"ha":581,"x_min":80,"x_max":501,"o":"m 164 0 l 80 0 l 80 710 l 164 710 l 164 447 b 236.7 587.2 408.8 602.8 501 341 l 501 0 l 417 0 l 417 317 b 364.2 529.5 209.4 510.9 164 316 l 164 0"},"ӏ":{"ha":268,"x_min":92,"x_max":176,"o":"m 176 0 l 92 0 l 92 710 l 176 710 l 176 0"},"ә":{"ha":561,"x_min":44,"x_max":517,"o":"m 274 542 b 472.3 530.3 558.4 381.2 487.5 118.5 b 387.9 -48.0 209.6 -63.9 74 115 q 44 177 44 266 l 44 291 l 429 291 b 374.5 498.4 218.4 512.0 142 373 l 52 380 b 61.7 450.7 145.7 532.2 274 542 m 429 217 l 136 217 b 187.2 24.3 338.8 7.8 429 217"},"ӣ":{"ha":580,"x_min":80,"x_max":500,"o":"m 170 0 l 80 0 l 80 530 l 164 530 l 164 128 l 410 530 l 500 530 l 500 0 l 416 0 l 416 402 l 170 0 m 424 625 l 156 625 l 156 697 l 424 697 l 424 625"},"ө":{"ha":573,"x_min":44,"x_max":529,"o":"m 287 -12 b 90.5 -1.4 2.6 148.5 74 412 b 175.7 578.3 358.6 594.3 499 412 b 575.5 199.1 513.4 25.8 287 -12 m 134 305 l 134 302 l 439 302 b 385.0 506.1 221.7 525.5 134 305 m 287 68 b 350.2 58.2 420.3 113.7 439 225 l 439 228 l 134 228 b 133.1 152.6 187.9 75.2 287 68"},"ӯ":{"ha":537,"x_min":22,"x_max":515,"o":"m 172 -150 l 103 -150 l 103 -76 l 164 -76 b 190.5 -78.6 215.7 -67.5 226 -40 l 245 10 l 216 10 l 22 530 l 114 530 l 272 88 l 423 530 l 515 530 l 300 -67 b 292.6 -109.5 249.2 -147.8 172 -150 m 402 625 l 134 625 l 134 697 l 402 697 l 402 625"},"Λ":{"ha":668,"x_min":20,"x_max":648,"o":"m 114 0 l 20 0 l 276 710 l 392 710 l 648 0 l 554 0 l 334 635 l 114 0"},"Ω":{"ha":731,"x_min":45,"x_max":686,"o":"m 315 0 l 47 0 l 47 84 l 179 84 b 5.8 215.5 -12.5 465.1 195 681 b 442.3 795.5 643.4 702.5 686 364 b 694.2 277.5 645.9 154.8 552 84 l 684 84 l 684 0 l 415 0 l 415 84 b 562.6 92.9 638.4 235.8 536 568.5 b 262.6 727.8 78.9 548.6 159 222.5 b 176.2 159.6 237.7 92.2 315 84 l 315 0"},"λ":{"ha":570,"x_min":20,"x_max":550,"o":"m 108 0 l 20 0 l 219 509 l 191 580 b 184.3 606.8 166.4 633.7 128 636 l 75 636 l 75 710 l 122 710 b 178.9 719.9 238.3 678.7 278 576 l 454 130 b 460.8 104.2 478.1 76.8 515 74 l 550 74 l 550 0 l 516 0 b 460.5 -10.3 411.5 20.8 367 134 l 262 401 l 108 0"},"µ":{"ha":575,"x_min":80,"x_max":495,"o":"m 164 -150 l 80 -150 l 80 530 l 164 530 l 164 212 b 188.7 17.5 336.5 1.5 411 214 l 411 530 l 495 530 l 495 0 l 415 0 l 415 86 b 362.2 -12.1 217.5 -34.6 164 11 l 164 -150"},"π":{"ha":655,"x_min":55,"x_max":621,"o":"m 246 0 l 162 0 l 162 456 l 55 456 l 55 530 l 621 530 l 621 456 l 519 456 l 519 146 b 514.4 112.3 537.6 77.3 588 74 l 619 74 l 619 0 l 588 0 b 508.1 -8.6 438.3 45.2 435 146 l 435 456 l 246 456 l 246 0"},"⓿":{"ha":826,"x_min":44,"x_max":782,"o":"m 413 -12 b 209.4 -5.6 72.7 112.9 44 358 b 50.6 560.7 169.2 697.1 413 726 b 617.0 719.3 753.3 600.7 782 358 b 775.4 153.1 657.0 16.6 413 -12 m 416 152 b 614.1 212.1 634.1 450.5 416 555 b 217.9 496.0 198.1 257.8 416 152 m 462 481 l 338 278 b 301.1 327.3 355.8 524.6 462 481 m 416 212 q 390 212 370 229 l 495 433 b 520.1 414.4 528.6 292.8 416 212"},"❶":{"ha":826,"x_min":44,"x_max":782,"o":"m 413 -12 b 209.4 -5.6 72.7 112.9 44 358 b 50.6 560.7 169.2 697.1 413 726 b 617.0 719.3 753.3 600.7 782 358 b 775.4 153.1 657.0 16.6 413 -12 m 401 414 l 401 160 l 467 160 l 467 548 l 418 548 b 424.0 508.3 394.1 467.0 329 463 l 305 463 l 305 413 l 401 414"},"❷":{"ha":826,"x_min":44,"x_max":782,"o":"m 413 -12 b 209.4 -5.6 72.7 112.9 44 358 b 50.6 560.7 169.2 697.1 413 726 b 617.0 719.3 753.3 600.7 782 358 b 775.4 153.1 657.0 16.6 413 -12 m 283 160 l 549 160 l 549 218 l 357 218 b 352.8 235.7 370.5 268.8 414 295 l 455 317 b 581.9 376.8 596.0 496.9 425 555 b 362.5 562.4 297.5 516.0 284 429 l 348 426 b 375.5 515.0 453.0 521.8 485 443 b 489.1 417.8 475.1 391.1 434 369 l 382 340 b 318.4 313.4 281.5 260.5 283 160"},"❸":{"ha":826,"x_min":44,"x_max":782,"o":"m 413 -12 b 209.4 -5.6 72.7 112.9 44 358 b 50.6 560.7 169.2 697.1 413 726 b 617.0 719.3 753.3 600.7 782 358 b 775.4 153.1 657.0 16.6 413 -12 m 418 152 b 586.4 190.3 605.0 306.4 473 367 b 568.4 395.8 580.9 493.2 413 555 b 356.4 560.6 296.3 519.8 283 451 l 347 447 b 367.8 508.9 446.2 516.2 475 443 b 478.6 418.2 455.8 394.0 413 392 l 388 392 l 388 335 l 413 335 b 517.7 314.8 525.6 241.7 418 210 b 378.9 206.9 345.0 227.1 341 264 l 277 261 b 268.8 214.1 307.9 158.9 418 152"},"❹":{"ha":826,"x_min":44,"x_max":782,"o":"m 413 -12 b 209.4 -5.6 72.7 112.9 44 358 b 50.6 560.7 169.2 697.1 413 726 b 617.0 719.3 753.3 600.7 782 358 b 775.4 153.1 657.0 16.6 413 -12 m 429 250 l 429 160 l 495 160 l 495 250 l 549 250 l 549 308 l 495 308 l 495 547 l 433 547 l 249 301 l 249 250 l 429 250 m 429 308 l 319 308 l 429 451 l 429 308"},"❺":{"ha":826,"x_min":44,"x_max":782,"o":"m 413 -12 b 209.4 -5.6 72.7 112.9 44 358 b 50.6 560.7 169.2 697.1 413 726 b 617.0 719.3 753.3 600.7 782 358 b 775.4 153.1 657.0 16.6 413 -12 m 411 152 b 588.3 190.5 606.3 343.1 431 417 q 381 417 356 389 l 367 489 l 527 489 l 527 547 l 313 547 l 285 322 l 346 322 b 381.2 377.6 457.8 384.2 489 285 b 495.5 221.5 447.4 183.3 342 257 l 278 254 b 275.4 205.4 324.4 156.3 411 152"},"❻":{"ha":826,"x_min":44,"x_max":782,"o":"m 413 -12 b 209.4 -5.6 72.7 112.9 44 358 b 50.6 560.7 169.2 697.1 413 726 b 617.0 719.3 753.3 600.7 782 358 b 775.4 153.1 657.0 16.6 413 -12 m 422 152 b 604.4 191.6 623.1 359.4 432 425 b 402.7 427.3 363.3 411.0 344 383 b 378.5 517.4 467.8 527.4 501 453 l 563 459 b 521.9 585.3 380.7 596.6 293.5 443.5 b 250.9 368.1 262.5 207.9 422 152 m 423 210 b 321.1 235.5 313.6 328.7 424 367 b 527.3 345.9 536.4 253.9 423 210"},"❼":{"ha":826,"x_min":44,"x_max":782,"o":"m 413 -12 b 209.4 -5.6 72.7 112.9 44 358 b 50.6 560.7 169.2 697.1 413 726 b 617.0 719.3 753.3 600.7 782 358 b 775.4 153.1 657.0 16.6 413 -12 m 362 160 l 426 160 b 418.4 252.3 464.0 389.7 552 504 l 552 548 l 292 548 l 292 490 l 477 490 b 422.5 431.0 367.0 300.1 362 160"},"❽":{"ha":826,"x_min":44,"x_max":782,"o":"m 413 -12 b 209.4 -5.6 72.7 112.9 44 358 b 50.6 560.7 169.2 697.1 413 726 b 617.0 719.3 753.3 600.7 782 358 b 775.4 153.1 657.0 16.6 413 -12 m 417 152 b 592.4 185.5 604.8 299.5 484 369 b 569.8 399.4 582.2 499.4 417 555 b 266.3 522.4 255.7 415.8 350 369 b 239.9 319.4 225.4 211.0 417 152 m 417 396 b 321.3 478.3 364.2 514.2 461.5 484.5 b 486.1 476.5 493.5 425.9 417 396 m 417 210 b 316.2 223.6 306.4 296.2 417 336 b 518.2 311.6 527.8 236.7 417 210"},"❾":{"ha":826,"x_min":44,"x_max":782,"o":"m 413 -12 b 209.4 -5.6 72.7 112.9 44 358 b 50.6 560.7 169.2 697.1 413 726 b 617.0 719.3 753.3 600.7 782 358 b 775.4 153.1 657.0 16.6 413 -12 m 418 555 b 235.6 515.4 216.9 347.6 408 282 b 438.4 279.7 478.1 296.0 496 324 b 461.5 189.6 372.2 179.8 339 254 l 277 248 b 318.1 121.7 459.3 110.4 546.5 263.5 b 589.1 338.9 578.0 499.1 418 555 m 417 497 b 519.3 471.5 526.4 378.3 416 340 b 312.7 361.1 303.6 453.1 417 497"},"⓪":{"ha":828,"x_min":44,"x_max":784,"o":"m 413 -12 b 209.4 -5.6 72.7 112.9 44 358 b 50.6 560.7 169.2 697.1 413 726 b 617.8 719.3 754.3 600.7 784 358 b 776.7 153.1 658.0 16.6 413 -12 m 413 62 b 578.4 66.5 687.0 160.4 709 358 b 704.5 522.6 610.6 629.9 413 652 b 247.5 647.3 139.9 554.5 118 358 b 122.6 192.6 215.4 84.0 413 62 m 416 152 b 218.3 212.1 197.9 450.5 416 555 b 614.1 496.0 634.1 257.8 416 152 m 336 282 l 338 278 l 462 481 b 432.3 532.9 307.2 447.4 336 282 m 416 212 b 504.6 229.5 524.7 387.4 494 433 l 370 229 q 390 212 416 212"},"①":{"ha":828,"x_min":44,"x_max":784,"o":"m 413 -12 b 209.4 -5.6 72.7 112.9 44 358 b 50.6 560.7 169.2 697.1 413 726 b 617.8 719.3 754.3 600.7 784 358 b 776.7 153.1 658.0 16.6 413 -12 m 413 62 b 578.4 66.5 687.0 160.4 709 358 b 704.5 522.6 610.6 629.9 413 652 b 247.5 647.3 139.9 554.5 118 358 b 122.6 192.6 215.4 84.0 413 62 m 464 160 l 398 160 l 398 414 l 302 413 l 302 463 l 326 463 b 369.5 457.7 411.7 487.8 415 548 l 464 548 l 464 160"},"②":{"ha":828,"x_min":44,"x_max":784,"o":"m 413 -12 b 209.4 -5.6 72.7 112.9 44 358 b 50.6 560.7 169.2 697.1 413 726 b 617.8 719.3 754.3 600.7 784 358 b 776.7 153.1 658.0 16.6 413 -12 m 413 62 b 578.4 66.5 687.0 160.4 709 358 b 704.5 522.6 610.6 629.9 413 652 b 247.5 647.3 139.9 554.5 118 358 b 122.6 192.6 215.4 84.0 413 62 m 548 160 l 282 160 b 271.5 216.1 286.6 276.8 381 340 l 433 369 b 501.7 407.3 505.7 473.1 424 497 b 389.2 501.9 355.6 478.8 347 426 l 283 429 b 331.4 586.6 486.2 601.8 550 443 b 555.8 399.1 520.9 350.3 454 317 l 413 295 b 383.4 281.8 357.3 249.8 356 218 l 548 218 l 548 160"},"③":{"ha":828,"x_min":44,"x_max":784,"o":"m 413 -12 b 209.4 -5.6 72.7 112.9 44 358 b 50.6 560.7 169.2 697.1 413 726 b 617.8 719.3 754.3 600.7 784 358 b 776.7 153.1 658.0 16.6 413 -12 m 413 62 b 578.4 66.5 687.0 160.4 709 358 b 704.5 522.6 610.6 629.9 413 652 b 247.5 647.3 139.9 554.5 118 358 b 122.6 192.6 215.4 84.0 413 62 m 416 152 b 339.8 146.0 279.6 188.0 275 261 l 339 264 b 358.7 194.5 454.0 186.9 492 271 b 498.0 299.8 473.2 331.5 411 335 l 386 335 l 386 392 l 411 392 b 489.7 405.6 498.4 466.4 411 496 b 380.6 498.5 350.1 478.7 345 447 l 281 451 b 325.0 582.0 475.8 596.6 538 449 b 542.3 416.9 518.9 382.6 471 367 b 593.7 324.6 602.6 217.3 416 152"},"④":{"ha":828,"x_min":44,"x_max":784,"o":"m 413 -12 b 209.4 -5.6 72.7 112.9 44 358 b 50.6 560.7 169.2 697.1 413 726 b 617.8 719.3 754.3 600.7 784 358 b 776.7 153.1 658.0 16.6 413 -12 m 413 62 b 578.4 66.5 687.0 160.4 709 358 b 704.5 522.6 610.6 629.9 413 652 b 247.5 647.3 139.9 554.5 118 358 b 122.6 192.6 215.4 84.0 413 62 m 494 160 l 428 160 l 428 250 l 248 250 l 248 301 l 432 547 l 494 547 l 494 308 l 548 308 l 548 250 l 494 250 l 494 160 m 428 451 l 318 308 l 428 308 l 428 451"},"⑤":{"ha":828,"x_min":44,"x_max":784,"o":"m 413 -12 b 209.4 -5.6 72.7 112.9 44 358 b 50.6 560.7 169.2 697.1 413 726 b 617.8 719.3 754.3 600.7 784 358 b 776.7 153.1 658.0 16.6 413 -12 m 413 62 b 578.4 66.5 687.0 160.4 709 358 b 704.5 522.6 610.6 629.9 413 652 b 247.5 647.3 139.9 554.5 118 358 b 122.6 192.6 215.4 84.0 413 62 m 412 152 b 356.1 145.4 292.5 180.8 279 254 l 343 257 b 453.3 175.0 513.6 223.7 473.5 339 b 441.2 372.7 383.0 368.6 347 322 l 286 322 l 314 547 l 528 547 l 528 489 l 368 489 l 357 389 b 487.4 460.1 590.0 375.6 515.5 187 q 477 152 412 152"},"⑥":{"ha":828,"x_min":44,"x_max":784,"o":"m 413 -12 b 209.4 -5.6 72.7 112.9 44 358 b 50.6 560.7 169.2 697.1 413 726 b 617.8 719.3 754.3 600.7 784 358 b 776.7 153.1 658.0 16.6 413 -12 m 413 62 b 578.4 66.5 687.0 160.4 709 358 b 704.5 522.6 610.6 629.9 413 652 b 247.5 647.3 139.9 554.5 118 358 b 122.6 192.6 215.4 84.0 413 62 m 415 152 b 245.4 199.2 230.2 389.1 336.5 524.5 b 396.8 578.0 510.1 571.2 556 459 l 494 453 b 474.1 521.5 391.4 530.4 337 383 b 369.8 451.1 476.4 463.8 561 289 b 569.0 224.5 512.8 158.2 415 152 m 416 210 b 519.6 235.5 529.7 328.7 417 367 b 317.1 345.9 304.3 253.9 416 210"},"⑦":{"ha":828,"x_min":44,"x_max":784,"o":"m 413 -12 b 209.4 -5.6 72.7 112.9 44 358 b 50.6 560.7 169.2 697.1 413 726 b 617.8 719.3 754.3 600.7 784 358 b 776.7 153.1 658.0 16.6 413 -12 m 413 62 b 578.4 66.5 687.0 160.4 709 358 b 704.5 522.6 610.6 629.9 413 652 b 247.5 647.3 139.9 554.5 118 358 b 122.6 192.6 215.4 84.0 413 62 m 420 160 l 356 160 b 348.7 240.3 388.7 376.6 471 490 l 286 490 l 286 548 l 546 548 l 546 504 b 488.4 444.3 426.4 315.1 420 160"},"⑧":{"ha":828,"x_min":44,"x_max":784,"o":"m 413 -12 b 209.4 -5.6 72.7 112.9 44 358 b 50.6 560.7 169.2 697.1 413 726 b 617.8 719.3 754.3 600.7 784 358 b 776.7 153.1 658.0 16.6 413 -12 m 413 62 b 578.4 66.5 687.0 160.4 709 358 b 704.5 522.6 610.6 629.9 413 652 b 247.5 647.3 139.9 554.5 118 358 b 122.6 192.6 215.4 84.0 413 62 m 416 152 b 241.0 185.5 228.0 299.7 349 369 b 263.2 399.4 251.0 499.4 416 555 b 567.2 522.4 577.3 415.8 483 369 b 592.7 319.0 607.8 211.0 416 152 m 416 396 b 511.7 478.3 468.8 514.2 371.5 484.5 b 346.9 476.5 339.5 425.9 416 396 m 416 210 b 517.2 223.6 526.8 296.2 416 336 b 315.2 311.6 305.4 236.7 416 210"},"⑨":{"ha":828,"x_min":44,"x_max":784,"o":"m 413 -12 b 209.4 -5.6 72.7 112.9 44 358 b 50.6 560.7 169.2 697.1 413 726 b 617.8 719.3 754.3 600.7 784 358 b 776.7 153.1 658.0 16.6 413 -12 m 413 62 b 578.4 66.5 687.0 160.4 709 358 b 704.5 522.6 610.6 629.9 413 652 b 247.5 647.3 139.9 554.5 118 358 b 122.6 192.6 215.4 84.0 413 62 m 425 555 b 595.0 507.8 609.8 317.9 503.5 182.5 b 443.2 129.0 329.9 135.8 284 248 l 346 254 b 365.9 186.0 448.6 176.6 503 324 b 471.6 255.9 363.6 243.2 279 418 b 271.0 482.5 327.2 548.8 425 555 m 424 497 b 320.4 471.5 310.3 378.3 423 340 b 522.9 361.1 535.9 453.1 424 497"},"⁄":{"ha":170,"x_min":-200,"x_max":370,"o":"m -120 0 l -200 0 l 290 710 l 370 710 l -120 0"},"½":{"ha":800,"x_min":20,"x_max":760,"o":"m 182 323 l 116 323 l 116 577 l 20 576 l 20 626 l 44 626 b 87.5 620.7 129.7 650.8 133 711 l 182 711 l 182 323 m 162 0 l 82 0 l 572 710 l 652 710 l 162 0 m 758 0 l 492 0 b 481.5 56.1 496.6 116.8 591 180 l 643 209 b 711.7 247.3 715.7 313.1 634 337 b 599.2 341.9 565.6 318.8 557 266 l 493 269 b 541.4 426.6 696.2 441.8 760 283 b 765.8 239.1 730.9 190.3 664 157 l 623 135 b 593.4 121.8 567.3 89.8 566 58 l 758 58 l 758 0"},"⅓":{"ha":784,"x_min":20,"x_max":754,"o":"m 182 323 l 116 323 l 116 577 l 20 576 l 20 626 l 44 626 b 87.5 620.7 129.7 650.8 133 711 l 182 711 l 182 323 m 162 0 l 82 0 l 572 710 l 652 710 l 162 0 m 613 -8 b 536.8 -14.0 476.6 28.0 472 101 l 536 104 b 555.7 34.5 651.0 26.9 689 111 b 695.0 139.8 670.2 171.5 608 175 l 583 175 l 583 232 l 608 232 b 686.7 245.6 695.4 306.4 608 336 b 577.6 338.5 547.1 318.7 542 287 l 478 291 b 522.0 422.0 672.8 436.6 735 289 b 739.3 256.9 715.9 222.6 668 207 b 790.7 164.6 799.6 57.3 613 -8"},"⅔":{"ha":850,"x_min":40,"x_max":820,"o":"m 306 323 l 40 323 b 29.5 379.1 44.6 439.8 139 503 l 191 532 b 259.7 570.3 263.7 636.1 182 660 b 147.2 664.9 113.6 641.8 105 589 l 41 592 b 89.4 749.6 244.2 764.8 308 606 b 313.8 562.1 278.9 513.3 212 480 l 171 458 b 141.4 444.8 115.3 412.8 114 381 l 306 381 l 306 323 m 228 0 l 148 0 l 638 710 l 718 710 l 228 0 m 679 -8 b 602.8 -14.0 542.6 28.0 538 101 l 602 104 b 621.7 34.5 717.0 26.9 755 111 b 761.0 139.8 736.2 171.5 674 175 l 649 175 l 649 232 l 674 232 b 752.7 245.6 761.4 306.4 674 336 b 643.6 338.5 613.1 318.7 608 287 l 544 291 b 588.0 422.0 738.8 436.6 801 289 b 805.3 256.9 781.9 222.6 734 207 b 856.7 164.6 865.6 57.3 679 -8"},"¼":{"ha":732,"x_min":20,"x_max":712,"o":"m 182 323 l 116 323 l 116 577 l 20 576 l 20 626 l 44 626 b 87.5 620.7 129.7 650.8 133 711 l 182 711 l 182 323 m 162 0 l 82 0 l 572 710 l 652 710 l 162 0 m 658 0 l 592 0 l 592 90 l 412 90 l 412 141 l 596 387 l 658 387 l 658 148 l 712 148 l 712 90 l 658 90 l 658 0 m 592 291 l 482 148 l 592 148 l 592 291"},"¾":{"ha":782,"x_min":20,"x_max":762,"o":"m 161 315 b 84.8 309.0 24.6 351.0 20 424 l 84 427 b 103.7 357.5 199.0 349.9 237 434 b 243.0 462.8 218.2 494.5 156 498 l 131 498 l 131 555 l 156 555 b 234.7 568.6 243.4 629.4 156 659 b 125.6 661.5 95.1 641.7 90 610 l 26 614 b 70.0 745.0 220.8 759.6 283 612 b 287.3 579.9 263.9 545.6 216 530 b 338.7 487.6 347.6 380.3 161 315 m 212 0 l 132 0 l 622 710 l 702 710 l 212 0 m 708 0 l 642 0 l 642 90 l 462 90 l 462 141 l 646 387 l 708 387 l 708 148 l 762 148 l 762 90 l 708 90 l 708 0 m 642 291 l 532 148 l 642 148 l 642 291"},"⅕":{"ha":797,"x_min":20,"x_max":767,"o":"m 182 323 l 116 323 l 116 577 l 20 576 l 20 626 l 44 626 b 87.5 620.7 129.7 650.8 133 711 l 182 711 l 182 323 m 162 0 l 82 0 l 572 710 l 652 710 l 162 0 m 625 -8 b 569.1 -14.6 505.5 20.8 492 94 l 556 97 b 666.3 15.0 726.6 63.7 686.5 179 b 654.2 212.7 596.0 208.6 560 162 l 499 162 l 527 387 l 741 387 l 741 329 l 581 329 l 570 229 b 700.4 300.1 803.0 215.6 728.5 27 q 690 -8 625 -8"},"⅛":{"ha":802,"x_min":20,"x_max":772,"o":"m 182 323 l 116 323 l 116 577 l 20 576 l 20 626 l 44 626 b 87.5 620.7 129.7 650.8 133 711 l 182 711 l 182 323 m 162 0 l 82 0 l 572 710 l 652 710 l 162 0 m 627 -8 b 452.0 25.5 439.0 139.7 560 209 b 474.2 239.4 462.0 339.4 627 395 b 778.2 362.4 788.3 255.8 694 209 b 803.7 159.0 818.8 51.0 627 -8 m 627 236 b 722.7 318.3 679.8 354.2 582.5 324.5 b 557.9 316.5 550.5 265.9 627 236 m 627 50 b 728.2 63.6 737.8 136.2 627 176 b 526.2 151.6 516.4 76.7 627 50"},"⅜":{"ha":852,"x_min":20,"x_max":822,"o":"m 161 315 b 84.8 309.0 24.6 351.0 20 424 l 84 427 b 103.7 357.5 199.0 349.9 237 434 b 243.0 462.8 218.2 494.5 156 498 l 131 498 l 131 555 l 156 555 b 234.7 568.6 243.4 629.4 156 659 b 125.6 661.5 95.1 641.7 90 610 l 26 614 b 70.0 745.0 220.8 759.6 283 612 b 287.3 579.9 263.9 545.6 216 530 b 338.7 487.6 347.6 380.3 161 315 m 212 0 l 132 0 l 622 710 l 702 710 l 212 0 m 677 -8 b 502.0 25.5 489.0 139.7 610 209 b 524.2 239.4 512.0 339.4 677 395 b 828.2 362.4 838.3 255.8 744 209 b 853.7 159.0 868.8 51.0 677 -8 m 677 236 b 772.7 318.3 729.8 354.2 632.5 324.5 b 607.9 316.5 600.5 265.9 677 236 m 677 50 b 778.2 63.6 787.8 136.2 677 176 b 576.2 151.6 566.4 76.7 677 50"},"⅝":{"ha":865,"x_min":40,"x_max":835,"o":"m 173 315 b 117.1 308.4 53.5 343.8 40 417 l 104 420 b 214.3 338.0 274.6 386.7 234.5 502 b 202.2 535.7 144.0 531.6 108 485 l 47 485 l 75 710 l 289 710 l 289 652 l 129 652 l 118 552 b 248.4 623.1 351.0 538.6 276.5 350 q 238 315 173 315 m 225 0 l 145 0 l 635 710 l 715 710 l 225 0 m 690 -8 b 515.0 25.5 502.0 139.7 623 209 b 537.2 239.4 525.0 339.4 690 395 b 841.2 362.4 851.3 255.8 757 209 b 866.7 159.0 881.8 51.0 690 -8 m 690 236 b 785.7 318.3 742.8 354.2 645.5 324.5 b 620.9 316.5 613.5 265.9 690 236 m 690 50 b 791.2 63.6 800.8 136.2 690 176 b 589.2 151.6 579.4 76.7 690 50"},"⅞":{"ha":790,"x_min":20,"x_max":760,"o":"m 154 322 l 90 322 b 82.7 402.3 122.7 538.6 205 652 l 20 652 l 20 710 l 280 710 l 280 666 b 222.4 606.3 160.4 477.1 154 322 m 150 0 l 70 0 l 560 710 l 640 710 l 150 0 m 615 -8 b 440.0 25.5 427.0 139.7 548 209 b 462.2 239.4 450.0 339.4 615 395 b 766.2 362.4 776.3 255.8 682 209 b 791.7 159.0 806.8 51.0 615 -8 m 615 236 b 710.7 318.3 667.8 354.2 570.5 324.5 b 545.9 316.5 538.5 265.9 615 236 m 615 50 b 716.2 63.6 725.8 136.2 615 176 b 514.2 151.6 504.4 76.7 615 50"},"₀":{"ha":392,"x_min":40,"x_max":352,"o":"m 196 -108 b -1.7 -47.9 -22.1 190.5 196 295 b 394.1 236.0 414.1 -2.2 196 -108 m 116 22 l 118 18 l 242 221 b 212.3 272.9 87.2 187.4 116 22 m 196 -48 b 284.6 -30.5 304.7 127.4 274 173 l 150 -31 q 170 -48 196 -48"},"₁":{"ha":242,"x_min":20,"x_max":182,"o":"m 182 -100 l 116 -100 l 116 154 l 20 153 l 20 203 l 44 203 b 87.5 197.7 129.7 227.8 133 288 l 182 288 l 182 -100"},"₂":{"ha":348,"x_min":40,"x_max":308,"o":"m 306 -100 l 40 -100 b 29.5 -43.9 44.6 16.8 139 80 l 191 109 b 259.7 147.3 263.7 213.1 182 237 b 147.2 241.9 113.6 218.8 105 166 l 41 169 b 89.4 326.6 244.2 341.8 308 183 b 313.8 139.1 278.9 90.3 212 57 l 171 35 b 141.4 21.8 115.3 -10.2 114 -42 l 306 -42 l 306 -100"},"₃":{"ha":332,"x_min":20,"x_max":302,"o":"m 161 -108 b 84.8 -114.0 24.6 -72.0 20 1 l 84 4 b 103.7 -65.5 199.0 -73.1 237 11 b 243.0 39.8 218.2 71.5 156 75 l 131 75 l 131 132 l 156 132 b 234.7 145.6 243.4 206.4 156 236 b 125.6 238.5 95.1 218.7 90 187 l 26 191 b 70.0 322.0 220.8 336.6 283 189 b 287.3 156.9 263.9 122.6 216 107 b 338.7 64.6 347.6 -42.7 161 -108"},"₄":{"ha":330,"x_min":10,"x_max":310,"o":"m 256 -100 l 190 -100 l 190 -10 l 10 -10 l 10 41 l 194 287 l 256 287 l 256 48 l 310 48 l 310 -10 l 256 -10 l 256 -100 m 190 191 l 80 48 l 190 48 l 190 191"},"₅":{"ha":345,"x_min":40,"x_max":315,"o":"m 173 -108 b 117.1 -114.6 53.5 -79.2 40 -6 l 104 -3 b 214.3 -85.0 274.6 -36.3 234.5 79 b 202.2 112.7 144.0 108.6 108 62 l 47 62 l 75 287 l 289 287 l 289 229 l 129 229 l 118 129 b 248.4 200.1 351.0 115.6 276.5 -73 q 238 -108 173 -108"},"₆":{"ha":370,"x_min":40,"x_max":330,"o":"m 184 -108 b 14.4 -60.8 -0.8 129.1 105.5 264.5 b 165.8 318.0 279.1 311.2 325 199 l 263 193 b 243.1 261.5 160.4 270.4 106 123 b 138.8 191.1 245.4 203.8 330 29 b 338.0 -35.5 281.8 -101.8 184 -108 m 185 -50 b 288.6 -24.5 298.7 68.7 186 107 b 86.1 85.9 73.3 -6.1 185 -50"},"₇":{"ha":300,"x_min":20,"x_max":280,"o":"m 154 -100 l 90 -100 b 82.7 -19.7 122.7 116.6 205 230 l 20 230 l 20 288 l 280 288 l 280 244 b 222.4 184.3 160.4 55.1 154 -100"},"₈":{"ha":350,"x_min":30,"x_max":320,"o":"m 175 -108 b -0.0 -74.5 -13.0 39.7 108 109 b 22.2 139.4 10.0 239.4 175 295 b 326.2 262.4 336.3 155.8 242 109 b 351.7 59.0 366.8 -49.0 175 -108 m 175 136 b 270.7 218.3 227.8 254.2 130.5 224.5 b 105.9 216.5 98.5 165.9 175 136 m 175 -50 b 276.2 -36.4 285.8 36.2 175 76 b 74.2 51.6 64.4 -23.3 175 -50"},"₉":{"ha":370,"x_min":40,"x_max":330,"o":"m 186 295 b 356.0 247.8 370.8 57.9 264.5 -77.5 b 204.2 -131.0 90.9 -124.2 45 -12 l 107 -6 b 126.9 -74.0 209.6 -83.4 264 64 b 232.6 -4.1 124.6 -16.8 40 158 b 32.0 222.5 88.2 288.8 186 295 m 185 237 b 81.4 211.5 71.3 118.3 184 80 b 283.9 101.1 296.9 193.1 185 237"},"⁰":{"ha":392,"x_min":40,"x_max":352,"o":"m 196 315 b -1.7 375.1 -22.1 613.5 196 718 b 394.1 659.0 414.1 420.8 196 315 m 116 445 l 118 441 l 242 644 b 212.3 695.9 87.2 610.4 116 445 m 196 375 b 284.6 392.5 304.7 550.4 274 596 l 150 392 q 170 375 196 375"},"¹":{"ha":242,"x_min":20,"x_max":182,"o":"m 182 323 l 116 323 l 116 577 l 20 576 l 20 626 l 44 626 b 87.5 620.7 129.7 650.8 133 711 l 182 711 l 182 323"},"²":{"ha":348,"x_min":40,"x_max":308,"o":"m 306 323 l 40 323 b 29.5 379.1 44.6 439.8 139 503 l 191 532 b 259.7 570.3 263.7 636.1 182 660 b 147.2 664.9 113.6 641.8 105 589 l 41 592 b 89.4 749.6 244.2 764.8 308 606 b 313.8 562.1 278.9 513.3 212 480 l 171 458 b 141.4 444.8 115.3 412.8 114 381 l 306 381 l 306 323"},"³":{"ha":332,"x_min":20,"x_max":302,"o":"m 161 315 b 84.8 309.0 24.6 351.0 20 424 l 84 427 b 103.7 357.5 199.0 349.9 237 434 b 243.0 462.8 218.2 494.5 156 498 l 131 498 l 131 555 l 156 555 b 234.7 568.6 243.4 629.4 156 659 b 125.6 661.5 95.1 641.7 90 610 l 26 614 b 70.0 745.0 220.8 759.6 283 612 b 287.3 579.9 263.9 545.6 216 530 b 338.7 487.6 347.6 380.3 161 315"},"⁴":{"ha":330,"x_min":10,"x_max":310,"o":"m 256 323 l 190 323 l 190 413 l 10 413 l 10 464 l 194 710 l 256 710 l 256 471 l 310 471 l 310 413 l 256 413 l 256 323 m 190 614 l 80 471 l 190 471 l 190 614"},"⁵":{"ha":345,"x_min":40,"x_max":315,"o":"m 173 315 b 117.1 308.4 53.5 343.8 40 417 l 104 420 b 214.3 338.0 274.6 386.7 234.5 502 b 202.2 535.7 144.0 531.6 108 485 l 47 485 l 75 710 l 289 710 l 289 652 l 129 652 l 118 552 b 248.4 623.1 351.0 538.6 276.5 350 q 238 315 173 315"},"⁶":{"ha":370,"x_min":40,"x_max":330,"o":"m 184 315 b 14.4 362.2 -0.8 552.1 105.5 687.5 b 165.8 741.0 279.1 734.2 325 622 l 263 616 b 243.1 684.5 160.4 693.4 106 546 b 138.8 614.1 245.4 626.8 330 452 b 338.0 387.5 281.8 321.2 184 315 m 185 373 b 288.6 398.5 298.7 491.7 186 530 b 86.1 508.9 73.3 416.9 185 373"},"⁷":{"ha":300,"x_min":20,"x_max":280,"o":"m 154 322 l 90 322 b 82.7 402.3 122.7 538.6 205 652 l 20 652 l 20 710 l 280 710 l 280 666 b 222.4 606.3 160.4 477.1 154 322"},"⁸":{"ha":350,"x_min":30,"x_max":320,"o":"m 175 315 b -0.0 348.5 -13.0 462.7 108 532 b 22.2 562.4 10.0 662.4 175 718 b 326.2 685.4 336.3 578.8 242 532 b 351.7 482.0 366.8 374.0 175 315 m 175 559 b 270.7 641.3 227.8 677.2 130.5 647.5 b 105.9 639.5 98.5 588.9 175 559 m 175 373 b 276.2 386.6 285.8 459.2 175 499 b 74.2 474.6 64.4 399.7 175 373"},"⁹":{"ha":370,"x_min":40,"x_max":330,"o":"m 186 718 b 356.0 670.8 370.8 480.9 264.5 345.5 b 204.2 292.0 90.9 298.8 45 411 l 107 417 b 126.9 349.0 209.6 339.6 264 487 b 232.6 418.9 124.6 406.2 40 581 b 32.0 645.5 88.2 711.8 186 718 m 185 660 b 81.4 634.5 71.3 541.3 184 503 b 283.9 524.1 296.9 616.1 185 660"}," ":{"ha":250,"x_min":0,"x_max":0,"o":""}," ":{"ha":250,"x_min":0,"x_max":0,"o":""},".":{"ha":201,"x_min":44,"x_max":157,"o":"m 157 0 l 44 0 l 44 113 l 157 113 l 157 0"},",":{"ha":201,"x_min":44,"x_max":157,"o":"m 97 -156 l 47 -156 l 95 0 l 44 0 l 44 113 l 157 113 l 157 14 l 97 -156"},":":{"ha":297,"x_min":92,"x_max":205,"o":"m 205 0 l 92 0 l 92 113 l 205 113 l 205 0 m 205 393 l 92 393 l 92 506 l 205 506 l 205 393"},";":{"ha":297,"x_min":92,"x_max":205,"o":"m 205 393 l 92 393 l 92 506 l 205 506 l 205 393 m 145 -156 l 95 -156 l 143 0 l 92 0 l 92 113 l 205 113 l 205 14 l 145 -156"},"…":{"ha":571,"x_min":44,"x_max":527,"o":"m 157 0 l 44 0 l 44 113 l 157 113 l 157 0 m 342 0 l 229 0 l 229 113 l 342 113 l 342 0 m 527 0 l 414 0 l 414 113 l 527 113 l 527 0"},"!":{"ha":213,"x_min":50,"x_max":163,"o":"m 138 205 l 83 205 b 78.4 251.1 71.0 354.0 67 480 l 67 710 l 153 710 l 153 480 b 153.3 425.2 147.6 319.4 138 205 m 163 0 l 50 0 l 50 113 l 163 113 l 163 0"},"¡":{"ha":213,"x_min":50,"x_max":163,"o":"m 50 435 l 50 548 l 163 548 l 163 435 l 50 435 m 153 -162 l 67 -162 l 67 68 b 66.9 122.8 73.5 228.6 83 343 l 138 343 b 142.7 296.9 149.9 194.0 153 68 l 153 -162"},"?":{"ha":559,"x_min":44,"x_max":515,"o":"m 320 201 l 234 201 b 257.6 359.9 371.6 431.0 418 471.5 b 463.5 563.1 391.5 671.7 181.5 604 q 142 566 134 494 l 44 500 b 68.0 679.4 199.9 763.5 409.5 700 b 547.4 614.7 562.9 464.4 389 338 b 349.7 320.0 320.0 275.8 320 201 m 331 0 l 218 0 l 218 113 l 331 113 l 331 0"},"¿":{"ha":559,"x_min":44,"x_max":515,"o":"m 228 564 l 341 564 l 341 451 l 228 451 l 228 564 m 264 -162 b 87.7 -151.1 5.6 -38.9 75 144.5 b 146.1 200.2 233.9 257.6 239 363 l 325 363 b 301.3 204.1 187.5 133.0 141.5 92.5 b 95.3 0.9 167.2 -107.7 378 -40 q 418 -2 425 70 l 515 64 b 520.1 -35.3 448.6 -134.6 264 -162"},"·":{"ha":201,"x_min":44,"x_max":157,"o":"m 157 248 l 44 248 l 44 361 l 157 361 l 157 248"},"•":{"ha":312,"x_min":44,"x_max":268,"o":"m 156 203 b 12.9 238.1 -0.9 360.3 156 420 b 298.7 384.8 312.8 262.4 156 203"},"*":{"ha":430,"x_min":44,"x_max":386,"o":"m 215 488 l 149 382 l 97 416 l 164 518 l 44 518 l 44 582 l 164 582 l 97 684 l 149 718 l 215 611 l 282 718 l 334 684 l 266 582 l 386 582 l 386 518 l 266 518 l 334 416 l 282 382 l 215 488"},"〃":{"ha":368,"x_min":44,"x_max":324,"o":"m 234 281 l 169 281 l 231 481 l 324 481 l 234 281 m 109 281 l 44 281 l 107 481 l 199 481 l 109 281"},"#":{"ha":478,"x_min":-10,"x_max":483,"o":"m 108 0 l 36 0 l 73 197 l -10 197 l 2 267 l 86 267 l 118 440 l 30 440 l 42 510 l 131 510 l 168 710 l 240 710 l 203 510 l 329 510 l 366 710 l 438 710 l 401 510 l 483 510 l 471 440 l 388 440 l 356 267 l 443 267 l 431 197 l 343 197 l 306 0 l 234 0 l 271 197 l 145 197 l 108 0 m 190 440 l 158 267 l 284 267 l 316 440 l 190 440"},"/":{"ha":480,"x_min":40,"x_max":415,"o":"m 120 -110 l 40 -110 l 335 750 l 415 750 l 120 -110"},"\\":{"ha":455,"x_min":40,"x_max":415,"o":"m 120 750 l 415 -110 l 335 -110 l 40 750 l 120 750"},"-":{"ha":419,"x_min":44,"x_max":375,"o":"m 375 252 l 44 252 l 44 331 l 375 331 l 375 252"},"–":{"ha":591,"x_min":44,"x_max":547,"o":"m 547 253 l 44 253 l 44 331 l 547 331 l 547 253"},"—":{"ha":907,"x_min":44,"x_max":863,"o":"m 863 253 l 44 253 l 44 331 l 863 331 l 863 253"},"_":{"ha":557,"x_min":44,"x_max":513,"o":"m 513 -78 l 44 -78 l 44 0 l 513 0 l 513 -78"},"〜":{"ha":849,"x_min":44,"x_max":805,"o":"m 594 205 b 519.3 207.4 453.1 241.1 335 298.5 b 292.0 327.4 206.8 322.1 86 220 l 44 282 b 143.8 378.9 226.8 407.2 344.5 375.5 b 479.4 314.0 539.7 281.5 591 283 b 626.0 276.3 687.8 302.2 763 371 l 805 309 q 696 205 594 205"},"(":{"ha":274,"x_min":45,"x_max":259,"o":"m 259 -110 l 184 -110 b 27.6 69.0 -11.5 422.1 184 750 l 259 750 b 80.4 404.7 95.5 141.9 259 -110"},")":{"ha":274,"x_min":15,"x_max":229,"o":"m 90 -110 l 15 -110 b 130.6 -6.5 202.5 176.6 15 750 l 90 750 b 246.4 571.8 285.5 218.4 90 -110"},"{":{"ha":389,"x_min":45,"x_max":374,"o":"m 374 -115 l 318 -115 b 239.5 -124.8 156.4 -60.0 148 57 l 148 140 b 154.7 204.5 119.5 270.1 45 276 l 45 359 b 94.5 350.5 143.8 398.7 148 495 l 148 578 b 137.6 653.7 198.5 739.9 318 750 l 374 750 l 374 672 b 296.2 682.4 230.5 656.0 228 580 l 228 488 b 233.7 415.4 188.7 339.6 116 319 l 116 318 b 163.0 318.3 220.4 258.5 228 147 l 228 55 b 217.0 3.5 260.4 -38.3 374 -37 l 374 -115"},"}":{"ha":389,"x_min":15,"x_max":344,"o":"m 71 -115 l 15 -115 l 15 -37 b 93.8 -46.2 158.9 -19.6 161 55 l 161 147 b 155.1 219.9 199.3 297.9 273 318 l 273 319 b 227.0 319.6 169.1 377.4 161 488 l 161 580 b 172.2 632.6 129.6 674.8 15 672 l 15 750 l 71 750 b 150.4 759.8 233.1 695.0 241 578 l 241 495 b 234.5 431.5 270.5 365.3 344 359 l 344 276 b 295.4 284.7 245.6 237.3 241 140 l 241 57 b 251.6 -18.7 191.4 -104.9 71 -115"},"[":{"ha":347,"x_min":92,"x_max":332,"o":"m 332 -40 l 332 -110 l 92 -110 l 92 750 l 332 750 l 332 680 l 172 680 l 172 -40 l 332 -40"},"]":{"ha":347,"x_min":15,"x_max":255,"o":"m 255 -110 l 15 -110 l 15 -40 l 175 -40 l 175 680 l 15 680 l 15 750 l 255 750 l 255 -110"},"‚":{"ha":201,"x_min":44,"x_max":157,"o":"m 97 -156 l 47 -156 l 95 0 l 44 0 l 44 113 l 157 113 l 157 14 l 97 -156"},"„":{"ha":366,"x_min":44,"x_max":322,"o":"m 262 -156 l 212 -156 l 260 0 l 209 0 l 209 113 l 322 113 l 322 14 l 262 -156 m 97 -156 l 47 -156 l 95 0 l 44 0 l 44 113 l 157 113 l 157 14 l 97 -156"},"“":{"ha":368,"x_min":45,"x_max":323,"o":"m 105 726 l 155 726 l 107 570 l 158 570 l 158 457 l 45 457 l 45 556 l 105 726 m 270 726 l 320 726 l 272 570 l 323 570 l 323 457 l 210 457 l 210 556 l 270 726"},"”":{"ha":368,"x_min":45,"x_max":323,"o":"m 263 441 l 213 441 l 261 597 l 210 597 l 210 710 l 323 710 l 323 611 l 263 441 m 98 441 l 48 441 l 96 597 l 45 597 l 45 710 l 158 710 l 158 611 l 98 441"},"‘":{"ha":203,"x_min":45,"x_max":158,"o":"m 105 726 l 155 726 l 107 570 l 158 570 l 158 457 l 45 457 l 45 556 l 105 726"},"’":{"ha":203,"x_min":45,"x_max":158,"o":"m 98 441 l 48 441 l 96 597 l 45 597 l 45 710 l 158 710 l 158 611 l 98 441"},"«":{"ha":533,"x_min":44,"x_max":489,"o":"m 115 276 l 287 76 l 184 76 l 44 239 l 44 313 l 184 476 l 287 476 l 115 276 m 317 276 l 489 76 l 386 76 l 246 239 l 246 313 l 386 476 l 489 476 l 317 276"},"»":{"ha":537,"x_min":39,"x_max":484,"o":"m 344 76 l 241 76 l 413 276 l 241 476 l 344 476 l 484 313 l 484 239 l 344 76 m 142 76 l 39 76 l 211 276 l 39 476 l 142 476 l 282 313 l 282 239 l 142 76"},"‹":{"ha":331,"x_min":44,"x_max":287,"o":"m 115 276 l 287 76 l 184 76 l 44 239 l 44 313 l 184 476 l 287 476 l 115 276"},"›":{"ha":331,"x_min":44,"x_max":287,"o":"m 147 76 l 44 76 l 216 276 l 44 476 l 147 476 l 287 313 l 287 239 l 147 76"},"\"":{"ha":346,"x_min":45,"x_max":301,"o":"m 127 444 l 65 444 l 45 630 l 45 710 l 133 710 l 127 444 m 281 444 l 219 444 l 213 710 l 301 710 l 301 630 l 281 444"},"'":{"ha":178,"x_min":45,"x_max":133,"o":"m 117 444 l 61 444 l 45 630 l 45 710 l 133 710 l 133 630 l 117 444"},"ƒ":{"ha":511,"x_min":60,"x_max":472,"o":"m 116 -1 l 60 0 l 60 74 l 124 74 q 180 74 186 129 l 222 456 l 143 456 l 143 530 l 230 530 l 235 576 q 250 711 385 710 l 472 709 l 472 636 l 378 636 q 323 636 317 580 l 311 530 l 472 530 l 472 456 l 303 456 l 267 133 b 269.3 66.5 217.0 2.6 116 -1"},"฿":{"ha":650,"x_min":92,"x_max":588,"o":"m 263 0 l 92 0 l 92 710 l 263 710 l 263 805 l 338 805 l 338 709 b 604.7 637.1 624.7 447.8 432 367 b 644.7 311.5 669.3 112.7 347 0 l 338 0 l 338 -91 l 263 -91 l 263 0 m 178 626 l 178 403 l 263 403 l 263 626 l 178 626 m 468 513 b 476.5 559.8 431.9 611.9 338 625 l 338 404 b 400.4 403.4 462.7 441.6 468 513 m 178 319 l 178 84 l 263 84 l 263 319 l 178 319 m 347 319 l 338 319 l 338 84 l 347 84 b 539.3 118.0 558.7 258.1 347 319"},"☹":{"ha":828,"x_min":44,"x_max":784,"o":"m 413 -12 b 209.4 -5.6 72.7 112.9 44 358 b 50.6 560.7 169.2 697.1 413 726 b 617.8 719.3 754.3 600.7 784 358 b 776.7 153.1 658.0 16.6 413 -12 m 413 62 b 578.4 66.5 687.0 160.4 709 358 b 704.5 522.6 610.6 629.9 413 652 b 247.5 647.3 139.9 554.5 118 358 b 122.6 192.6 215.4 84.0 413 62 m 318 415 b 255.2 432.4 248.4 486.1 318 513 b 379.3 496.8 386.1 443.6 318 415 m 522 415 b 459.2 432.4 452.4 486.1 522 513 b 583.3 496.8 590.1 443.6 522 415 m 289 203 l 217 203 b 303.2 416.6 494.2 437.9 621 203 l 549 203 b 488.0 331.5 374.7 343.4 289 203"},"☺":{"ha":828,"x_min":44,"x_max":784,"o":"m 413 -12 b 209.4 -5.6 72.7 112.9 44 358 b 50.6 560.7 169.2 697.1 413 726 b 617.8 719.3 754.3 600.7 784 358 b 776.7 153.1 658.0 16.6 413 -12 m 413 62 b 578.4 66.5 687.0 160.4 709 358 b 704.5 522.6 610.6 629.9 413 652 b 247.5 647.3 139.9 554.5 118 358 b 122.6 192.6 215.4 84.0 413 62 m 318 415 b 255.2 432.4 248.4 486.1 318 513 b 379.3 496.8 386.1 443.6 318 415 m 522 415 b 459.2 432.4 452.4 486.1 522 513 b 583.3 496.8 590.1 443.6 522 415 m 419 163 b 337.6 153.4 247.0 209.2 204 350 l 273 350 b 336.1 198.7 472.4 182.8 565 350 l 635 350 b 632.9 268.9 565.4 186.7 419 163"},"":{"ha":600,"x_min":8,"x_max":592,"o":"m 495 0 l 105 0 b 63.1 -5.4 14.1 31.9 8 97 l 8 487 b 2.6 528.9 39.9 577.9 105 584 l 495 584 b 536.9 589.4 585.9 552.1 592 487 l 592 97 b 597.4 55.1 560.1 6.1 495 0 m 299 495 l 86 124 l 513 124 l 299 495"},"@":{"ha":906,"x_min":45,"x_max":861,"o":"m 615 0 l 632 -68 b 310.8 -178.4 86.0 -91.9 45 250 b 48.0 515.5 184.3 680.3 488 710 b 786.5 688.1 917.4 488.1 837 212 b 748.6 54.7 623.7 42.0 569 159 l 569 163 b 492.4 40.5 331.2 23.1 234 260 b 248.6 445.8 368.3 538.2 524.5 484.5 q 559 467 575 439 l 576 436 l 581 500 l 654 500 l 638 290 b 611.4 209.2 607.6 122.7 760 202 b 871.6 460.0 693.7 705.1 293 591 b 49.0 421.0 19.2 100.5 412 -40 q 524 -40 615 0 m 426 144 b 551.5 159.1 598.4 251.2 543 400 b 413.8 473.5 329.3 421.2 316 266 b 307.4 214.1 339.0 152.0 426 144"},"&":{"ha":620,"x_min":40,"x_max":600,"o":"m 260 -16 b 6.2 44.3 -12.3 224.1 96.5 324 q 127 357 180 394 b 71.5 494.2 56.5 641.6 282 726 b 491.8 689.1 512.4 530.9 300 373 l 462 166 q 498 216 498 318 l 582 310 b 584.8 255.0 559.6 162.9 515 103 l 600 0 l 499 0 l 462 45 b 443.1 17.2 368.2 -12.9 260 -16 m 254 434 b 385.6 522.2 393.4 615.4 282 642 b 179.1 626.8 169.7 543.9 254 434 m 270 64 b 318.1 61.7 377.4 78.0 406 106 l 230 328 b 92.9 235.3 79.6 114.9 270 64"},"¶":{"ha":596,"x_min":45,"x_max":504,"o":"m 356 0 l 276 0 l 276 306 b 90.3 313.1 5.7 422.1 74 615.5 b 93.7 660.6 171.8 706.0 276 710 l 504 710 l 504 0 l 424 0 l 424 634 l 356 634 l 356 0"},"§":{"ha":549,"x_min":55,"x_max":494,"o":"m 284 -64 b 184.6 -73.1 88.2 -19.4 55 115 l 142 121 b 193.0 -7.4 356.4 -19.0 405 90 b 381.4 148.5 165.6 189.1 72 332 q 72 419 166 460 b -8.6 642.8 127.8 772.0 425.5 681 q 482 636 493 556 l 407 550 b 351.5 668.7 217.2 678.1 163 576 b 176.5 518.8 355.6 475.3 475.5 397 b 506.9 376.6 516.6 290.0 410 210 b 519.1 152.2 528.9 42.5 391.5 -45 q 345 -64 284 -64 m 313 248 b 440.5 271.5 451.9 357.6 327.5 409.5 b 211.2 439.7 127.6 387.6 166.5 297.5 b 172.4 276.1 223.1 251.1 313 248"},"©":{"ha":828,"x_min":45,"x_max":783,"o":"m 414 -12 b 210.4 -5.4 73.7 113.2 45 357 b 51.6 561.0 170.2 697.3 414 726 b 618.0 719.4 754.3 601.0 783 357 b 776.4 153.4 658.0 16.7 414 -12 m 414 68 b 570.9 73.5 677.6 165.4 701 357 b 695.1 517.2 602.0 623.2 414 646 b 256.1 640.5 150.2 548.6 127 357 b 132.8 196.8 224.9 90.8 414 68 m 418 144 b 256.5 154.6 180.5 271.3 241 466.5 b 331.2 591.5 470.5 602.5 572 494 q 597 459 601 414 l 523 409 b 484.8 527.2 364.9 541.9 293 357 b 335.8 186.1 463.5 170.2 527 312 l 605 307 b 606.7 236.0 549.7 164.0 418 144"},"®":{"ha":635,"x_min":45,"x_max":590,"o":"m 318 179 b 166.4 184.6 66.0 271.9 45 453 b 49.7 604.6 136.7 705.0 318 726 b 468.7 721.3 568.9 634.3 590 453 b 585.2 301.5 498.1 201.1 318 179 m 318 236 b 489.8 251.7 569.6 371.5 505.5 561 b 415.5 697.0 255.6 710.6 129.5 561 b 60.4 408.2 117.7 274.6 318 236 m 265 303 l 209 303 l 209 601 l 308 601 b 455.7 573.3 467.4 477.6 366 427 l 443 303 l 380 303 l 311 420 l 265 420 l 265 303 m 265 554 l 265 466 l 316 466 b 370.3 462.3 406.0 491.6 316 554 l 265 554"},"℗":{"ha":635,"x_min":45,"x_max":590,"o":"m 318 179 b 166.4 184.6 66.0 271.9 45 453 b 49.7 604.6 136.7 705.0 318 726 b 468.7 721.3 568.9 634.3 590 453 b 585.2 301.5 498.1 201.1 318 179 m 318 236 b 489.8 251.7 569.6 371.5 505.5 561 b 415.5 697.0 255.6 710.6 129.5 561 b 60.4 408.2 117.7 274.6 318 236 m 283 303 l 227 303 l 227 601 l 326 601 b 483.1 574.5 498.3 463.0 326 420 l 283 420 l 283 303 m 283 554 l 283 466 l 334 466 b 388.3 462.3 424.0 491.6 334 554 l 283 554"},"™":{"ha":894,"x_min":92,"x_max":802,"o":"m 480 359 l 422 359 l 422 710 l 502 710 l 612 419 l 723 710 l 802 710 l 802 359 l 744 359 l 744 620 l 649 359 l 575 359 l 480 620 l 480 359 m 264 359 l 204 359 l 204 654 l 92 654 l 92 710 l 375 710 l 375 654 l 264 654 l 264 359"},"°":{"ha":404,"x_min":44,"x_max":360,"o":"m 202 410 b 79.9 420.0 17.2 505.8 65.5 649 b 135.3 747.2 243.9 756.8 338.5 649 b 390.8 533.3 344.9 436.2 202 410 m 202 484 b 307.3 510.7 318.6 606.8 202 654 b 97.1 626.2 85.4 529.5 202 484"},"′":{"ha":211,"x_min":40,"x_max":171,"o":"m 116 482 l 40 482 l 86 710 l 171 710 l 116 482"},"″":{"ha":333,"x_min":40,"x_max":293,"o":"m 116 482 l 40 482 l 86 710 l 171 710 l 116 482 m 238 482 l 162 482 l 208 710 l 293 710 l 238 482"},"|":{"ha":264,"x_min":92,"x_max":172,"o":"m 172 -110 l 92 -110 l 92 750 l 172 750 l 172 -110"},"¦":{"ha":264,"x_min":92,"x_max":172,"o":"m 172 395 l 92 395 l 92 750 l 172 750 l 172 395 m 172 -110 l 92 -110 l 92 245 l 172 245 l 172 -110"},"†":{"ha":584,"x_min":92,"x_max":492,"o":"m 332 0 l 252 0 l 252 454 l 92 454 l 92 530 l 252 530 l 252 710 l 332 710 l 332 530 l 492 530 l 492 454 l 332 454 l 332 0"},"‡":{"ha":584,"x_min":92,"x_max":492,"o":"m 252 172 l 92 172 l 92 248 l 252 248 l 252 454 l 92 454 l 92 530 l 252 530 l 252 710 l 332 710 l 332 530 l 492 530 l 492 454 l 332 454 l 332 248 l 492 248 l 492 172 l 332 172 l 332 0 l 252 0 l 252 172"},"№":{"ha":1154,"x_min":92,"x_max":1062,"o":"m 178 0 l 92 0 l 92 710 l 214 710 l 565 86 l 565 710 l 651 710 l 651 0 l 523 0 l 178 612 l 178 0 m 893 166 b 676.8 219.3 655.3 423.1 893 516 b 1107.7 461.7 1129.3 258.9 893 166 m 893 231 b 1001.9 262.8 1012.3 393.3 893 451 b 782.6 417.2 772.3 288.7 893 231 m 1033 0 l 753 0 l 753 74 l 1033 74 l 1033 0"},"¢":{"ha":546,"x_min":44,"x_max":512,"o":"m 282 -12 l 212 -12 l 221 88 b 7.2 200.8 -10.9 440.7 149 593.5 q 199 629 267 633 l 275 726 l 345 726 l 337 630 b 405.8 628.3 487.2 563.9 512 450 l 424 444 b 421.9 483.3 386.5 530.7 330 549 l 297 160 b 345.5 155.2 405.1 195.7 424 280 l 512 274 b 510.8 186.5 426.6 90.4 290 80 l 282 -12 m 132 357 b 125.9 288.1 159.2 204.0 228 171 l 260 552 b 199.5 554.1 137.7 482.7 132 357"},"¤":{"ha":624,"x_min":45,"x_max":579,"o":"m 193 173 l 101 81 l 45 136 l 138 229 b 90.5 296.0 86.3 377.9 138 466 l 45 559 l 101 614 l 194 522 b 261.1 568.0 343.1 572.4 430 522 l 523 614 l 579 559 l 486 466 b 533.1 398.0 537.9 315.8 486 229 l 579 136 l 523 81 l 431 173 b 362.7 125.5 281.1 121.1 193 173 m 312 206 b 420.2 215.7 476.9 293.1 433.5 418 b 371.1 507.0 274.1 515.9 190 418 b 143.6 317.2 183.9 230.4 312 206"},"$":{"ha":629,"x_min":55,"x_max":574,"o":"m 359 -90 l 285 -90 l 285 -13 b 185.9 -13.5 76.7 75.9 55 222 l 143 228 b 143.5 163.9 192.9 91.5 285 71 l 285 322 b 87.2 354.7 21.1 431.3 127.5 652.5 q 185 707 285 711 l 285 800 l 359 800 l 359 707 b 444.6 702.0 537.0 618.2 560 490 l 471 484 b 470.9 531.8 432.7 594.7 359 621 l 359 387 b 623.3 283.4 635.2 120.7 471 15.5 q 422 -10 359 -15 l 359 -90 m 158 517 b 146.3 479.4 170.7 442.7 285 407 l 285 629 b 226.4 631.4 164.3 590.0 158 517 m 486 176 b 498.1 212.3 474.8 255.6 359 301 l 359 68 b 418.5 66.5 480.2 104.4 486 176"},"€":{"ha":727,"x_min":55,"x_max":687,"o":"m 152 235 l 55 235 l 55 309 l 141 309 b 138.9 330.3 138.4 363.5 140 384 l 140 389 l 55 389 l 55 463 l 150 463 b 199.6 674.0 341.2 769.5 545 697 b 593.5 677.0 654.4 601.6 681 502 l 591 496 b 525.4 686.2 360.7 707.1 241 463 l 476 463 l 465 389 l 230 389 b 228.7 376.1 228.4 345.2 231 309 l 456 309 l 445 235 l 243 235 b 325.8 24.1 497.4 3.4 595 230 l 687 224 b 651.5 33.8 524.2 -57.0 304.5 15.5 b 251.0 36.6 183.3 120.6 152 235"},"₴":{"ha":665,"x_min":55,"x_max":610,"o":"m 610 389 l 55 389 l 55 463 l 454 463 b 521.2 570.9 442.9 671.3 250.5 611.5 q 215 581 191 525 l 96 534 b 196.7 779.7 451.0 804.2 569 527 b 570.0 509.6 562.5 481.5 550 463 l 610 463 l 610 389 m 326 -12 b 148.1 0.5 68.7 105.6 115 235 l 55 235 l 55 309 l 610 309 l 610 235 l 209 235 b 169.6 211.6 160.6 140.1 321 72 b 374.0 65.8 448.0 103.5 484 175 l 583 167 b 571.7 85.5 472.4 -2.7 326 -12"},"₱":{"ha":680,"x_min":30,"x_max":650,"o":"m 196 0 l 110 0 l 110 374 l 30 374 l 30 444 l 110 444 l 110 494 l 30 494 l 30 564 l 110 564 l 110 710 l 319 710 b 407.1 719.5 514.1 669.7 556 564 l 650 564 l 650 494 l 569 494 b 570.1 484.7 570.4 465.7 569 447 l 569 444 l 650 444 l 650 374 l 556 374 b 544.4 303.7 456.6 233.8 319 228 l 196 228 l 196 0 m 319 626 l 196 626 l 196 564 l 459 564 q 423 626 319 626 m 479 493 l 479 494 l 196 494 l 196 444 l 479 444 b 480.1 456.0 480.4 477.5 479 493 m 196 374 l 196 312 l 319 312 q 421 312 458 374 l 196 374"},"₽":{"ha":714,"x_min":40,"x_max":662,"o":"m 156 122 l 40 122 l 40 196 l 156 196 l 156 710 l 411 710 b 731.8 647.8 762.8 390.2 411 276 l 242 276 l 242 196 l 426 196 l 426 122 l 242 122 l 242 0 l 156 0 l 156 122 m 242 626 l 242 360 l 411 360 b 592.1 367.6 637.4 562.5 411 626 l 242 626"},"₹":{"ha":680,"x_min":92,"x_max":618,"o":"m 513 0 l 390 0 l 92 276 l 92 360 l 286 360 q 419 360 443 452 l 444 455 l 92 455 l 92 531 l 444 531 q 423 626 286 626 l 92 626 l 92 710 l 618 710 l 618 634 l 482 634 b 501.0 618.6 523.8 579.3 534 531 l 618 531 l 618 455 l 534 455 b 536.2 370.7 446.1 284.0 286 276 l 210 276 l 513 0"},"₪":{"ha":773,"x_min":92,"x_max":681,"o":"m 532 0 l 260 0 l 260 555 l 346 555 l 346 83 l 534 83 b 562.8 79.4 592.3 102.2 595 145 l 595 710 l 681 710 l 681 150 b 690.1 81.4 636.5 7.7 532 0 m 178 0 l 92 0 l 92 710 l 364 710 b 432.5 719.1 505.6 664.7 513 560 l 513 155 l 427 155 l 427 565 b 430.9 593.8 409.5 624.0 366 627 l 178 627 l 178 0"},"£":{"ha":611,"x_min":55,"x_max":564,"o":"m 552 0 l 56 0 l 56 82 b 187.5 207.6 194.6 313.9 169 317 l 55 317 l 55 391 l 152 391 b 103.3 475.8 94.9 577.8 226 700 b 387.1 761.0 527.0 708.2 564 550 l 464 543 b 406.7 675.4 279.4 687.2 212 515 b 210.4 497.7 219.8 451.1 238 391 l 416 391 l 416 317 l 250 317 b 259.0 233.6 230.5 137.4 142 87 l 552 87 l 552 0"},"¥":{"ha":576,"x_min":-6,"x_max":582,"o":"m 245 143 l 88 143 l 88 221 l 245 221 l 245 290 l 244 291 l 88 291 l 88 369 l 198 369 l -6 710 l 96 710 l 288 378 l 480 710 l 582 710 l 378 369 l 542 369 l 542 291 l 332 291 l 331 290 l 331 221 l 542 221 l 542 143 l 331 143 l 331 0 l 245 0 l 245 143"},"+":{"ha":558,"x_min":40,"x_max":518,"o":"m 318 56 l 240 56 l 240 256 l 40 256 l 40 334 l 240 334 l 240 534 l 318 534 l 318 334 l 518 334 l 518 256 l 318 256 l 318 56"},"−":{"ha":520,"x_min":40,"x_max":480,"o":"m 480 256 l 40 256 l 40 334 l 480 334 l 480 256"},"×":{"ha":502,"x_min":40,"x_max":462,"o":"m 95 84 l 40 139 l 196 295 l 40 451 l 95 506 l 251 350 l 407 506 l 462 451 l 306 295 l 462 139 l 407 84 l 251 240 l 95 84"},"÷":{"ha":540,"x_min":40,"x_max":500,"o":"m 270 414 b 188.3 434.2 180.4 503.8 270 538 b 351.7 517.8 359.6 448.2 270 414 m 500 256 l 40 256 l 40 334 l 500 334 l 500 256 m 270 52 b 188.3 72.2 180.4 141.8 270 176 b 351.7 155.8 359.6 86.2 270 52"},"=":{"ha":540,"x_min":40,"x_max":500,"o":"m 500 363 l 40 363 l 40 441 l 500 441 l 500 363 m 500 157 l 40 157 l 40 235 l 500 235 l 500 157"},"≠":{"ha":540,"x_min":40,"x_max":500,"o":"m 227 37 l 157 37 l 193 157 l 40 157 l 40 235 l 216 235 l 254 363 l 40 363 l 40 441 l 277 441 l 313 561 l 383 561 l 347 441 l 500 441 l 500 363 l 324 363 l 286 235 l 500 235 l 500 157 l 263 157 l 227 37"},">":{"ha":544,"x_min":50,"x_max":504,"o":"m 504 236 l 50 32 l 50 116 l 437 289 l 50 462 l 50 546 l 504 342 l 504 236"},"<":{"ha":544,"x_min":40,"x_max":494,"o":"m 494 116 l 494 32 l 40 236 l 40 342 l 494 546 l 494 462 l 107 289 l 494 116"},"≥":{"ha":544,"x_min":50,"x_max":504,"o":"m 504 276 l 50 112 l 50 196 l 434 329 l 50 462 l 50 546 l 504 382 l 504 276 m 504 0 l 50 0 l 50 74 l 504 74 l 504 0"},"≤":{"ha":544,"x_min":40,"x_max":494,"o":"m 494 196 l 494 112 l 40 276 l 40 382 l 494 546 l 494 462 l 110 329 l 494 196 m 494 74 l 494 0 l 40 0 l 40 74 l 494 74"},"±":{"ha":538,"x_min":40,"x_max":498,"o":"m 308 106 l 230 106 l 230 296 l 40 296 l 40 374 l 230 374 l 230 564 l 308 564 l 308 374 l 498 374 l 498 296 l 308 296 l 308 106 m 498 0 l 40 0 l 40 74 l 498 74 l 498 0"},"≈":{"ha":523,"x_min":40,"x_max":483,"o":"m 352 126 b 276.1 140.1 214.8 216.1 192.5 240 b 190.7 260.2 151.6 268.1 119 136 l 40 136 b 84.4 349.6 208.9 367.6 279 256 b 306.7 191.4 332.8 159.9 404 310 l 483 310 b 490.7 228.4 442.2 136.5 352 126 m 352 346 b 276.1 360.1 214.8 436.1 192.5 460 b 190.7 480.2 151.6 488.1 119 356 l 40 356 b 84.4 569.6 208.9 587.6 279 476 b 306.7 411.4 332.8 379.9 404 530 l 483 530 b 490.7 448.4 442.2 356.5 352 346"},"~":{"ha":523,"x_min":40,"x_max":483,"o":"m 352 236 b 276.1 250.1 214.8 326.1 192.5 350 b 190.7 370.2 151.6 378.1 119 246 l 40 246 b 84.4 459.6 208.9 477.6 279 366 b 306.7 301.4 332.8 269.9 404 420 l 483 420 b 490.7 338.4 442.2 246.5 352 236"},"¬":{"ha":500,"x_min":40,"x_max":460,"o":"m 460 66 l 386 66 l 386 242 l 40 242 l 40 316 l 460 316 l 460 66"},"^":{"ha":426,"x_min":40,"x_max":386,"o":"m 122 383 l 40 383 l 160 673 l 266 673 l 386 383 l 304 383 l 213 598 l 122 383"},"∞":{"ha":827,"x_min":40,"x_max":787,"o":"m 213 95 b 79.3 100.6 10.7 195.5 63.5 363.5 b 73.2 444.0 139.9 499.5 414 324 b 523.7 477.4 669.3 488.0 764 359.5 b 820.8 234.3 777.4 126.3 614 95 b 562.9 84.7 482.9 117.7 414 219 b 386.3 158.6 306.2 99.7 213 95 m 223 171 b 260.5 164.4 324.2 198.2 374 271 b 280.2 399.1 168.9 409.9 128 271 b 122.4 223.4 157.4 175.3 223 171 m 607 171 b 724.3 207.7 735.8 313.5 607 370 q 522 371 453 269 b 479.9 222.2 540.8 174.2 607 171"},"∫":{"ha":378,"x_min":0,"x_max":378,"o":"m 46 -150 l 0 -150 l 7 -76 l 55 -76 b 81.1 -80.7 108.5 -66.2 116 -20 l 181 576 q 196 710 332 710 l 378 710 l 371 636 l 325 636 q 269 636 263 580 l 197 -16 b 199.8 -82.3 150.0 -145.4 46 -150"},"∆":{"ha":649,"x_min":20,"x_max":629,"o":"m 629 0 l 20 0 l 20 78 l 269 710 l 381 710 l 629 78 l 629 0 m 325 639 l 103 78 l 546 78 l 325 639"},"∏":{"ha":590,"x_min":12,"x_max":578,"o":"m 202 -150 l 124 -150 l 124 632 l 12 632 l 12 710 l 578 710 l 578 632 l 470 632 l 470 -150 l 392 -150 l 392 632 l 202 632 l 202 -150"},"∑":{"ha":532,"x_min":28,"x_max":504,"o":"m 504 0 l 28 0 l 28 84 l 210 355 l 28 626 l 28 710 l 504 710 l 504 626 l 123 626 l 308 355 l 123 84 l 504 84 l 504 0"},"√":{"ha":660,"x_min":22,"x_max":638,"o":"m 252 -150 l 153 -150 l 22 336 l 102 336 l 199 -28 l 358 710 l 638 710 l 638 636 l 422 636 l 252 -150"},"∂":{"ha":526,"x_min":44,"x_max":481,"o":"m 253 -11 b 3.4 66.1 -15.6 303.6 145 435.5 b 225.8 481.3 320.5 474.8 397 409 b 390.3 503.4 292.5 608.1 103 650 l 123 726 b 376.2 677.3 484.6 541.4 481 277 b 493.0 139.8 425.5 16.4 253 -11 m 253 59 b 373.9 53.2 431.8 157.1 364.5 360 b 199.3 449.8 85.0 349.9 155.5 103.5 q 187 59 253 59"},"%":{"ha":802,"x_min":44,"x_max":758,"o":"m 198 366 b 3.7 415.2 -16.7 629.8 198 718 b 392.7 669.8 412.9 455.1 198 366 m 196 0 l 116 0 l 606 710 l 686 710 l 196 0 m 198 428 b 303.7 460.9 313.3 597.3 198 656 b 92.7 623.1 82.9 486.7 198 428 m 604 -8 b 409.7 41.2 389.3 255.8 604 344 b 798.7 295.8 818.9 81.1 604 -8 m 604 54 b 709.7 86.9 719.3 223.3 604 282 b 498.7 249.1 488.9 112.7 604 54"},"‰":{"ha":1170,"x_min":44,"x_max":1126,"o":"m 198 366 b 3.7 415.2 -16.7 629.8 198 718 b 392.7 669.8 412.9 455.1 198 366 m 196 0 l 116 0 l 606 710 l 686 710 l 196 0 m 198 428 b 303.7 460.9 313.3 597.3 198 656 b 92.7 623.1 82.9 486.7 198 428 m 604 -8 b 409.7 41.2 389.3 255.8 604 344 b 798.7 295.8 818.9 81.1 604 -8 m 972 -8 b 777.7 41.2 757.3 255.8 972 344 b 1166.7 295.8 1186.9 81.1 972 -8 m 604 54 b 709.7 86.9 719.3 223.3 604 282 b 498.7 249.1 488.9 112.7 604 54 m 972 54 b 1077.7 86.9 1087.3 223.3 972 282 b 866.7 249.1 856.9 112.7 972 54"},"∶":{"ha":297,"x_min":92,"x_max":205,"o":"m 205 100 l 92 100 l 92 213 l 205 213 l 205 100 m 205 493 l 92 493 l 92 606 l 205 606 l 205 493"},"↑":{"ha":712,"x_min":45,"x_max":667,"o":"m 397 0 l 315 0 l 315 559 l 45 289 l 45 400 l 356 710 l 667 399 l 667 288 l 397 557 l 397 0"},"↗":{"ha":621,"x_min":45,"x_max":576,"o":"m 103 89 l 45 147 l 440 543 l 58 543 l 137 621 l 576 620 l 576 180 l 497 102 l 497 483 l 103 89"},"→":{"ha":800,"x_min":45,"x_max":755,"o":"m 444 44 l 333 44 l 602 314 l 45 314 l 45 396 l 604 396 l 334 666 l 445 666 l 755 355 l 444 44"},"↘":{"ha":622,"x_min":45,"x_max":577,"o":"m 136 89 l 58 168 l 439 168 l 45 562 l 103 620 l 499 225 l 499 607 l 577 528 l 576 89 l 136 89"},"↓":{"ha":712,"x_min":45,"x_max":667,"o":"m 315 151 l 315 710 l 397 710 l 397 153 l 667 422 l 667 311 l 356 0 l 45 310 l 45 421 l 315 151"},"↙":{"ha":622,"x_min":45,"x_max":577,"o":"m 183 168 l 564 168 l 486 89 l 46 89 l 45 528 l 123 607 l 123 225 l 519 620 l 577 562 l 183 168"},"←":{"ha":800,"x_min":45,"x_max":755,"o":"m 198 314 l 467 44 l 356 44 l 45 355 l 355 666 l 466 666 l 196 396 l 755 396 l 755 314 l 198 314"},"↖":{"ha":621,"x_min":45,"x_max":576,"o":"m 124 483 l 124 102 l 45 180 l 45 620 l 484 621 l 563 543 l 181 543 l 576 147 l 518 89 l 124 483"},"↔":{"ha":1036,"x_min":45,"x_max":991,"o":"m 198 314 l 467 44 l 356 44 l 45 355 l 355 666 l 466 666 l 196 396 l 840 396 l 570 666 l 681 666 l 991 355 l 680 44 l 569 44 l 838 314 l 198 314"},"↕":{"ha":712,"x_min":45,"x_max":667,"o":"m 45 193 l 45 304 l 315 35 l 315 675 l 45 406 l 45 517 l 356 828 l 667 518 l 667 407 l 397 677 l 397 33 l 667 303 l 667 192 l 356 -118 l 45 193"},"↝":{"ha":651,"x_min":45,"x_max":606,"o":"m 372 170 b 309.1 162.5 257.8 217.2 237.5 357 b 216.1 398.3 169.4 392.6 127 310 l 45 310 b 73.2 428.6 154.7 487.7 282 424.5 b 320.5 286.0 345.5 218.5 415 265.5 q 435 284 451 314 l 370 362 l 584 461 l 606 224 l 519 275 b 495.5 225.4 435.2 174.7 372 170"},"⇤":{"ha":671,"x_min":45,"x_max":626,"o":"m 123 159 l 45 159 l 45 549 l 123 549 l 123 159 m 353 315 l 353 193 l 160 354 l 352 515 l 352 393 l 626 393 l 626 315 l 353 315"},"⇥":{"ha":671,"x_min":45,"x_max":626,"o":"m 626 549 l 626 159 l 548 159 l 548 549 l 626 549 m 511 354 l 318 193 l 318 315 l 45 315 l 45 393 l 319 393 l 319 515 l 511 354"},"↩":{"ha":655,"x_min":45,"x_max":610,"o":"m 190 246 l 318 118 l 212 118 l 45 285 l 210 451 l 317 451 l 188 324 l 390 324 b 500.9 332.5 556.1 404.7 513 522 b 499.5 551.8 451.5 583.7 390 587 l 95 587 l 95 665 l 390 665 b 561.7 651.3 647.3 536.5 580.5 348.5 b 559.5 301.3 485.3 251.1 390 246 l 190 246"},"↪":{"ha":655,"x_min":45,"x_max":610,"o":"m 443 118 l 337 118 l 465 246 l 265 246 b 93.7 258.7 7.7 373.3 74.5 561.5 b 95.6 608.7 170.7 659.7 265 665 l 560 665 l 560 587 l 265 587 b 154.5 578.5 98.9 505.9 142 389 b 155.7 359.2 204.5 327.3 265 324 l 467 324 l 338 451 l 445 451 l 610 285 l 443 118"},"↰":{"ha":662,"x_min":45,"x_max":617,"o":"m 239 404 l 239 284 l 45 445 l 238 606 l 238 486 l 617 486 l 617 0 l 535 0 l 535 404 l 239 404"},"↱":{"ha":662,"x_min":45,"x_max":617,"o":"m 127 404 l 127 0 l 45 0 l 45 486 l 424 486 l 424 606 l 617 445 l 423 284 l 423 404 l 127 404"},"↳":{"ha":662,"x_min":45,"x_max":617,"o":"m 423 306 l 423 426 l 617 265 l 424 104 l 424 224 l 45 224 l 45 710 l 127 710 l 127 306 l 423 306"},"↴":{"ha":667,"x_min":45,"x_max":622,"o":"m 622 193 l 461 0 l 300 194 l 422 194 l 422 631 l 45 631 l 45 709 l 500 709 l 500 193 l 622 193"},"↵":{"ha":662,"x_min":45,"x_max":617,"o":"m 45 265 l 239 426 l 239 306 l 535 306 l 535 710 l 617 710 l 617 224 l 238 224 l 238 104 l 45 265"},"⇧":{"ha":796,"x_min":20,"x_max":776,"o":"m 568 0 l 230 0 l 230 344 l 20 344 l 399 721 l 776 344 l 568 344 l 568 0 m 308 422 l 308 78 l 490 78 l 490 422 l 592 422 l 399 615 l 205 422 l 308 422"},"●":{"ha":844,"x_min":45,"x_max":799,"o":"m 422 -12 b 210.4 -7.6 72.5 106.6 45 356 b 50.3 567.9 169.5 700.6 422 726 b 633.6 721.9 771.5 607.9 799 356 b 793.7 146.4 674.5 13.7 422 -12"},"○":{"ha":844,"x_min":45,"x_max":799,"o":"m 422 -12 b 210.4 -7.6 72.5 106.6 45 356 b 50.3 567.9 169.5 700.6 422 726 b 633.6 721.9 771.5 607.9 799 356 b 793.7 146.4 674.5 13.7 422 -12 m 422 59 b 660.9 75.3 777.6 236.6 686 510.5 b 554.5 694.8 338.1 712.8 158 510.5 b 59.1 289.0 143.5 105.4 422 59"},"◌":{"ha":844,"x_min":45,"x_max":799,"o":"m 363 664 l 349 734 b 364.2 737.0 393.0 740.5 422 741 l 422 669 b 409.2 669.2 385.9 667.2 363 664 m 558 721 l 532 654 b 521.1 658.5 497.5 665.2 474 670 l 486 741 b 502.5 738.0 531.6 731.1 558 721 m 253 618 l 213 678 b 225.6 687.9 251.7 702.2 278 713 l 305 647 b 292.6 641.2 270.7 630.0 253 618 m 682 643 l 633 590 q 610 611 586 627 l 624 688 q 654 669 682 643 m 169 535 l 108 575 q 128 605 155 632 l 206 581 b 197.2 571.9 181.7 554.4 169 535 m 768 524 l 702 495 b 697.1 507.4 684.7 527.8 672 545 l 731 588 b 741.0 575.5 756.7 550.1 768 524 m 123 426 l 52 439 q 58 477 73 510 l 140 483 q 128 455 123 426 m 799 380 l 727 379 q 727 411 720 438 l 791 453 q 799 416 799 380 m 124 308 l 53 293 q 45 330 45 366 l 117 367 q 117 335 124 308 m 771 236 l 705 263 b 709.7 275.0 717.2 298.1 721 320 l 792 307 q 786 269 771 236 m 172 201 l 113 158 b 104.2 170.7 88.7 196.9 76 222 l 143 251 q 155 224 172 201 m 689 114 l 638 165 b 647.8 174.1 662.7 191.6 675 211 l 736 171 q 716 141 689 114 m 258 119 l 220 58 q 190 77 162 103 l 211 156 q 234 135 258 119 m 566 33 l 539 100 b 551.4 104.8 573.3 115.8 591 128 l 631 68 b 618.4 59.2 592.3 45.2 566 33 m 370 76 l 358 5 b 341.5 8.0 312.4 14.9 286 25 l 312 92 b 323.8 87.5 346.9 80.8 370 76 m 422 5 l 422 77 b 434.8 76.8 458.1 78.8 481 82 l 495 12 b 479.8 9.0 451.0 5.5 422 5"},"◊":{"ha":531,"x_min":45,"x_max":486,"o":"m 317 0 l 214 0 l 45 322 l 214 644 l 317 644 l 486 322 l 317 0 m 266 577 l 131 322 l 266 67 l 400 322 l 266 577"},"▲":{"ha":870,"x_min":26,"x_max":845,"o":"m 845 0 l 26 0 l 435 710 l 845 0"},"▶":{"ha":870,"x_min":80,"x_max":790,"o":"m 790 356 l 80 -1 l 80 712 l 790 356"},"▼":{"ha":870,"x_min":26,"x_max":845,"o":"m 435 0 l 26 710 l 845 710 l 435 0"},"◀":{"ha":870,"x_min":80,"x_max":790,"o":"m 790 712 l 790 -1 l 80 356 l 790 712"},"△":{"ha":870,"x_min":26,"x_max":845,"o":"m 845 0 l 26 0 l 435 710 l 845 0 m 435 554 l 163 78 l 709 78 l 435 554"},"▷":{"ha":870,"x_min":80,"x_max":790,"o":"m 790 356 l 80 -1 l 80 712 l 790 356 m 158 586 l 158 125 l 615 356 l 158 586"},"▽":{"ha":870,"x_min":26,"x_max":845,"o":"m 435 0 l 26 710 l 845 710 l 435 0 m 709 632 l 163 632 l 435 156 l 709 632"},"◁":{"ha":870,"x_min":80,"x_max":790,"o":"m 790 712 l 790 -1 l 80 356 l 790 712 m 255 356 l 712 125 l 712 586 l 255 356"},"̈":{"ha":0,"x_min":44,"x_max":306,"o":"m 132 613 l 44 613 l 44 711 l 132 711 l 132 613 m 306 613 l 218 613 l 218 711 l 306 711 l 306 613"},"̇":{"ha":0,"x_min":44,"x_max":132,"o":"m 132 613 l 44 613 l 44 711 l 132 711 l 132 613"},"̀":{"ha":0,"x_min":44,"x_max":204,"o":"m 204 598 l 134 598 l 44 726 l 138 726 l 204 598"},"́":{"ha":0,"x_min":44,"x_max":204,"o":"m 114 598 l 44 598 l 110 726 l 204 726 l 114 598"},"̋":{"ha":0,"x_min":44,"x_max":335,"o":"m 114 598 l 44 598 l 110 726 l 204 726 l 114 598 m 245 598 l 175 598 l 241 726 l 335 726 l 245 598"},"̂":{"ha":0,"x_min":44,"x_max":318,"o":"m 114 598 l 44 598 l 134 731 l 228 731 l 318 598 l 248 598 l 181 687 l 114 598"},"̌":{"ha":0,"x_min":44,"x_max":318,"o":"m 134 598 l 44 731 l 114 731 l 181 642 l 248 731 l 318 731 l 228 598 l 134 598"},"̆":{"ha":0,"x_min":44,"x_max":323,"o":"m 184 603 b 123.8 595.4 55.5 642.5 44 731 l 102 731 b 132.7 645.5 219.5 638.0 265 731 l 323 731 b 328.2 673.3 277.8 609.9 184 603"},"̊":{"ha":0,"x_min":44,"x_max":228,"o":"m 136 576 b 20.4 607.1 7.9 708.3 136 760 b 251.6 728.9 264.1 627.7 136 576 m 136 626 b 188.9 640.0 194.5 686.6 136 710 b 83.1 696.0 77.5 649.4 136 626"},"̃":{"ha":0,"x_min":44,"x_max":359,"o":"m 261 610 b 214.0 618.7 172.6 652.5 139 664 b 121.4 669.2 100.9 653.4 96 603 l 44 603 b 80.2 739.5 164.8 747.4 215 690 b 259.2 649.8 295.4 652.5 307 730 l 359 730 b 361.7 673.5 326.1 615.4 261 610"},"̄":{"ha":0,"x_min":44,"x_max":312,"o":"m 312 625 l 44 625 l 44 697 l 312 697 l 312 625"},"̉":{"ha":0,"x_min":44,"x_max":200,"o":"m 148 590 l 88 590 b 147.1 644.9 154.4 688.9 95 700 b 83.2 700.4 59.9 696.9 44 692 l 44 750 b 69.9 770.9 151.8 776.9 200 682 b 202.0 650.4 178.5 612.0 148 590"},"̒":{"ha":0,"x_min":44,"x_max":163,"o":"m 144 603 l 44 603 l 44 685 l 105 790 l 163 790 l 108 693 l 144 693 l 144 603"},"̛":{"ha":0,"x_min":44,"x_max":222,"o":"m 106 482 l 50 482 l 44 530 l 98 530 b 155.8 532.5 159.7 592.2 134 670 l 208 670 b 241.7 623.7 249.8 529.4 106 482"}}}
